RecursiveSans-StrictLightItalic.ufo
<glyph name="exclam" format="1">
  <advance width="350"/>
  <unicode hex="0021"/>
  <outline>
    <contour>
      <point x="195" y="243" type="line"/>
      <point x="221" y="329"/>
      <point x="247" y="416"/>
      <point x="273" y="502" type="curve"/>
      <point x="319" y="689" type="line" smooth="yes"/>
      <point x="321" y="696"/>
      <point x="318" y="700"/>
      <point x="312" y="700" type="curve" smooth="yes"/>
      <point x="289" y="700"/>
      <point x="267" y="700"/>
      <point x="246" y="700" type="curve"/>
      <point x="237" y="662"/>
      <point x="228" y="627"/>
      <point x="219" y="590" type="curve" smooth="yes"/>
      <point x="197" y="502" type="line"/>
      <point x="147" y="256"/>
      <point x="147" y="250"/>
      <point x="150" y="246" type="curve" smooth="yes"/>
      <point x="151" y="244"/>
      <point x="153" y="243"/>
      <point x="157" y="243" type="curve"/>
    </contour>
    <contour>
      <point x="172" y="-5" type="curve"/>
      <point x="200" y="108" type="line" smooth="yes"/>
      <point x="202" y="114"/>
      <point x="198" y="119"/>
      <point x="192" y="119" type="curve" smooth="yes"/>
      <point x="160" y="119"/>
      <point x="107" y="119"/>
      <point x="75" y="119" type="curve"/>
      <point x="46" y="6" type="line" smooth="yes"/>
      <point x="45" y="0"/>
      <point x="49" y="-5"/>
      <point x="55" y="-5" type="curve" smooth="yes"/>
      <point x="87" y="-5"/>
      <point x="140" y="-5"/>
    </contour>
  </outline>
</glyph>
<glyph name="quotedbl" format="1">
  <advance width="600"/>
  <unicode hex="0022"/>
  <outline>
    <contour>
      <point x="268" y="450" type="curve"/>
      <point x="363" y="737" type="line" smooth="yes"/>
      <point x="366" y="746"/>
      <point x="362" y="750"/>
      <point x="356" y="750" type="curve" smooth="yes"/>
      <point x="326" y="750"/>
      <point x="292" y="750"/>
      <point x="254" y="750" type="curve"/>
      <point x="248" y="714"/>
      <point x="242" y="683"/>
      <point x="237" y="648" type="curve" smooth="yes"/>
      <point x="205" y="461" type="line" smooth="yes"/>
      <point x="204" y="454"/>
      <point x="208" y="450"/>
      <point x="214" y="450" type="curve" smooth="yes"/>
      <point x="232" y="450"/>
      <point x="250" y="450"/>
    </contour>
    <contour>
      <point x="490" y="450" type="curve"/>
      <point x="585" y="737" type="line" smooth="yes"/>
      <point x="588" y="746"/>
      <point x="584" y="750"/>
      <point x="578" y="750" type="curve" smooth="yes"/>
      <point x="548" y="750"/>
      <point x="514" y="750"/>
      <point x="476" y="750" type="curve"/>
      <point x="427" y="461" type="line"/>
      <point x="426" y="454"/>
      <point x="430" y="450"/>
      <point x="436" y="450" type="curve" smooth="yes"/>
      <point x="454" y="450"/>
      <point x="472" y="450"/>
    </contour>
  </outline>
</glyph>
<glyph name="dollar" format="1">
  <advance width="600"/>
  <unicode hex="0024"/>
  <outline>
    <contour>
      <point x="431" y="717" type="curve" smooth="yes"/>
      <point x="295" y="717"/>
      <point x="185" y="647"/>
      <point x="160" y="549" type="curve" smooth="yes"/>
      <point x="148" y="503" type="line" smooth="yes"/>
      <point x="144" y="486"/>
      <point x="165" y="471"/>
      <point x="195" y="471" type="curve"/>
      <point x="200" y="492"/>
      <point x="207" y="521"/>
      <point x="213" y="544" type="curve" smooth="yes"/>
      <point x="231" y="617"/>
      <point x="308" y="662"/>
      <point x="416" y="662" type="curve" smooth="yes"/>
      <point x="494" y="662"/>
      <point x="539" y="643"/>
      <point x="581" y="591" type="curve"/>
      <point x="594" y="591" type="line"/>
      <point x="596" y="602"/>
      <point x="601" y="621"/>
      <point x="607" y="646" type="curve" smooth="yes"/>
      <point x="608" y="650"/>
      <point x="608" y="652"/>
      <point x="606" y="654" type="curve" smooth="yes"/>
      <point x="577" y="694"/>
      <point x="510" y="717"/>
    </contour>
    <contour>
      <point x="395" y="369" type="curve" smooth="yes"/>
      <point x="306" y="397" type="line" smooth="yes"/>
      <point x="212" y="426"/>
      <point x="190" y="452"/>
      <point x="205" y="512" type="curve" smooth="yes"/>
      <point x="211" y="538"/>
      <point x="216" y="557"/>
      <point x="226" y="597" type="curve"/>
      <point x="189" y="586"/>
      <point x="162" y="556"/>
      <point x="148" y="503" type="curve" smooth="yes"/>
      <point x="130" y="431"/>
      <point x="165" y="380"/>
      <point x="280" y="343" type="curve" smooth="yes"/>
      <point x="371" y="314" type="line" smooth="yes"/>
      <point x="453" y="287"/>
      <point x="472" y="260"/>
      <point x="455" y="194" type="curve" smooth="yes"/>
      <point x="450" y="173"/>
      <point x="442" y="143"/>
      <point x="437" y="122" type="curve"/>
      <point x="458" y="122"/>
      <point x="504" y="172"/>
      <point x="513" y="205" type="curve"/>
      <point x="533" y="286"/>
      <point x="502" y="336"/>
    </contour>
    <contour>
      <point x="228" y="-16" type="curve" smooth="yes"/>
      <point x="364" y="-16"/>
      <point x="475" y="53"/>
      <point x="499" y="151" type="curve" smooth="yes"/>
      <point x="513" y="205" type="line" smooth="yes"/>
      <point x="516" y="220"/>
      <point x="495" y="234"/>
      <point x="465" y="234" type="curve"/>
      <point x="459" y="211"/>
      <point x="452" y="182"/>
      <point x="446" y="157" type="curve" smooth="yes"/>
      <point x="427" y="84"/>
      <point x="351" y="39"/>
      <point x="242" y="39" type="curve" smooth="yes"/>
      <point x="154" y="39"/>
      <point x="100" y="59"/>
      <point x="54" y="117" type="curve"/>
      <point x="41" y="117" type="line"/>
      <point x="39" y="106"/>
      <point x="34" y="88"/>
      <point x="28" y="62" type="curve" smooth="yes"/>
      <point x="27" y="58"/>
      <point x="27" y="56"/>
      <point x="29" y="54" type="curve" smooth="yes"/>
      <point x="62" y="9"/>
      <point x="137" y="-16"/>
    </contour>
    <contour>
      <point x="379" y="455" type="line"/>
      <point x="481" y="774" type="line" smooth="yes"/>
      <point x="484" y="783"/>
      <point x="480" y="787"/>
      <point x="474" y="787" type="curve" smooth="yes"/>
      <point x="452" y="787"/>
      <point x="443" y="787"/>
      <point x="422" y="787" type="curve"/>
      <point x="415" y="759"/>
      <point x="408" y="730"/>
      <point x="401" y="702" type="curve"/>
      <point x="344" y="475" type="line" smooth="yes"/>
      <point x="342" y="467"/>
      <point x="345" y="463"/>
      <point x="350" y="462" type="curve" smooth="yes"/>
    </contour>
    <contour>
      <point x="277" y="258" type="line"/>
      <point x="172" y="-73" type="line" smooth="yes"/>
      <point x="169" y="-82"/>
      <point x="173" y="-86"/>
      <point x="179" y="-86" type="curve" smooth="yes"/>
      <point x="200" y="-86"/>
      <point x="211" y="-86"/>
      <point x="231" y="-86" type="curve"/>
      <point x="239" y="-57"/>
      <point x="246" y="-28"/>
      <point x="253" y="1" type="curve"/>
      <point x="311" y="233" type="line" smooth="yes"/>
      <point x="313" y="242"/>
      <point x="312" y="248"/>
      <point x="304" y="250" type="curve" smooth="yes"/>
    </contour>
  </outline>
</glyph>
<glyph name="quotesingle" format="1">
  <advance width="250"/>
  <unicode hex="0027"/>
  <outline>
    <contour>
      <point x="205" y="450" type="curve"/>
      <point x="300" y="737" type="line" smooth="yes"/>
      <point x="303" y="746"/>
      <point x="299" y="750"/>
      <point x="293" y="750" type="curve" smooth="yes"/>
      <point x="262" y="750"/>
      <point x="228" y="750"/>
      <point x="190" y="750" type="curve"/>
      <point x="184" y="714"/>
      <point x="178" y="683"/>
      <point x="173" y="648" type="curve" smooth="yes"/>
      <point x="141" y="461" type="line" smooth="yes"/>
      <point x="140" y="454"/>
      <point x="144" y="450"/>
      <point x="150" y="450" type="curve" smooth="yes"/>
      <point x="169" y="450"/>
      <point x="187" y="450"/>
    </contour>
  </outline>
</glyph>
<glyph name="parenleft" format="1">
  <advance width="400"/>
  <unicode hex="0028"/>
  <outline>
    <contour>
      <point x="436" y="751" type="curve" smooth="yes"/>
      <point x="286" y="631"/>
      <point x="190" y="474"/>
      <point x="147" y="304" type="curve" smooth="yes"/>
      <point x="146" y="297" type="line" smooth="yes"/>
      <point x="103" y="127"/>
      <point x="120" y="-30"/>
      <point x="210" y="-150" type="curve" smooth="yes"/>
      <point x="213" y="-156"/>
      <point x="220" y="-158"/>
      <point x="228" y="-158" type="curve" smooth="yes"/>
      <point x="244" y="-158"/>
      <point x="260" y="-158"/>
      <point x="276" y="-158" type="curve"/>
      <point x="279" y="-146" type="line"/>
      <point x="183" y="-28"/>
      <point x="159" y="128"/>
      <point x="201" y="297" type="curve" smooth="yes"/>
      <point x="203" y="304" type="line" smooth="yes"/>
      <point x="246" y="473"/>
      <point x="347" y="629"/>
      <point x="502" y="747" type="curve"/>
      <point x="505" y="759" type="line"/>
      <point x="489" y="759"/>
      <point x="474" y="759"/>
      <point x="458" y="759" type="curve" smooth="yes"/>
      <point x="450" y="759"/>
      <point x="441" y="757"/>
    </contour>
  </outline>
</glyph>
<glyph name="parenright" format="1">
  <advance width="400"/>
  <unicode hex="0029"/>
  <outline>
    <contour>
      <point x="-17" y="-150" type="curve" smooth="yes"/>
      <point x="133" y="-30"/>
      <point x="229" y="127"/>
      <point x="271" y="297" type="curve" smooth="yes"/>
      <point x="273" y="304" type="line" smooth="yes"/>
      <point x="315" y="474"/>
      <point x="298" y="631"/>
      <point x="208" y="751" type="curve" smooth="yes"/>
      <point x="205" y="757"/>
      <point x="198" y="759"/>
      <point x="190" y="759" type="curve" smooth="yes"/>
      <point x="174" y="759"/>
      <point x="159" y="759"/>
      <point x="143" y="759" type="curve"/>
      <point x="140" y="747" type="line"/>
      <point x="236" y="629"/>
      <point x="260" y="473"/>
      <point x="217" y="304" type="curve" smooth="yes"/>
      <point x="215" y="297" type="line" smooth="yes"/>
      <point x="173" y="128"/>
      <point x="72" y="-28"/>
      <point x="-84" y="-146" type="curve"/>
      <point x="-87" y="-158" type="line"/>
      <point x="-71" y="-158"/>
      <point x="-55" y="-158"/>
      <point x="-39" y="-158" type="curve" smooth="yes"/>
      <point x="-31" y="-158"/>
      <point x="-23" y="-156"/>
    </contour>
  </outline>
</glyph>
<glyph name="asterisk" format="1">
  <advance width="500"/>
  <unicode hex="002A"/>
  <outline>
    <contour>
      <point x="346" y="768" type="curve"/>
      <point x="342" y="747"/>
      <point x="339" y="726"/>
      <point x="336" y="704" type="curve" smooth="yes"/>
      <point x="311" y="561" type="line"/>
      <point x="245" y="362" type="line" smooth="yes"/>
      <point x="244" y="357"/>
      <point x="245" y="354"/>
      <point x="251" y="354" type="curve"/>
      <point x="268" y="354"/>
      <point x="285" y="354"/>
      <point x="303" y="354" type="curve"/>
      <point x="307" y="375"/>
      <point x="310" y="395"/>
      <point x="313" y="417" type="curve" smooth="yes"/>
      <point x="338" y="561" type="line"/>
      <point x="404" y="760" type="line" smooth="yes"/>
      <point x="405" y="765"/>
      <point x="404" y="768"/>
      <point x="398" y="768" type="curve" smooth="yes"/>
      <point x="381" y="768"/>
      <point x="364" y="768"/>
    </contour>
    <contour>
      <point x="520" y="690" type="curve"/>
      <point x="320" y="571" type="line"/>
      <point x="118" y="487" type="line" smooth="yes"/>
      <point x="114" y="484"/>
      <point x="111" y="480"/>
      <point x="112" y="475" type="curve"/>
      <point x="118" y="460"/>
      <point x="123" y="446"/>
      <point x="128" y="430" type="curve"/>
      <point x="328" y="549" type="line"/>
      <point x="530" y="634" type="line" smooth="yes"/>
      <point x="535" y="637"/>
      <point x="537" y="641"/>
      <point x="535" y="645" type="curve" smooth="yes"/>
      <point x="530" y="660"/>
      <point x="525" y="675"/>
    </contour>
    <contour>
      <point x="500" y="483" type="curve"/>
      <point x="334" y="572" type="line"/>
      <point x="199" y="686" type="line" smooth="yes"/>
      <point x="195" y="688"/>
      <point x="191" y="687"/>
      <point x="187" y="683" type="curve"/>
      <point x="174" y="668"/>
      <point x="161" y="653"/>
      <point x="149" y="637" type="curve"/>
      <point x="315" y="549" type="line"/>
      <point x="451" y="435" type="line" smooth="yes"/>
      <point x="455" y="433"/>
      <point x="459" y="433"/>
      <point x="462" y="438" type="curve"/>
      <point x="474" y="454"/>
      <point x="488" y="469"/>
    </contour>
  </outline>
</glyph>
<glyph name="plus" format="1">
  <advance width="600"/>
  <unicode hex="002B"/>
  <outline>
    <contour>
      <point x="91" y="328" type="line"/>
      <point x="87" y="313"/>
      <point x="84" y="298"/>
      <point x="80" y="283" type="curve" smooth="yes"/>
      <point x="79" y="280"/>
      <point x="80" y="277"/>
      <point x="81" y="275" type="curve" smooth="yes"/>
      <point x="83" y="273"/>
      <point x="85" y="272"/>
      <point x="88" y="272" type="curve"/>
      <point x="527" y="272" type="line"/>
      <point x="531" y="287"/>
      <point x="535" y="302"/>
      <point x="538" y="317" type="curve" smooth="yes"/>
      <point x="540" y="323"/>
      <point x="536" y="328"/>
      <point x="530" y="328" type="curve"/>
    </contour>
    <contour>
      <point x="280" y="74" type="curve"/>
      <point x="391" y="516" type="line" smooth="yes"/>
      <point x="392" y="519"/>
      <point x="391" y="522"/>
      <point x="390" y="524" type="curve" smooth="yes"/>
      <point x="388" y="526"/>
      <point x="386" y="527"/>
      <point x="383" y="527" type="curve" smooth="yes"/>
      <point x="368" y="527"/>
      <point x="353" y="527"/>
      <point x="338" y="527" type="curve"/>
      <point x="334" y="510"/>
      <point x="325" y="474"/>
      <point x="313" y="427" type="curve" smooth="yes"/>
      <point x="228" y="85" type="line" smooth="yes"/>
      <point x="226" y="79"/>
      <point x="230" y="74"/>
      <point x="236" y="74" type="curve" smooth="yes"/>
      <point x="251" y="74"/>
      <point x="265" y="74"/>
    </contour>
  </outline>
</glyph>
<glyph name="comma" format="1">
  <advance width="350"/>
  <unicode hex="002C"/>
  <outline>
    <contour>
      <point x="19" y="-190" type="curve" smooth="yes"/>
      <point x="24" y="-190"/>
      <point x="28" y="-189"/>
      <point x="32" y="-183" type="curve"/>
      <point x="96" y="-89"/>
      <point x="160" y="7"/>
      <point x="224" y="99" type="curve"/>
      <point x="229" y="107"/>
      <point x="227" y="112"/>
      <point x="219" y="112" type="curve" smooth="yes"/>
      <point x="182" y="112"/>
      <point x="161" y="112"/>
      <point x="118" y="112" type="curve"/>
      <point x="69" y="12"/>
      <point x="20" y="-89"/>
      <point x="-30" y="-190" type="curve"/>
      <point x="-16" y="-190"/>
      <point x="-2" y="-190"/>
    </contour>
  </outline>
</glyph>
<glyph name="hyphen" format="1">
  <advance width="600"/>
  <unicode hex="002D"/>
  <outline>
    <contour>
      <point x="141" y="328" type="line"/>
      <point x="137" y="313"/>
      <point x="134" y="298"/>
      <point x="130" y="283" type="curve" smooth="yes"/>
      <point x="129" y="280"/>
      <point x="130" y="277"/>
      <point x="131" y="275" type="curve" smooth="yes"/>
      <point x="133" y="273"/>
      <point x="135" y="272"/>
      <point x="138" y="272" type="curve"/>
      <point x="477" y="272" type="line"/>
      <point x="481" y="287"/>
      <point x="484" y="302"/>
      <point x="488" y="317" type="curve" smooth="yes"/>
      <point x="490" y="323"/>
      <point x="486" y="328"/>
      <point x="480" y="328" type="curve"/>
    </contour>
  </outline>
</glyph>
<glyph name="period" format="1">
  <advance width="300"/>
  <unicode hex="002E"/>
  <outline>
    <contour>
      <point x="147" y="-5" type="curve"/>
      <point x="175" y="108" type="line" smooth="yes"/>
      <point x="177" y="114"/>
      <point x="173" y="119"/>
      <point x="167" y="119" type="curve" smooth="yes"/>
      <point x="135" y="119"/>
      <point x="82" y="119"/>
      <point x="50" y="119" type="curve"/>
      <point x="21" y="6" type="line" smooth="yes"/>
      <point x="20" y="0"/>
      <point x="24" y="-5"/>
      <point x="30" y="-5" type="curve" smooth="yes"/>
      <point x="62" y="-5"/>
      <point x="115" y="-5"/>
    </contour>
  </outline>
</glyph>
<glyph name="zero" format="1">
  <advance width="600"/>
  <unicode hex="0030"/>
  <outline>
    <contour>
      <point x="389" y="720" type="curve" smooth="yes"/>
      <point x="252" y="720"/>
      <point x="170" y="649"/>
      <point x="125" y="466" type="curve" smooth="yes"/>
      <point x="75" y="265" type="line" smooth="yes"/>
      <point x="31" y="90"/>
      <point x="107" y="-20"/>
      <point x="254" y="-20" type="curve"/>
      <point x="263" y="-20"/>
      <point x="263" y="-14"/>
      <point x="260" y="30" type="curve"/>
      <point x="145" y="30"/>
      <point x="93" y="107"/>
      <point x="130" y="262" type="curve" smooth="yes"/>
      <point x="177" y="457" type="line" smooth="yes"/>
      <point x="214" y="614"/>
      <point x="281" y="670"/>
      <point x="384" y="670" type="curve" smooth="yes"/>
      <point x="420" y="670"/>
      <point x="460" y="670"/>
      <point x="490" y="670" type="curve"/>
      <point x="495" y="691"/>
      <point x="450" y="720"/>
    </contour>
    <contour>
      <point x="254" y="-20" type="curve" smooth="yes"/>
      <point x="391" y="-20"/>
      <point x="473" y="51"/>
      <point x="519" y="234" type="curve" smooth="yes"/>
      <point x="569" y="435" type="line" smooth="yes"/>
      <point x="612" y="610"/>
      <point x="537" y="720"/>
      <point x="389" y="720" type="curve"/>
      <point x="381" y="720"/>
      <point x="381" y="714"/>
      <point x="384" y="670" type="curve"/>
      <point x="498" y="670"/>
      <point x="551" y="593"/>
      <point x="514" y="438" type="curve" smooth="yes"/>
      <point x="467" y="243" type="line" smooth="yes"/>
      <point x="429" y="86"/>
      <point x="362" y="30"/>
      <point x="259" y="30" type="curve" smooth="yes"/>
      <point x="222" y="30"/>
      <point x="183" y="30"/>
      <point x="153" y="30" type="curve"/>
      <point x="148" y="9"/>
      <point x="194" y="-20"/>
    </contour>
  </outline>
</glyph>
<glyph name="one" format="1">
  <advance width="600"/>
  <unicode hex="0031"/>
  <outline>
    <contour>
      <point x="300" y="12" type="curve"/>
      <point x="358" y="242"/>
      <point x="415" y="471"/>
      <point x="472" y="699" type="curve" smooth="yes"/>
      <point x="474" y="706"/>
      <point x="471" y="710"/>
      <point x="464" y="710" type="curve" smooth="yes"/>
      <point x="419" y="710" type="line"/>
      <point x="363" y="487"/>
      <point x="306" y="258"/>
      <point x="250" y="35" type="curve" smooth="yes"/>
      <point x="246" y="15"/>
      <point x="265" y="12"/>
    </contour>
    <contour>
      <point x="36" y="50" type="line"/>
      <point x="32" y="36"/>
      <point x="30" y="25"/>
      <point x="26" y="11" type="curve" smooth="yes"/>
      <point x="25" y="8"/>
      <point x="25" y="5"/>
      <point x="27" y="3" type="curve" smooth="yes"/>
      <point x="28" y="1"/>
      <point x="31" y="0"/>
      <point x="34" y="0" type="curve" smooth="yes"/>
      <point x="474" y="0" type="line"/>
      <point x="478" y="13"/>
      <point x="481" y="25"/>
      <point x="485" y="39" type="curve" smooth="yes"/>
      <point x="486" y="45"/>
      <point x="482" y="50"/>
      <point x="476" y="50" type="curve" smooth="yes"/>
    </contour>
    <contour>
      <point x="154" y="464" type="curve" smooth="yes"/>
      <point x="166" y="464"/>
      <point x="173" y="466"/>
      <point x="416" y="651" type="curve" smooth="yes"/>
      <point x="428" y="660"/>
      <point x="436" y="668"/>
      <point x="438" y="676" type="curve" smooth="yes"/>
      <point x="442" y="690"/>
      <point x="442" y="710"/>
      <point x="423" y="710" type="curve"/>
      <point x="406" y="710" type="line"/>
      <point x="366" y="680"/>
      <point x="327" y="649"/>
      <point x="287" y="619" type="curve"/>
      <point x="246" y="588"/>
      <point x="205" y="558"/>
      <point x="164" y="527" type="curve"/>
      <point x="150" y="474" type="line" smooth="yes"/>
      <point x="148" y="466"/>
      <point x="150" y="464"/>
    </contour>
  </outline>
</glyph>
<glyph name="two" format="1">
  <advance width="600"/>
  <unicode hex="0032"/>
  <outline>
    <contour>
      <point x="545" y="608" type="curve"/>
      <point x="536" y="569"/>
      <point x="533" y="561"/>
      <point x="524" y="523" type="curve" smooth="yes"/>
      <point x="509" y="461"/>
      <point x="477" y="434"/>
      <point x="311" y="343" type="curve" smooth="yes"/>
      <point x="124" y="238"/>
      <point x="47" y="175"/>
      <point x="14" y="42" type="curve" smooth="yes"/>
      <point x="11" y="32"/>
      <point x="19" y="31"/>
      <point x="68" y="31" type="curve"/>
      <point x="96" y="146"/>
      <point x="132" y="180"/>
      <point x="345" y="300" type="curve" smooth="yes"/>
      <point x="501" y="388"/>
      <point x="556" y="426"/>
      <point x="577" y="513" type="curve" smooth="yes"/>
      <point x="585" y="544" type="line" smooth="yes"/>
      <point x="592" y="573"/>
      <point x="587" y="608"/>
    </contour>
    <contour>
      <point x="465" y="0" type="line"/>
      <point x="468" y="13"/>
      <point x="472" y="25"/>
      <point x="475" y="39" type="curve" smooth="yes"/>
      <point x="476" y="45"/>
      <point x="472" y="50"/>
      <point x="466" y="50" type="curve" smooth="yes"/>
      <point x="61" y="50" type="line" smooth="yes"/>
      <point x="45" y="50"/>
      <point x="31" y="50"/>
      <point x="14" y="42" type="curve"/>
      <point x="12" y="32"/>
      <point x="10" y="26"/>
      <point x="6" y="11" type="curve" smooth="yes"/>
      <point x="4" y="5"/>
      <point x="8" y="0"/>
      <point x="14" y="0" type="curve" smooth="yes"/>
    </contour>
    <contour>
      <point x="409" y="720" type="curve" smooth="yes"/>
      <point x="302" y="720"/>
      <point x="234" y="688"/>
      <point x="186" y="650" type="curve" smooth="yes"/>
      <point x="184" y="648"/>
      <point x="182" y="646"/>
      <point x="181" y="642" type="curve" smooth="yes"/>
      <point x="175" y="617"/>
      <point x="170" y="599"/>
      <point x="168" y="589" type="curve"/>
      <point x="179" y="589" type="line"/>
      <point x="256" y="647"/>
      <point x="317" y="670"/>
      <point x="401" y="670" type="curve" smooth="yes"/>
      <point x="504" y="670"/>
      <point x="550" y="626"/>
      <point x="529" y="543" type="curve" smooth="yes"/>
      <point x="522" y="514"/>
      <point x="517" y="496"/>
      <point x="511" y="468" type="curve"/>
      <point x="546" y="469"/>
      <point x="573" y="496"/>
      <point x="585" y="544" type="curve" smooth="yes"/>
      <point x="610" y="642"/>
      <point x="548" y="720"/>
    </contour>
  </outline>
</glyph>
<glyph name="three" format="1">
  <advance width="600"/>
  <unicode hex="0033"/>
  <outline>
    <contour>
      <point x="391" y="670" type="curve" smooth="yes"/>
      <point x="502" y="670"/>
      <point x="545" y="613"/>
      <point x="527" y="540" type="curve" smooth="yes"/>
      <point x="521" y="517"/>
      <point x="515" y="492"/>
      <point x="510" y="470" type="curve"/>
      <point x="540" y="470"/>
      <point x="570" y="482"/>
      <point x="579" y="516" type="curve" smooth="yes"/>
      <point x="585" y="539" type="line" smooth="yes"/>
      <point x="607" y="621"/>
      <point x="551" y="720"/>
      <point x="396" y="720" type="curve" smooth="yes"/>
      <point x="303" y="720"/>
      <point x="231" y="691"/>
      <point x="188" y="657" type="curve" smooth="yes"/>
      <point x="186" y="655"/>
      <point x="184" y="653"/>
      <point x="183" y="649" type="curve" smooth="yes"/>
      <point x="177" y="626"/>
      <point x="174" y="611"/>
      <point x="171" y="602" type="curve"/>
      <point x="183" y="602" type="line"/>
      <point x="253" y="650"/>
      <point x="308" y="670"/>
    </contour>
    <contour>
      <point x="203" y="341" type="curve" smooth="yes"/>
      <point x="414" y="341"/>
      <point x="551" y="400"/>
      <point x="579" y="516" type="curve" smooth="yes"/>
      <point x="587" y="548"/>
      <point x="573" y="593"/>
      <point x="540" y="593" type="curve"/>
      <point x="534" y="568"/>
      <point x="529" y="547"/>
      <point x="524" y="528" type="curve" smooth="yes"/>
      <point x="503" y="444"/>
      <point x="398" y="381"/>
      <point x="201" y="381" type="curve"/>
      <point x="199" y="371"/>
      <point x="197" y="361"/>
      <point x="195" y="352" type="curve" smooth="yes"/>
      <point x="193" y="346"/>
      <point x="196" y="341"/>
    </contour>
    <contour>
      <point x="200" y="331" type="curve" smooth="yes"/>
      <point x="373" y="331"/>
      <point x="472" y="285"/>
      <point x="445" y="179" type="curve" smooth="yes"/>
      <point x="439" y="156"/>
      <point x="435" y="136"/>
      <point x="428" y="110" type="curve"/>
      <point x="456" y="110"/>
      <point x="495" y="139"/>
      <point x="505" y="176" type="curve" smooth="yes"/>
      <point x="531" y="282"/>
      <point x="460" y="371"/>
      <point x="199" y="371" type="curve"/>
      <point x="197" y="362"/>
      <point x="194" y="353"/>
      <point x="192" y="342" type="curve" smooth="yes"/>
      <point x="190" y="335"/>
      <point x="193" y="331"/>
    </contour>
    <contour>
      <point x="232" y="30" type="curve" smooth="yes"/>
      <point x="146" y="30"/>
      <point x="97" y="50"/>
      <point x="48" y="101" type="curve"/>
      <point x="36" y="101" type="line"/>
      <point x="33" y="90"/>
      <point x="30" y="81"/>
      <point x="24" y="56" type="curve" smooth="yes"/>
      <point x="23" y="52"/>
      <point x="23" y="50"/>
      <point x="25" y="47" type="curve" smooth="yes"/>
      <point x="51" y="14"/>
      <point x="121" y="-20"/>
      <point x="222" y="-20" type="curve" smooth="yes"/>
      <point x="387" y="-20"/>
      <point x="476" y="59"/>
      <point x="497" y="147" type="curve" smooth="yes"/>
      <point x="505" y="176" type="line" smooth="yes"/>
      <point x="511" y="201"/>
      <point x="487" y="237"/>
      <point x="460" y="237" type="curve"/>
      <point x="454" y="209"/>
      <point x="448" y="187"/>
      <point x="443" y="167" type="curve" smooth="yes"/>
      <point x="424" y="91"/>
      <point x="348" y="30"/>
    </contour>
  </outline>
</glyph>
<glyph name="four" format="1">
  <advance width="600"/>
  <unicode hex="0034"/>
  <outline>
    <contour>
      <point x="82" y="181" type="curve"/>
      <point x="238" y="351"/>
      <point x="396" y="523"/>
      <point x="554" y="692" type="curve"/>
      <point x="556" y="700" type="line"/>
      <point x="534" y="700"/>
      <point x="516" y="700"/>
      <point x="504" y="700" type="curve" smooth="yes"/>
      <point x="499" y="700"/>
      <point x="490" y="700"/>
      <point x="483" y="692" type="curve" smooth="yes"/>
      <point x="256" y="443"/>
      <point x="39" y="205"/>
      <point x="39" y="203" type="curve" smooth="yes"/>
      <point x="35" y="187"/>
      <point x="64" y="181"/>
    </contour>
    <contour>
      <point x="533" y="154" type="line"/>
      <point x="535" y="167"/>
      <point x="539" y="179"/>
      <point x="542" y="193" type="curve" smooth="yes"/>
      <point x="544" y="199"/>
      <point x="540" y="204"/>
      <point x="534" y="204" type="curve" smooth="yes"/>
      <point x="385" y="204" type="line"/>
      <point x="276" y="204"/>
      <point x="156" y="203"/>
      <point x="39" y="203" type="curve"/>
      <point x="29" y="165" type="line" smooth="yes"/>
      <point x="29" y="162"/>
      <point x="29" y="159"/>
      <point x="30" y="157" type="curve" smooth="yes"/>
      <point x="32" y="155"/>
      <point x="35" y="154"/>
      <point x="38" y="154" type="curve" smooth="yes"/>
    </contour>
    <contour>
      <point x="406" y="0" type="curve"/>
      <point x="413" y="33"/>
      <point x="422" y="67"/>
      <point x="431" y="100" type="curve" smooth="yes"/>
      <point x="496" y="361" type="line" smooth="yes"/>
      <point x="498" y="368"/>
      <point x="495" y="372"/>
      <point x="488" y="372" type="curve" smooth="yes"/>
      <point x="445" y="372" type="line"/>
      <point x="430" y="315"/>
      <point x="415" y="259"/>
      <point x="401" y="203" type="curve"/>
      <point x="353" y="11" type="line" smooth="yes"/>
      <point x="351" y="5"/>
      <point x="355" y="0"/>
      <point x="361" y="0" type="curve" smooth="yes"/>
      <point x="376" y="0"/>
      <point x="391" y="0"/>
    </contour>
  </outline>
</glyph>
<glyph name="six" format="1">
  <advance width="600"/>
  <unicode hex="0036"/>
  <outline>
    <contour>
      <point x="166" y="27" type="curve"/>
      <point x="159" y="-2"/>
      <point x="197" y="-20"/>
      <point x="265" y="-20" type="curve"/>
      <point x="418" y="-20"/>
      <point x="475" y="58"/>
      <point x="505" y="174" type="curve" smooth="yes"/>
      <point x="521" y="235" type="line" smooth="yes"/>
      <point x="531" y="272"/>
      <point x="512" y="299"/>
      <point x="481" y="299" type="curve"/>
      <point x="477" y="280"/>
      <point x="473" y="264"/>
      <point x="466" y="236" type="curve" smooth="yes"/>
      <point x="451" y="178" type="line" smooth="yes"/>
      <point x="427" y="81"/>
      <point x="372" y="27"/>
      <point x="264" y="27" type="curve" smooth="yes"/>
      <point x="221" y="27"/>
      <point x="188" y="27"/>
    </contour>
    <contour>
      <point x="349" y="670" type="curve"/>
      <point x="373" y="670"/>
      <point x="392" y="670"/>
      <point x="429" y="670" type="curve" smooth="yes"/>
      <point x="498" y="670"/>
      <point x="536" y="650"/>
      <point x="576" y="608" type="curve"/>
      <point x="588" y="608" type="line"/>
      <point x="590" y="618"/>
      <point x="594" y="630"/>
      <point x="599" y="652" type="curve" smooth="yes"/>
      <point x="600" y="656"/>
      <point x="599" y="658"/>
      <point x="598" y="660" type="curve" smooth="yes"/>
      <point x="576" y="689"/>
      <point x="516" y="720"/>
      <point x="435" y="720" type="curve" smooth="yes"/>
      <point x="373" y="720"/>
      <point x="355" y="697"/>
    </contour>
    <contour>
      <point x="117" y="437" type="curve" smooth="yes"/>
      <point x="80" y="290" type="line" smooth="yes"/>
      <point x="30" y="88"/>
      <point x="100" y="-20"/>
      <point x="265" y="-20" type="curve" smooth="yes"/>
      <point x="273" y="-20"/>
      <point x="272" y="-4"/>
      <point x="264" y="27" type="curve"/>
      <point x="144" y="27"/>
      <point x="90" y="104"/>
      <point x="134" y="281" type="curve" smooth="yes"/>
      <point x="171" y="428" type="line" smooth="yes"/>
      <point x="210" y="587"/>
      <point x="295" y="670"/>
      <point x="429" y="670" type="curve"/>
      <point x="452" y="707"/>
      <point x="436" y="720"/>
      <point x="435" y="720" type="curve" smooth="yes"/>
      <point x="266" y="720"/>
      <point x="164" y="624"/>
    </contour>
    <contour>
      <point x="349" y="428" type="curve" smooth="yes"/>
      <point x="271" y="428"/>
      <point x="197" y="399"/>
      <point x="154" y="365" type="curve" smooth="yes"/>
      <point x="146" y="359"/>
      <point x="136" y="339"/>
      <point x="128" y="306" type="curve"/>
      <point x="200" y="357"/>
      <point x="263" y="378"/>
      <point x="334" y="378" type="curve" smooth="yes"/>
      <point x="447" y="378"/>
      <point x="487" y="321"/>
      <point x="466" y="236" type="curve" smooth="yes"/>
      <point x="465" y="229"/>
      <point x="461" y="215"/>
      <point x="459" y="207" type="curve"/>
      <point x="503" y="212"/>
      <point x="517" y="220"/>
      <point x="521" y="235" type="curve" smooth="yes"/>
      <point x="549" y="348"/>
      <point x="483" y="428"/>
    </contour>
  </outline>
</glyph>
<glyph name="seven" format="1">
  <advance width="600"/>
  <unicode hex="0037"/>
  <outline>
    <contour>
      <point x="583" y="650" type="line" smooth="yes"/>
      <point x="600" y="650"/>
      <point x="620" y="650"/>
      <point x="638" y="651" type="curve"/>
      <point x="647" y="689" type="line"/>
      <point x="649" y="695"/>
      <point x="645" y="700"/>
      <point x="639" y="700" type="curve"/>
      <point x="187" y="700" type="line"/>
      <point x="180" y="671" type="line" smooth="yes"/>
      <point x="176" y="656"/>
      <point x="185" y="650"/>
      <point x="197" y="650" type="curve" smooth="yes"/>
    </contour>
    <contour>
      <point x="215" y="0" type="line"/>
      <point x="478" y="401"/>
      <point x="635" y="641"/>
      <point x="638" y="651" type="curve" smooth="yes"/>
      <point x="642" y="670"/>
      <point x="623" y="672"/>
      <point x="588" y="672" type="curve"/>
      <point x="348" y="306"/>
      <point x="161" y="16"/>
      <point x="160" y="11" type="curve" smooth="yes"/>
      <point x="158" y="4"/>
      <point x="161" y="0"/>
      <point x="168" y="0" type="curve" smooth="yes"/>
    </contour>
    <contour>
      <point x="193" y="499" type="curve"/>
      <point x="207" y="557"/>
      <point x="223" y="619"/>
      <point x="237" y="678" type="curve"/>
      <point x="242" y="694"/>
      <point x="229" y="700"/>
      <point x="197" y="700" type="curve" smooth="yes"/>
      <point x="187" y="700" type="line"/>
      <point x="171" y="638"/>
      <point x="155" y="573"/>
      <point x="140" y="510" type="curve"/>
      <point x="138" y="504"/>
      <point x="142" y="499"/>
      <point x="148" y="499" type="curve" smooth="yes"/>
      <point x="163" y="499"/>
      <point x="178" y="499"/>
    </contour>
  </outline>
</glyph>
<glyph name="eight" format="1">
  <advance width="600"/>
  <unicode hex="0038"/>
  <outline>
    <contour>
      <point x="376" y="349" type="curve" smooth="yes"/>
      <point x="297" y="380" type="line" smooth="yes"/>
      <point x="208" y="416"/>
      <point x="184" y="477"/>
      <point x="201" y="541" type="curve" smooth="yes"/>
      <point x="205" y="561"/>
      <point x="209" y="574"/>
      <point x="214" y="598" type="curve"/>
      <point x="187" y="598"/>
      <point x="152" y="568"/>
      <point x="144" y="537" type="curve" smooth="yes"/>
      <point x="124" y="458"/>
      <point x="161" y="386"/>
      <point x="273" y="340" type="curve" smooth="yes"/>
      <point x="353" y="308" type="line" smooth="yes"/>
      <point x="440" y="272"/>
      <point x="467" y="215"/>
      <point x="454" y="160" type="curve" smooth="yes"/>
      <point x="445" y="123"/>
      <point x="440" y="107"/>
      <point x="438" y="99" type="curve"/>
      <point x="462" y="106"/>
      <point x="505" y="144"/>
      <point x="510" y="167" type="curve"/>
      <point x="527" y="236"/>
      <point x="484" y="306"/>
    </contour>
    <contour>
      <point x="245" y="-20" type="curve" smooth="yes"/>
      <point x="391" y="-20"/>
      <point x="479" y="43"/>
      <point x="504" y="143" type="curve" smooth="yes"/>
      <point x="510" y="167" type="line" smooth="yes"/>
      <point x="514" y="189"/>
      <point x="497" y="206"/>
      <point x="467" y="209" type="curve"/>
      <point x="464" y="200"/>
      <point x="460" y="183"/>
      <point x="451" y="148" type="curve" smooth="yes"/>
      <point x="432" y="71"/>
      <point x="367" y="29"/>
      <point x="252" y="29" type="curve" smooth="yes"/>
      <point x="211" y="29"/>
      <point x="171" y="29"/>
      <point x="153" y="29" type="curve"/>
      <point x="146" y="4"/>
      <point x="202" y="-20"/>
    </contour>
    <contour>
      <point x="404" y="720" type="curve" smooth="yes"/>
      <point x="273" y="720"/>
      <point x="175" y="666"/>
      <point x="150" y="562" type="curve" smooth="yes"/>
      <point x="144" y="537" type="line" smooth="yes"/>
      <point x="136" y="502"/>
      <point x="150" y="481"/>
      <point x="186" y="481" type="curve"/>
      <point x="192" y="507"/>
      <point x="197" y="526"/>
      <point x="204" y="554" type="curve" smooth="yes"/>
      <point x="222" y="630"/>
      <point x="293" y="671"/>
      <point x="387" y="671" type="curve" smooth="yes"/>
      <point x="424" y="671"/>
      <point x="468" y="671"/>
      <point x="489" y="671" type="curve"/>
      <point x="496" y="699"/>
      <point x="454" y="720"/>
    </contour>
    <contour>
      <point x="349" y="343" type="curve" smooth="yes"/>
      <point x="439" y="343"/>
      <point x="556" y="416"/>
      <point x="580" y="502" type="curve" smooth="yes"/>
      <point x="586" y="528" type="line" smooth="yes"/>
      <point x="616" y="632"/>
      <point x="538" y="720"/>
      <point x="404" y="720" type="curve" smooth="yes"/>
      <point x="387" y="720"/>
      <point x="384" y="710"/>
      <point x="387" y="671" type="curve"/>
      <point x="503" y="671"/>
      <point x="554" y="613"/>
      <point x="529" y="522" type="curve" smooth="yes"/>
      <point x="526" y="510" type="line" smooth="yes"/>
      <point x="507" y="439"/>
      <point x="435" y="400"/>
      <point x="310" y="361" type="curve"/>
      <point x="312" y="350"/>
      <point x="327" y="343"/>
    </contour>
    <contour>
      <point x="252" y="29" type="curve"/>
      <point x="118" y="29"/>
      <point x="79" y="100"/>
      <point x="96" y="177" type="curve" smooth="yes"/>
      <point x="99" y="190" type="line" smooth="yes"/>
      <point x="117" y="266"/>
      <point x="198" y="312"/>
      <point x="313" y="331" type="curve"/>
      <point x="311" y="344"/>
      <point x="298" y="357"/>
      <point x="284" y="357" type="curve" smooth="yes"/>
      <point x="178" y="357"/>
      <point x="75" y="293"/>
      <point x="49" y="199" type="curve" smooth="yes"/>
      <point x="42" y="173" type="line" smooth="yes"/>
      <point x="15" y="75"/>
      <point x="83" y="-20"/>
      <point x="245" y="-20" type="curve" smooth="yes"/>
      <point x="246" y="-20"/>
      <point x="262" y="3"/>
    </contour>
  </outline>
</glyph>
<glyph name="nine" format="1">
  <advance width="600"/>
  <unicode hex="0039"/>
  <outline>
    <contour>
      <point x="479" y="671" type="curve"/>
      <point x="486" y="699"/>
      <point x="450" y="720"/>
      <point x="382" y="720" type="curve"/>
      <point x="238" y="720"/>
      <point x="170" y="643"/>
      <point x="140" y="526" type="curve" smooth="yes"/>
      <point x="124" y="464" type="line" smooth="yes"/>
      <point x="114" y="427"/>
      <point x="133" y="400"/>
      <point x="164" y="400" type="curve"/>
      <point x="168" y="419"/>
      <point x="173" y="436"/>
      <point x="180" y="463" type="curve" smooth="yes"/>
      <point x="194" y="522" type="line" smooth="yes"/>
      <point x="219" y="620"/>
      <point x="274" y="671"/>
      <point x="382" y="671" type="curve" smooth="yes"/>
      <point x="425" y="671"/>
      <point x="456" y="671"/>
    </contour>
    <contour>
      <point x="305" y="30" type="curve"/>
      <point x="281" y="30"/>
      <point x="262" y="30"/>
      <point x="225" y="30" type="curve" smooth="yes"/>
      <point x="156" y="30"/>
      <point x="110" y="42"/>
      <point x="67" y="82" type="curve"/>
      <point x="56" y="82" type="line"/>
      <point x="53" y="72"/>
      <point x="51" y="62"/>
      <point x="45" y="39" type="curve" smooth="yes"/>
      <point x="44" y="35"/>
      <point x="44" y="33"/>
      <point x="46" y="30" type="curve" smooth="yes"/>
      <point x="69" y="2"/>
      <point x="138" y="-20"/>
      <point x="219" y="-20" type="curve" smooth="yes"/>
      <point x="280" y="-20"/>
      <point x="298" y="1"/>
    </contour>
    <contour>
      <point x="526" y="254" type="curve" smooth="yes"/>
      <point x="564" y="405" type="line" smooth="yes"/>
      <point x="616" y="612"/>
      <point x="547" y="720"/>
      <point x="382" y="720" type="curve" smooth="yes"/>
      <point x="373" y="720"/>
      <point x="373" y="701"/>
      <point x="382" y="671" type="curve"/>
      <point x="502" y="671"/>
      <point x="557" y="596"/>
      <point x="510" y="413" type="curve" smooth="yes"/>
      <point x="472" y="261" type="line" smooth="yes"/>
      <point x="430" y="97"/>
      <point x="359" y="30"/>
      <point x="225" y="30" type="curve"/>
      <point x="205" y="-3"/>
      <point x="218" y="-20"/>
      <point x="219" y="-20" type="curve" smooth="yes"/>
      <point x="392" y="-20"/>
      <point x="479" y="66"/>
    </contour>
    <contour>
      <point x="296" y="272" type="curve" smooth="yes"/>
      <point x="374" y="272"/>
      <point x="449" y="300"/>
      <point x="491" y="334" type="curve" smooth="yes"/>
      <point x="499" y="341"/>
      <point x="509" y="361"/>
      <point x="517" y="394" type="curve"/>
      <point x="445" y="343"/>
      <point x="382" y="321"/>
      <point x="310" y="321" type="curve" smooth="yes"/>
      <point x="198" y="321"/>
      <point x="158" y="379"/>
      <point x="180" y="463" type="curve" smooth="yes"/>
      <point x="181" y="471"/>
      <point x="185" y="486"/>
      <point x="186" y="493" type="curve"/>
      <point x="144" y="488"/>
      <point x="128" y="481"/>
      <point x="124" y="464" type="curve" smooth="yes"/>
      <point x="97" y="352"/>
      <point x="161" y="272"/>
    </contour>
  </outline>
</glyph>
<glyph name="colon" format="1">
  <advance width="300"/>
  <unicode hex="003A"/>
  <outline>
    <contour>
      <point x="251" y="408" type="curve"/>
      <point x="279" y="521" type="line" smooth="yes"/>
      <point x="281" y="527"/>
      <point x="277" y="532"/>
      <point x="271" y="532" type="curve" smooth="yes"/>
      <point x="239" y="532"/>
      <point x="186" y="532"/>
      <point x="154" y="532" type="curve"/>
      <point x="126" y="419" type="line" smooth="yes"/>
      <point x="124" y="413"/>
      <point x="128" y="408"/>
      <point x="134" y="408" type="curve" smooth="yes"/>
      <point x="166" y="408"/>
      <point x="219" y="408"/>
    </contour>
    <contour>
      <point x="146" y="-5" type="curve"/>
      <point x="174" y="108" type="line" smooth="yes"/>
      <point x="176" y="114"/>
      <point x="172" y="119"/>
      <point x="166" y="119" type="curve" smooth="yes"/>
      <point x="134" y="119"/>
      <point x="81" y="119"/>
      <point x="49" y="119" type="curve"/>
      <point x="21" y="6" type="line" smooth="yes"/>
      <point x="19" y="0"/>
      <point x="23" y="-5"/>
      <point x="29" y="-5" type="curve" smooth="yes"/>
      <point x="61" y="-5"/>
      <point x="114" y="-5"/>
    </contour>
  </outline>
</glyph>
<glyph name="semicolon" format="1">
  <advance width="350"/>
  <unicode hex="003B"/>
  <outline>
    <contour>
      <point x="275" y="408" type="curve"/>
      <point x="304" y="521" type="line" smooth="yes"/>
      <point x="305" y="527"/>
      <point x="301" y="532"/>
      <point x="295" y="532" type="curve" smooth="yes"/>
      <point x="263" y="532"/>
      <point x="210" y="532"/>
      <point x="178" y="532" type="curve"/>
      <point x="150" y="419" type="line" smooth="yes"/>
      <point x="148" y="413"/>
      <point x="152" y="408"/>
      <point x="158" y="408" type="curve" smooth="yes"/>
      <point x="190" y="408"/>
      <point x="243" y="408"/>
    </contour>
    <contour>
      <point x="-6" y="-193" type="curve" smooth="yes"/>
      <point x="-1" y="-193"/>
      <point x="3" y="-192"/>
      <point x="6" y="-186" type="curve"/>
      <point x="71" y="-92"/>
      <point x="135" y="4"/>
      <point x="199" y="97" type="curve"/>
      <point x="204" y="105"/>
      <point x="202" y="110"/>
      <point x="194" y="110" type="curve" smooth="yes"/>
      <point x="157" y="110"/>
      <point x="136" y="110"/>
      <point x="93" y="110" type="curve"/>
      <point x="43" y="9"/>
      <point x="-6" y="-92"/>
      <point x="-55" y="-193" type="curve"/>
      <point x="-42" y="-193"/>
      <point x="-27" y="-193"/>
    </contour>
  </outline>
</glyph>
<glyph name="greater" format="1">
  <advance width="553"/>
  <unicode hex="003E"/>
  <outline>
    <contour>
      <point x="36" y="88" type="curve"/>
      <point x="24" y="39" type="line"/>
      <point x="23" y="35"/>
      <point x="24" y="32"/>
      <point x="28" y="32" type="curve" smooth="yes"/>
      <point x="32" y="32"/>
      <point x="36" y="33"/>
      <point x="50" y="40" type="curve" smooth="yes"/>
      <point x="97" y="62"/>
      <point x="363" y="186"/>
      <point x="519" y="259" type="curve"/>
      <point x="537" y="330" type="line"/>
      <point x="528" y="320"/>
      <point x="520" y="315"/>
      <point x="501" y="306" type="curve"/>
      <point x="346" y="233"/>
      <point x="191" y="161"/>
    </contour>
    <contour>
      <point x="159" y="580" type="curve"/>
      <point x="155" y="562"/>
      <point x="151" y="546"/>
      <point x="146" y="528" type="curve" smooth="yes"/>
      <point x="144" y="520"/>
      <point x="144" y="517"/>
      <point x="151" y="513" type="curve" smooth="yes"/>
      <point x="257" y="447"/>
      <point x="362" y="383"/>
      <point x="472" y="315" type="curve" smooth="yes"/>
      <point x="477" y="312"/>
      <point x="476" y="310"/>
      <point x="475" y="305" type="curve" smooth="yes"/>
      <point x="471" y="290"/>
      <point x="467" y="272"/>
      <point x="462" y="254" type="curve"/>
      <point x="504" y="258"/>
      <point x="529" y="300"/>
      <point x="536" y="325" type="curve" smooth="yes"/>
      <point x="538" y="335" type="line" smooth="yes"/>
      <point x="540" y="343"/>
      <point x="539" y="348"/>
      <point x="531" y="353" type="curve" smooth="yes"/>
      <point x="408" y="428"/>
      <point x="283" y="504"/>
    </contour>
  </outline>
</glyph>
<glyph name="question" format="1">
  <advance width="600"/>
  <unicode hex="003F"/>
  <outline>
    <contour>
      <point x="414" y="720" type="curve" smooth="yes"/>
      <point x="329" y="720"/>
      <point x="241" y="691"/>
      <point x="186" y="647" type="curve" smooth="yes"/>
      <point x="183" y="645"/>
      <point x="181" y="643"/>
      <point x="180" y="639" type="curve" smooth="yes"/>
      <point x="174" y="613"/>
      <point x="171" y="600"/>
      <point x="168" y="589" type="curve"/>
      <point x="180" y="589" type="line"/>
      <point x="264" y="647"/>
      <point x="327" y="667"/>
      <point x="401" y="667" type="curve" smooth="yes"/>
      <point x="510" y="667"/>
      <point x="552" y="628"/>
      <point x="534" y="555" type="curve" smooth="yes"/>
      <point x="529" y="536"/>
      <point x="524" y="519"/>
      <point x="519" y="498" type="curve"/>
      <point x="549" y="499"/>
      <point x="583" y="529"/>
      <point x="590" y="561" type="curve" smooth="yes"/>
      <point x="614" y="656"/>
      <point x="556" y="720"/>
    </contour>
    <contour>
      <point x="548" y="615" type="curve"/>
      <point x="543" y="594"/>
      <point x="536" y="566"/>
      <point x="527" y="530" type="curve" smooth="yes"/>
      <point x="517" y="487"/>
      <point x="491" y="466"/>
      <point x="424" y="427" type="curve" smooth="yes"/>
      <point x="374" y="398" type="line" smooth="yes"/>
      <point x="285" y="347"/>
      <point x="260" y="315"/>
      <point x="246" y="257" type="curve" smooth="yes"/>
      <point x="243" y="248" type="line" smooth="yes"/>
      <point x="241" y="240"/>
      <point x="244" y="237"/>
      <point x="252" y="237" type="curve" smooth="yes"/>
      <point x="296" y="237" type="line"/>
      <point x="299" y="246" type="line" smooth="yes"/>
      <point x="311" y="294"/>
      <point x="321" y="309"/>
      <point x="403" y="358" type="curve" smooth="yes"/>
      <point x="454" y="389" type="line" smooth="yes"/>
      <point x="532" y="435"/>
      <point x="567" y="466"/>
      <point x="583" y="531" type="curve" smooth="yes"/>
      <point x="590" y="561" type="line" smooth="yes"/>
      <point x="598" y="592"/>
      <point x="583" y="615"/>
    </contour>
    <contour>
      <point x="281" y="-5" type="curve"/>
      <point x="309" y="108" type="line" smooth="yes"/>
      <point x="310" y="114"/>
      <point x="307" y="119"/>
      <point x="301" y="119" type="curve" smooth="yes"/>
      <point x="269" y="119"/>
      <point x="215" y="119"/>
      <point x="183" y="119" type="curve"/>
      <point x="155" y="6" type="line" smooth="yes"/>
      <point x="154" y="0"/>
      <point x="158" y="-5"/>
      <point x="164" y="-5" type="curve" smooth="yes"/>
      <point x="195" y="-5"/>
      <point x="249" y="-5"/>
    </contour>
  </outline>
</glyph>
<glyph name="D" format="1">
  <advance width="650"/>
  <unicode hex="0044"/>
  <outline>
    <contour>
      <point x="90" y="7" type="curve"/>
      <point x="255" y="667" type="line" smooth="yes"/>
      <point x="257" y="673"/>
      <point x="253" y="678"/>
      <point x="202" y="678" type="curve"/>
      <point x="36" y="14" type="line" smooth="yes"/>
      <point x="34" y="8"/>
      <point x="39" y="7"/>
    </contour>
    <contour>
      <point x="139" y="700" type="curve"/>
      <point x="135" y="685"/>
      <point x="132" y="673"/>
      <point x="129" y="659" type="curve"/>
      <point x="128" y="656"/>
      <point x="128" y="653"/>
      <point x="130" y="651" type="curve" smooth="yes"/>
      <point x="131" y="649"/>
      <point x="134" y="648"/>
      <point x="137" y="648" type="curve" smooth="yes"/>
      <point x="149" y="648"/>
      <point x="182" y="648"/>
      <point x="200" y="648" type="curve" smooth="yes"/>
      <point x="240" y="648"/>
      <point x="364" y="648"/>
      <point x="405" y="648" type="curve"/>
      <point x="451" y="648"/>
      <point x="477" y="648"/>
      <point x="516" y="648" type="curve"/>
      <point x="524" y="679"/>
      <point x="471" y="700"/>
      <point x="413" y="700" type="curve" smooth="yes"/>
      <point x="353" y="700"/>
      <point x="216" y="700"/>
    </contour>
    <contour>
      <point x="566" y="227" type="curve" smooth="yes"/>
      <point x="619" y="434" type="line" smooth="yes"/>
      <point x="665" y="615"/>
      <point x="585" y="700"/>
      <point x="413" y="700" type="curve" smooth="yes"/>
      <point x="402" y="700"/>
      <point x="396" y="686"/>
      <point x="405" y="648" type="curve"/>
      <point x="548" y="648"/>
      <point x="600" y="588"/>
      <point x="564" y="441" type="curve" smooth="yes"/>
      <point x="515" y="241" type="line" smooth="yes"/>
      <point x="482" y="111"/>
      <point x="400" y="52"/>
      <point x="250" y="52" type="curve" smooth="yes"/>
      <point x="196" y="52"/>
      <point x="102" y="52"/>
      <point x="59" y="52" type="curve"/>
      <point x="47" y="41"/>
      <point x="41" y="35"/>
      <point x="35" y="11" type="curve" smooth="yes"/>
      <point x="34" y="5"/>
      <point x="38" y="0"/>
      <point x="44" y="0" type="curve" smooth="yes"/>
      <point x="247" y="0" type="line" smooth="yes"/>
      <point x="431" y="0"/>
      <point x="528" y="74"/>
    </contour>
    <contour>
      <point x="414" y="711" type="move" name="top"/>
    </contour>
  </outline>
</glyph>
<glyph name="E" format="1">
  <advance width="550"/>
  <unicode hex="0045"/>
  <outline>
    <contour>
      <point x="129" y="700" type="line"/>
      <point x="126" y="685"/>
      <point x="123" y="673"/>
      <point x="119" y="659" type="curve" smooth="yes"/>
      <point x="118" y="656"/>
      <point x="119" y="653"/>
      <point x="120" y="651" type="curve" smooth="yes"/>
      <point x="122" y="649"/>
      <point x="124" y="648"/>
      <point x="127" y="648" type="curve" smooth="yes"/>
      <point x="586" y="648" type="line"/>
      <point x="590" y="662"/>
      <point x="593" y="674"/>
      <point x="597" y="689" type="curve" smooth="yes"/>
      <point x="597" y="692"/>
      <point x="597" y="695"/>
      <point x="596" y="697" type="curve" smooth="yes"/>
      <point x="594" y="699"/>
      <point x="591" y="700"/>
      <point x="588" y="700" type="curve" smooth="yes"/>
    </contour>
    <contour>
      <point x="87" y="31" type="curve"/>
      <point x="248" y="677" type="line" smooth="yes"/>
      <point x="250" y="683"/>
      <point x="246" y="688"/>
      <point x="195" y="688" type="curve"/>
      <point x="34" y="42" type="line"/>
      <point x="32" y="36"/>
      <point x="36" y="31"/>
    </contour>
    <contour>
      <point x="36" y="52" type="line"/>
      <point x="26" y="11" type="line" smooth="yes"/>
      <point x="24" y="5"/>
      <point x="28" y="0"/>
      <point x="34" y="0" type="curve" smooth="yes"/>
      <point x="424" y="0" type="line"/>
      <point x="428" y="15"/>
      <point x="431" y="27"/>
      <point x="435" y="41" type="curve" smooth="yes"/>
      <point x="436" y="47"/>
      <point x="432" y="52"/>
      <point x="426" y="52" type="curve" smooth="yes"/>
    </contour>
    <contour>
      <point x="141" y="382" type="line"/>
      <point x="129" y="334"/>
      <point x="133" y="330"/>
      <point x="139" y="330" type="curve" smooth="yes"/>
      <point x="456" y="330" type="line"/>
      <point x="460" y="345"/>
      <point x="463" y="356"/>
      <point x="467" y="371" type="curve" smooth="yes"/>
      <point x="467" y="374"/>
      <point x="467" y="377"/>
      <point x="466" y="379" type="curve" smooth="yes"/>
      <point x="464" y="381"/>
      <point x="461" y="382"/>
      <point x="458" y="382" type="curve" smooth="yes"/>
    </contour>
    <contour>
      <point x="367" y="711" type="move" name="top"/>
    </contour>
    <contour>
      <point x="424" y="-1" type="move" name="ogonek"/>
    </contour>
    <contour>
      <point x="189" y="-1" type="move" name="bottom"/>
    </contour>
  </outline>
</glyph>
<glyph name="F" format="1">
  <advance width="550"/>
  <unicode hex="0046"/>
  <outline>
    <contour>
      <point x="99" y="0" type="curve"/>
      <point x="108" y="36"/>
      <point x="116" y="68"/>
      <point x="124" y="98" type="curve" smooth="yes"/>
      <point x="268" y="675" type="line"/>
      <point x="269" y="680"/>
      <point x="263" y="685"/>
      <point x="214" y="685" type="curve"/>
      <point x="46" y="11" type="line" smooth="yes"/>
      <point x="44" y="5"/>
      <point x="48" y="0"/>
      <point x="54" y="0" type="curve" smooth="yes"/>
      <point x="69" y="0"/>
      <point x="84" y="0"/>
    </contour>
    <contour>
      <point x="149" y="700" type="line"/>
      <point x="146" y="685"/>
      <point x="143" y="673"/>
      <point x="139" y="659" type="curve" smooth="yes"/>
      <point x="138" y="656"/>
      <point x="139" y="653"/>
      <point x="140" y="651" type="curve" smooth="yes"/>
      <point x="142" y="649"/>
      <point x="144" y="648"/>
      <point x="147" y="648" type="curve"/>
      <point x="586" y="648" type="line"/>
      <point x="590" y="662"/>
      <point x="593" y="674"/>
      <point x="596" y="689" type="curve" smooth="yes"/>
      <point x="597" y="692"/>
      <point x="597" y="695"/>
      <point x="595" y="697" type="curve" smooth="yes"/>
      <point x="594" y="699"/>
      <point x="591" y="700"/>
      <point x="588" y="700" type="curve"/>
    </contour>
    <contour>
      <point x="156" y="362" type="line"/>
      <point x="144" y="315"/>
      <point x="148" y="309"/>
      <point x="154" y="309" type="curve"/>
      <point x="452" y="309" type="line"/>
      <point x="456" y="324"/>
      <point x="459" y="336"/>
      <point x="463" y="351" type="curve"/>
      <point x="463" y="354"/>
      <point x="463" y="357"/>
      <point x="462" y="359" type="curve" smooth="yes"/>
      <point x="460" y="361"/>
      <point x="457" y="362"/>
      <point x="454" y="362" type="curve"/>
    </contour>
  </outline>
</glyph>
<glyph name="G" format="1">
  <advance width="650"/>
  <unicode hex="0047"/>
  <outline>
    <contour>
      <point x="451" y="668" type="curve" smooth="yes"/>
      <point x="545" y="668"/>
      <point x="598" y="648"/>
      <point x="641" y="599" type="curve"/>
      <point x="662" y="620"/>
      <point x="665" y="627"/>
      <point x="666" y="632" type="curve" smooth="yes"/>
      <point x="668" y="641"/>
      <point x="668" y="646"/>
      <point x="665" y="650" type="curve" smooth="yes"/>
      <point x="638" y="686"/>
      <point x="569" y="720"/>
      <point x="453" y="720" type="curve" smooth="yes"/>
      <point x="276" y="720"/>
      <point x="168" y="639"/>
      <point x="120" y="444" type="curve" smooth="yes"/>
      <point x="71" y="247" type="line" smooth="yes"/>
      <point x="56" y="189"/>
      <point x="62" y="132"/>
      <point x="98" y="131" type="curve"/>
      <point x="108" y="167"/>
      <point x="118" y="204"/>
      <point x="128" y="246" type="curve" smooth="yes"/>
      <point x="176" y="438" type="line" smooth="yes"/>
      <point x="218" y="604"/>
      <point x="300" y="668"/>
    </contour>
    <contour>
      <point x="294" y="32" type="curve" smooth="yes"/>
      <point x="157" y="32"/>
      <point x="94" y="114"/>
      <point x="128" y="246" type="curve"/>
      <point x="84" y="248"/>
      <point x="72" y="251"/>
      <point x="71" y="247" type="curve" smooth="yes"/>
      <point x="32" y="95"/>
      <point x="109" y="-20"/>
      <point x="292" y="-20" type="curve" smooth="yes"/>
      <point x="456" y="-20"/>
      <point x="524" y="65"/>
      <point x="530" y="86" type="curve" smooth="yes"/>
      <point x="586" y="308" type="line" smooth="yes"/>
      <point x="587" y="316"/>
      <point x="563" y="317"/>
      <point x="533" y="317" type="curve"/>
      <point x="514" y="245"/>
      <point x="496" y="174"/>
      <point x="479" y="101" type="curve" smooth="yes"/>
      <point x="476" y="90"/>
      <point x="410" y="32"/>
    </contour>
    <contour>
      <point x="360" y="343" type="line"/>
      <point x="357" y="328"/>
      <point x="354" y="317"/>
      <point x="350" y="302" type="curve" smooth="yes"/>
      <point x="349" y="299"/>
      <point x="350" y="296"/>
      <point x="351" y="294" type="curve" smooth="yes"/>
      <point x="353" y="292"/>
      <point x="355" y="291"/>
      <point x="358" y="291" type="curve"/>
      <point x="627" y="291" type="line"/>
      <point x="637" y="332" type="line" smooth="yes"/>
      <point x="639" y="338"/>
      <point x="635" y="343"/>
      <point x="629" y="343" type="curve" smooth="yes"/>
    </contour>
    <contour>
      <point x="632" y="493" type="curve"/>
      <point x="666" y="632" type="line" smooth="yes"/>
      <point x="667" y="642"/>
      <point x="660" y="655"/>
      <point x="617" y="655" type="curve"/>
      <point x="614" y="643"/>
      <point x="612" y="638"/>
      <point x="610" y="629" type="curve" smooth="yes"/>
      <point x="579" y="504" type="line" smooth="yes"/>
      <point x="578" y="497"/>
      <point x="581" y="493"/>
      <point x="588" y="493" type="curve" smooth="yes"/>
      <point x="602" y="493"/>
      <point x="617" y="493"/>
    </contour>
    <contour>
      <point x="459" y="711" type="move" name="top"/>
    </contour>
    <contour>
      <point x="281" y="-1" type="move" name="bottom"/>
    </contour>
  </outline>
</glyph>
<glyph name="H" format="1">
  <advance width="650"/>
  <unicode hex="0048"/>
  <outline>
    <contour>
      <point x="198" y="700" type="curve"/>
      <point x="190" y="667"/>
      <point x="181" y="634"/>
      <point x="173" y="601" type="curve" smooth="yes"/>
      <point x="26" y="11" type="line" smooth="yes"/>
      <point x="24" y="5"/>
      <point x="28" y="0"/>
      <point x="34" y="0" type="curve" smooth="yes"/>
      <point x="49" y="0"/>
      <point x="64" y="0"/>
      <point x="79" y="0" type="curve"/>
      <point x="251" y="689" type="line" smooth="yes"/>
      <point x="252" y="692"/>
      <point x="252" y="695"/>
      <point x="250" y="697" type="curve" smooth="yes"/>
      <point x="249" y="699"/>
      <point x="246" y="700"/>
      <point x="243" y="700" type="curve" smooth="yes"/>
      <point x="228" y="700"/>
      <point x="213" y="700"/>
    </contour>
    <contour>
      <point x="495" y="0" type="curve"/>
      <point x="503" y="33"/>
      <point x="512" y="67"/>
      <point x="520" y="101" type="curve" smooth="yes"/>
      <point x="667" y="689" type="line" smooth="yes"/>
      <point x="669" y="695"/>
      <point x="665" y="700"/>
      <point x="659" y="700" type="curve" smooth="yes"/>
      <point x="644" y="700"/>
      <point x="629" y="700"/>
      <point x="614" y="700" type="curve"/>
      <point x="442" y="11" type="line" smooth="yes"/>
      <point x="441" y="8"/>
      <point x="441" y="5"/>
      <point x="443" y="3" type="curve" smooth="yes"/>
      <point x="444" y="1"/>
      <point x="447" y="0"/>
      <point x="450" y="0" type="curve" smooth="yes"/>
      <point x="465" y="0"/>
      <point x="480" y="0"/>
    </contour>
    <contour>
      <point x="155" y="382" type="line"/>
      <point x="145" y="341" type="line" smooth="yes"/>
      <point x="144" y="338"/>
      <point x="144" y="335"/>
      <point x="146" y="333" type="curve" smooth="yes"/>
      <point x="147" y="331"/>
      <point x="150" y="330"/>
      <point x="153" y="330" type="curve"/>
      <point x="555" y="330" type="line"/>
      <point x="567" y="380"/>
      <point x="563" y="382"/>
      <point x="557" y="382" type="curve" smooth="yes"/>
    </contour>
    <contour>
      <point x="437" y="711" type="move" name="top"/>
    </contour>
  </outline>
</glyph>
<glyph name="J" format="1">
  <advance width="500"/>
  <unicode hex="004A"/>
  <outline>
    <contour>
      <point x="199" y="700" type="line"/>
      <point x="195" y="685"/>
      <point x="192" y="673"/>
      <point x="189" y="659" type="curve" smooth="yes"/>
      <point x="188" y="656"/>
      <point x="188" y="653"/>
      <point x="190" y="651" type="curve" smooth="yes"/>
      <point x="191" y="649"/>
      <point x="194" y="648"/>
      <point x="197" y="648" type="curve" smooth="yes"/>
      <point x="489" y="648" type="line"/>
      <point x="498" y="684"/>
      <point x="498" y="700"/>
      <point x="487" y="700" type="curve"/>
    </contour>
    <contour>
      <point x="419" y="221" type="curve" smooth="yes"/>
      <point x="536" y="689" type="line" smooth="yes"/>
      <point x="538" y="696"/>
      <point x="536" y="700"/>
      <point x="528" y="700" type="curve" smooth="yes"/>
      <point x="483" y="700" type="line"/>
      <point x="364" y="225" type="line" smooth="yes"/>
      <point x="353" y="175"/>
      <point x="345" y="147"/>
      <point x="337" y="115" type="curve"/>
      <point x="365" y="115"/>
      <point x="402" y="149"/>
    </contour>
    <contour>
      <point x="157" y="33" type="curve" smooth="yes"/>
      <point x="104" y="33"/>
      <point x="63" y="47"/>
      <point x="24" y="77" type="curve"/>
      <point x="13" y="77" type="line"/>
      <point x="10" y="62"/>
      <point x="6" y="50"/>
      <point x="3" y="37" type="curve"/>
      <point x="2" y="33"/>
      <point x="3" y="29"/>
      <point x="5" y="27" type="curve" smooth="yes"/>
      <point x="24" y="6"/>
      <point x="76" y="-20"/>
      <point x="154" y="-20" type="curve" smooth="yes"/>
      <point x="161" y="-20" type="line" smooth="yes"/>
      <point x="286" y="-20"/>
      <point x="377" y="49"/>
      <point x="419" y="221" type="curve"/>
      <point x="422" y="229"/>
      <point x="418" y="241"/>
      <point x="364" y="225" type="curve"/>
      <point x="332" y="96"/>
      <point x="264" y="33"/>
    </contour>
    <contour>
      <point x="367" y="711" type="move" name="top"/>
    </contour>
  </outline>
</glyph>
<glyph name="L" format="1">
  <advance width="550"/>
  <unicode hex="004C"/>
  <outline>
    <contour>
      <point x="87" y="31" type="curve"/>
      <point x="251" y="689" type="line" smooth="yes"/>
      <point x="252" y="692"/>
      <point x="252" y="695"/>
      <point x="250" y="697" type="curve" smooth="yes"/>
      <point x="249" y="699"/>
      <point x="246" y="700"/>
      <point x="243" y="700" type="curve" smooth="yes"/>
      <point x="228" y="700"/>
      <point x="213" y="700"/>
      <point x="198" y="700" type="curve"/>
      <point x="190" y="667"/>
      <point x="181" y="634"/>
      <point x="173" y="601" type="curve" smooth="yes"/>
      <point x="33" y="42" type="line" smooth="yes"/>
      <point x="32" y="36"/>
      <point x="36" y="31"/>
    </contour>
    <contour>
      <point x="36" y="52" type="line"/>
      <point x="26" y="11" type="line" smooth="yes"/>
      <point x="24" y="4"/>
      <point x="27" y="0"/>
      <point x="34" y="0" type="curve" smooth="yes"/>
      <point x="424" y="0" type="line"/>
      <point x="428" y="15"/>
      <point x="431" y="27"/>
      <point x="435" y="41" type="curve" smooth="yes"/>
      <point x="436" y="47"/>
      <point x="432" y="52"/>
      <point x="426" y="52" type="curve" smooth="yes"/>
    </contour>
    <contour>
      <point x="453" y="550" type="move" name="caronslovak"/>
    </contour>
    <contour>
      <point x="231" y="711" type="move" name="top"/>
    </contour>
    <contour>
      <point x="474" y="400" type="move" name="dot"/>
    </contour>
    <contour>
      <point x="223" y="-1" type="move" name="bottom"/>
    </contour>
  </outline>
</glyph>
<glyph name="M" format="1">
  <advance width="800"/>
  <unicode hex="004D"/>
  <outline>
    <contour>
      <point x="78" y="0" type="curve"/>
      <point x="95" y="67"/>
      <point x="112" y="134"/>
      <point x="128" y="200" type="curve" smooth="yes"/>
      <point x="169" y="363"/>
      <point x="209" y="527"/>
      <point x="249" y="689" type="curve" smooth="yes"/>
      <point x="250" y="692"/>
      <point x="250" y="695"/>
      <point x="248" y="697" type="curve" smooth="yes"/>
      <point x="247" y="699"/>
      <point x="244" y="700"/>
      <point x="241" y="700" type="curve" smooth="yes"/>
      <point x="227" y="700"/>
      <point x="213" y="700"/>
      <point x="199" y="700" type="curve"/>
      <point x="190" y="663"/>
      <point x="180" y="625"/>
      <point x="171" y="588" type="curve" smooth="yes"/>
      <point x="123" y="396"/>
      <point x="74" y="203"/>
      <point x="26" y="11" type="curve" smooth="yes"/>
      <point x="26" y="8"/>
      <point x="26" y="5"/>
      <point x="27" y="3" type="curve" smooth="yes"/>
      <point x="29" y="1"/>
      <point x="32" y="0"/>
      <point x="35" y="0" type="curve" smooth="yes"/>
      <point x="49" y="0"/>
      <point x="63" y="0"/>
    </contour>
    <contour>
      <point x="645" y="0" type="curve"/>
      <point x="654" y="37"/>
      <point x="664" y="75"/>
      <point x="673" y="112" type="curve" smooth="yes"/>
      <point x="721" y="304"/>
      <point x="769" y="497"/>
      <point x="817" y="689" type="curve"/>
      <point x="818" y="692"/>
      <point x="818" y="695"/>
      <point x="816" y="697" type="curve" smooth="yes"/>
      <point x="815" y="699"/>
      <point x="812" y="700"/>
      <point x="809" y="700" type="curve" smooth="yes"/>
      <point x="765" y="700" type="line"/>
      <point x="764" y="697"/>
      <point x="763" y="694"/>
      <point x="762" y="691" type="curve"/>
      <point x="721" y="527"/>
      <point x="680" y="364"/>
      <point x="639" y="200" type="curve" smooth="yes"/>
      <point x="623" y="137"/>
      <point x="607" y="74"/>
      <point x="591" y="11" type="curve" smooth="yes"/>
      <point x="591" y="8"/>
      <point x="591" y="5"/>
      <point x="592" y="3" type="curve" smooth="yes"/>
      <point x="594" y="1"/>
      <point x="596" y="0"/>
      <point x="600" y="0" type="curve" smooth="yes"/>
      <point x="614" y="0"/>
      <point x="630" y="0"/>
    </contour>
    <contour>
      <point x="281" y="687" type="curve" smooth="yes"/>
      <point x="279" y="696"/>
      <point x="276" y="700"/>
      <point x="268" y="700" type="curve"/>
      <point x="224" y="700" type="line"/>
      <point x="227" y="686"/>
      <point x="231" y="674"/>
      <point x="234" y="660" type="curve" smooth="yes"/>
      <point x="268" y="483"/>
      <point x="303" y="305"/>
      <point x="337" y="128" type="curve"/>
      <point x="338" y="124"/>
      <point x="342" y="121"/>
      <point x="346" y="121" type="curve" smooth="yes"/>
      <point x="355" y="121"/>
      <point x="357" y="123"/>
      <point x="383" y="167" type="curve"/>
      <point x="349" y="341"/>
      <point x="315" y="513"/>
    </contour>
    <contour>
      <point x="729" y="700" type="curve"/>
      <point x="606" y="522"/>
      <point x="483" y="345"/>
      <point x="359" y="167" type="curve"/>
      <point x="340" y="127"/>
      <point x="337" y="121"/>
      <point x="346" y="121" type="curve"/>
      <point x="386" y="121" type="line"/>
      <point x="512" y="301"/>
      <point x="639" y="481"/>
      <point x="765" y="662" type="curve" smooth="yes"/>
      <point x="787" y="694"/>
      <point x="782" y="700"/>
      <point x="778" y="700" type="curve" smooth="yes"/>
      <point x="765" y="700"/>
      <point x="743" y="700"/>
    </contour>
  </outline>
</glyph>
<glyph name="N" format="1">
  <advance width="700"/>
  <unicode hex="004E"/>
  <outline>
    <contour>
      <point x="78" y="0" type="curve"/>
      <point x="243" y="660" type="line"/>
      <point x="248" y="683"/>
      <point x="250" y="695"/>
      <point x="248" y="697" type="curve" smooth="yes"/>
      <point x="246" y="699"/>
      <point x="244" y="700"/>
      <point x="241" y="700" type="curve"/>
      <point x="229" y="700"/>
      <point x="210" y="700"/>
      <point x="198" y="700" type="curve"/>
      <point x="186" y="653"/>
      <point x="175" y="607"/>
      <point x="163" y="560" type="curve" smooth="yes"/>
      <point x="26" y="11" type="line"/>
      <point x="24" y="5"/>
      <point x="28" y="0"/>
      <point x="34" y="0" type="curve"/>
      <point x="49" y="0"/>
      <point x="63" y="0"/>
    </contour>
    <contour>
      <point x="545" y="0" type="line"/>
      <point x="717" y="689" type="line"/>
      <point x="719" y="695"/>
      <point x="715" y="700"/>
      <point x="709" y="700" type="curve"/>
      <point x="665" y="700" type="line"/>
      <point x="499" y="37" type="line"/>
      <point x="495" y="17"/>
      <point x="494" y="5"/>
      <point x="495" y="3" type="curve" smooth="yes"/>
      <point x="497" y="1"/>
      <point x="500" y="0"/>
      <point x="503" y="0" type="curve"/>
    </contour>
    <contour>
      <point x="240" y="700" type="line"/>
      <point x="223" y="684"/>
      <point x="224" y="682"/>
      <point x="224" y="666" type="curve"/>
      <point x="305" y="446"/>
      <point x="384" y="226"/>
      <point x="465" y="7" type="curve"/>
      <point x="467" y="2"/>
      <point x="470" y="0"/>
      <point x="477" y="0" type="curve" smooth="yes"/>
      <point x="500" y="0"/>
      <point x="495" y="0"/>
      <point x="523" y="0" type="curve"/>
      <point x="520" y="10"/>
      <point x="517" y="27"/>
      <point x="513" y="45" type="curve"/>
      <point x="432" y="260"/>
      <point x="353" y="475"/>
      <point x="274" y="690" type="curve"/>
      <point x="272" y="698"/>
      <point x="268" y="700"/>
      <point x="259" y="700" type="curve"/>
    </contour>
    <contour>
      <point x="462" y="711" type="move" name="top"/>
    </contour>
    <contour>
      <point x="284" y="-1" type="move" name="bottom"/>
    </contour>
  </outline>
</glyph>
<glyph name="O" format="1">
  <advance width="650"/>
  <unicode hex="004F"/>
  <outline>
    <contour>
      <point x="424" y="720" type="curve" smooth="yes"/>
      <point x="271" y="720"/>
      <point x="166" y="624"/>
      <point x="124" y="459" type="curve" smooth="yes"/>
      <point x="70" y="249" type="line" smooth="yes"/>
      <point x="26" y="77"/>
      <point x="116" y="-20"/>
      <point x="269" y="-20" type="curve" smooth="yes"/>
      <point x="270" y="-20"/>
      <point x="283" y="-10"/>
      <point x="277" y="32" type="curve"/>
      <point x="144" y="32"/>
      <point x="92" y="116"/>
      <point x="125" y="243" type="curve" smooth="yes"/>
      <point x="178" y="454" type="line" smooth="yes"/>
      <point x="208" y="573"/>
      <point x="283" y="668"/>
      <point x="416" y="668" type="curve" smooth="yes"/>
      <point x="453" y="668"/>
      <point x="498" y="668"/>
      <point x="524" y="668" type="curve"/>
      <point x="532" y="698"/>
      <point x="484" y="720"/>
    </contour>
    <contour>
      <point x="269" y="-20" type="curve" smooth="yes"/>
      <point x="424" y="-20"/>
      <point x="525" y="68"/>
      <point x="568" y="235" type="curve" smooth="yes"/>
      <point x="622" y="449" type="line" smooth="yes"/>
      <point x="667" y="623"/>
      <point x="577" y="720"/>
      <point x="424" y="720" type="curve" smooth="yes"/>
      <point x="423" y="720"/>
      <point x="410" y="710"/>
      <point x="416" y="668" type="curve"/>
      <point x="549" y="668"/>
      <point x="601" y="584"/>
      <point x="568" y="457" type="curve" smooth="yes"/>
      <point x="515" y="246" type="line" smooth="yes"/>
      <point x="485" y="127"/>
      <point x="409" y="32"/>
      <point x="277" y="32" type="curve" smooth="yes"/>
      <point x="240" y="32"/>
      <point x="195" y="32"/>
      <point x="168" y="32" type="curve"/>
      <point x="161" y="2"/>
      <point x="209" y="-20"/>
    </contour>
    <contour>
      <point x="437" y="711" type="move" name="top"/>
    </contour>
    <contour>
      <point x="362" y="-1" type="move" name="ogonek"/>
    </contour>
    <contour>
      <point x="259" y="-1" type="move" name="bottom"/>
    </contour>
  </outline>
</glyph>
<glyph name="P" format="1">
  <advance width="600"/>
  <unicode hex="0050"/>
  <outline>
    <contour>
      <point x="88" y="0" type="curve"/>
      <point x="96" y="32"/>
      <point x="104" y="65"/>
      <point x="113" y="100" type="curve" smooth="yes"/>
      <point x="255" y="667" type="line" smooth="yes"/>
      <point x="257" y="673"/>
      <point x="253" y="678"/>
      <point x="202" y="678" type="curve"/>
      <point x="36" y="11" type="line" smooth="yes"/>
      <point x="35" y="8"/>
      <point x="35" y="5"/>
      <point x="37" y="3" type="curve" smooth="yes"/>
      <point x="38" y="1"/>
      <point x="41" y="0"/>
      <point x="44" y="0" type="curve" smooth="yes"/>
      <point x="58" y="0"/>
      <point x="73" y="0"/>
    </contour>
    <contour>
      <point x="139" y="700" type="curve"/>
      <point x="136" y="686"/>
      <point x="134" y="675"/>
      <point x="130" y="661" type="curve"/>
      <point x="129" y="658"/>
      <point x="129" y="655"/>
      <point x="131" y="653" type="curve" smooth="yes"/>
      <point x="132" y="651"/>
      <point x="135" y="650"/>
      <point x="138" y="650" type="curve" smooth="yes"/>
      <point x="155" y="650"/>
      <point x="176" y="650"/>
      <point x="202" y="650" type="curve" smooth="yes"/>
      <point x="252" y="650"/>
      <point x="356" y="650"/>
      <point x="407" y="650" type="curve" smooth="yes"/>
      <point x="460" y="650"/>
      <point x="468" y="650"/>
      <point x="495" y="650" type="curve"/>
      <point x="502" y="678"/>
      <point x="487" y="700"/>
      <point x="420" y="700" type="curve" smooth="yes"/>
      <point x="346" y="700"/>
      <point x="237" y="700"/>
    </contour>
    <contour>
      <point x="580" y="441" type="curve" smooth="yes"/>
      <point x="597" y="509" type="line" smooth="yes"/>
      <point x="631" y="644"/>
      <point x="535" y="700"/>
      <point x="420" y="700" type="curve"/>
      <point x="420" y="700"/>
      <point x="399" y="687"/>
      <point x="407" y="650" type="curve"/>
      <point x="523" y="650"/>
      <point x="562" y="603"/>
      <point x="540" y="514" type="curve" smooth="yes"/>
      <point x="523" y="445" type="line" smooth="yes"/>
      <point x="501" y="356"/>
      <point x="436" y="315"/>
      <point x="328" y="315" type="curve" smooth="yes"/>
      <point x="263" y="315"/>
      <point x="209" y="315"/>
      <point x="147" y="315" type="curve"/>
      <point x="144" y="299"/>
      <point x="142" y="291"/>
      <point x="138" y="276" type="curve" smooth="yes"/>
      <point x="136" y="270"/>
      <point x="140" y="265"/>
      <point x="146" y="265" type="curve" smooth="yes"/>
      <point x="319" y="265" type="line" smooth="yes"/>
      <point x="458" y="265"/>
      <point x="550" y="320"/>
    </contour>
  </outline>
</glyph>
<glyph name="Q" format="1">
  <advance width="650"/>
  <unicode hex="0051"/>
  <outline>
    <contour>
      <point x="424" y="720" type="curve" smooth="yes"/>
      <point x="271" y="720"/>
      <point x="166" y="624"/>
      <point x="124" y="459" type="curve" smooth="yes"/>
      <point x="70" y="249" type="line" smooth="yes"/>
      <point x="26" y="77"/>
      <point x="116" y="-20"/>
      <point x="269" y="-20" type="curve" smooth="yes"/>
      <point x="270" y="-20"/>
      <point x="283" y="-10"/>
      <point x="277" y="32" type="curve"/>
      <point x="144" y="32"/>
      <point x="92" y="116"/>
      <point x="125" y="243" type="curve" smooth="yes"/>
      <point x="178" y="454" type="line" smooth="yes"/>
      <point x="208" y="573"/>
      <point x="283" y="668"/>
      <point x="416" y="668" type="curve" smooth="yes"/>
      <point x="453" y="668"/>
      <point x="498" y="668"/>
      <point x="524" y="668" type="curve"/>
      <point x="532" y="698"/>
      <point x="484" y="720"/>
    </contour>
    <contour>
      <point x="269" y="-20" type="curve" smooth="yes"/>
      <point x="424" y="-20"/>
      <point x="525" y="68"/>
      <point x="568" y="235" type="curve" smooth="yes"/>
      <point x="622" y="449" type="line" smooth="yes"/>
      <point x="667" y="623"/>
      <point x="577" y="720"/>
      <point x="424" y="720" type="curve" smooth="yes"/>
      <point x="423" y="720"/>
      <point x="410" y="710"/>
      <point x="416" y="668" type="curve"/>
      <point x="549" y="668"/>
      <point x="601" y="584"/>
      <point x="568" y="457" type="curve" smooth="yes"/>
      <point x="515" y="246" type="line" smooth="yes"/>
      <point x="485" y="127"/>
      <point x="409" y="32"/>
      <point x="277" y="32" type="curve" smooth="yes"/>
      <point x="240" y="32"/>
      <point x="195" y="32"/>
      <point x="169" y="32" type="curve"/>
      <point x="161" y="2"/>
      <point x="209" y="-20"/>
    </contour>
    <contour>
      <point x="386" y="44" type="line"/>
      <point x="341" y="21"/>
      <point x="337" y="16"/>
      <point x="341" y="8" type="curve" smooth="yes"/>
      <point x="393" y="-101" type="line" smooth="yes"/>
      <point x="410" y="-135"/>
      <point x="429" y="-151"/>
      <point x="470" y="-151" type="curve" smooth="yes"/>
      <point x="495" y="-151" type="line" smooth="yes"/>
      <point x="502" y="-151"/>
      <point x="507" y="-147"/>
      <point x="509" y="-140" type="curve" smooth="yes"/>
      <point x="513" y="-125"/>
      <point x="517" y="-110"/>
      <point x="521" y="-95" type="curve"/>
      <point x="511" y="-95" type="line"/>
      <point x="506" y="-95"/>
      <point x="496" y="-95"/>
      <point x="488" y="-95" type="curve" smooth="yes"/>
      <point x="464" y="-95"/>
      <point x="451" y="-89"/>
      <point x="440" y="-65" type="curve" smooth="yes"/>
    </contour>
  </outline>
</glyph>
<glyph name="R" format="1">
  <advance width="600"/>
  <unicode hex="0052"/>
  <outline>
    <contour>
      <point x="88" y="0" type="curve"/>
      <point x="96" y="32"/>
      <point x="104" y="65"/>
      <point x="113" y="100" type="curve" smooth="yes"/>
      <point x="255" y="667" type="line" smooth="yes"/>
      <point x="257" y="673"/>
      <point x="253" y="678"/>
      <point x="202" y="678" type="curve"/>
      <point x="36" y="11" type="line" smooth="yes"/>
      <point x="35" y="8"/>
      <point x="35" y="5"/>
      <point x="37" y="3" type="curve" smooth="yes"/>
      <point x="38" y="1"/>
      <point x="41" y="0"/>
      <point x="44" y="0" type="curve" smooth="yes"/>
      <point x="58" y="0"/>
      <point x="73" y="0"/>
    </contour>
    <contour>
      <point x="139" y="700" type="curve"/>
      <point x="136" y="686"/>
      <point x="134" y="675"/>
      <point x="130" y="661" type="curve"/>
      <point x="129" y="658"/>
      <point x="129" y="655"/>
      <point x="131" y="653" type="curve" smooth="yes"/>
      <point x="132" y="651"/>
      <point x="135" y="650"/>
      <point x="138" y="650" type="curve" smooth="yes"/>
      <point x="155" y="650"/>
      <point x="176" y="650"/>
      <point x="202" y="650" type="curve" smooth="yes"/>
      <point x="252" y="650"/>
      <point x="356" y="650"/>
      <point x="406" y="650" type="curve" smooth="yes"/>
      <point x="460" y="650"/>
      <point x="468" y="650"/>
      <point x="495" y="650" type="curve"/>
      <point x="502" y="678"/>
      <point x="487" y="700"/>
      <point x="420" y="700" type="curve" smooth="yes"/>
      <point x="345" y="700"/>
      <point x="237" y="700"/>
    </contour>
    <contour>
      <point x="565" y="456" type="curve" smooth="yes"/>
      <point x="577" y="500" type="line" smooth="yes"/>
      <point x="614" y="650"/>
      <point x="521" y="700"/>
      <point x="420" y="700" type="curve"/>
      <point x="420" y="700"/>
      <point x="399" y="687"/>
      <point x="406" y="650" type="curve"/>
      <point x="514" y="650"/>
      <point x="543" y="598"/>
      <point x="520" y="506" type="curve" smooth="yes"/>
      <point x="509" y="461" type="line" smooth="yes"/>
      <point x="486" y="372"/>
      <point x="430" y="339"/>
      <point x="334" y="339" type="curve" smooth="yes"/>
      <point x="269" y="339"/>
      <point x="215" y="339"/>
      <point x="154" y="339" type="curve"/>
      <point x="150" y="324"/>
      <point x="147" y="316"/>
      <point x="144" y="301" type="curve" smooth="yes"/>
      <point x="143" y="295"/>
      <point x="146" y="290"/>
      <point x="152" y="290" type="curve" smooth="yes"/>
      <point x="325" y="290" type="line" smooth="yes"/>
      <point x="449" y="290"/>
      <point x="536" y="340"/>
    </contour>
    <contour>
      <point x="358" y="332" type="line"/>
      <point x="305" y="317"/>
      <point x="307" y="313"/>
      <point x="309" y="305" type="curve" smooth="yes"/>
      <point x="372" y="74" type="line" smooth="yes"/>
      <point x="386" y="22"/>
      <point x="410" y="-1"/>
      <point x="455" y="-1" type="curve" smooth="yes"/>
      <point x="483" y="-1" type="line" smooth="yes"/>
      <point x="490" y="-1"/>
      <point x="495" y="3"/>
      <point x="497" y="10" type="curve" smooth="yes"/>
      <point x="500" y="25"/>
      <point x="504" y="37"/>
      <point x="507" y="52" type="curve"/>
      <point x="497" y="52" type="line"/>
      <point x="492" y="52"/>
      <point x="482" y="52"/>
      <point x="473" y="52" type="curve" smooth="yes"/>
      <point x="446" y="52"/>
      <point x="432" y="62"/>
      <point x="423" y="95" type="curve" smooth="yes"/>
    </contour>
    <contour>
      <point x="407" y="711" type="move" name="top"/>
    </contour>
    <contour>
      <point x="229" y="-1" type="move" name="bottom"/>
    </contour>
  </outline>
</glyph>
<glyph name="S" format="1">
  <advance width="600"/>
  <unicode hex="0053"/>
  <outline>
    <contour>
      <point x="422" y="716" type="curve" smooth="yes"/>
      <point x="282" y="716"/>
      <point x="193" y="665"/>
      <point x="166" y="560" type="curve" smooth="yes"/>
      <point x="157" y="522" type="line" smooth="yes"/>
      <point x="152" y="499"/>
      <point x="167" y="473"/>
      <point x="196" y="463" type="curve"/>
      <point x="200" y="481"/>
      <point x="213" y="533"/>
      <point x="218" y="553" type="curve" smooth="yes"/>
      <point x="238" y="630"/>
      <point x="305" y="666"/>
      <point x="410" y="666" type="curve" smooth="yes"/>
      <point x="492" y="666"/>
      <point x="555" y="647"/>
      <point x="580" y="610" type="curve"/>
      <point x="608" y="630"/>
      <point x="611" y="635"/>
      <point x="612" y="639" type="curve" smooth="yes"/>
      <point x="614" y="649"/>
      <point x="613" y="652"/>
      <point x="608" y="658" type="curve" smooth="yes"/>
      <point x="582" y="691"/>
      <point x="509" y="716"/>
    </contour>
    <contour>
      <point x="395" y="362" type="curve" smooth="yes"/>
      <point x="305" y="390" type="line" smooth="yes"/>
      <point x="212" y="419"/>
      <point x="195" y="457"/>
      <point x="211" y="522" type="curve" smooth="yes"/>
      <point x="218" y="551"/>
      <point x="221" y="566"/>
      <point x="233" y="613" type="curve"/>
      <point x="192" y="600"/>
      <point x="172" y="582"/>
      <point x="157" y="522" type="curve" smooth="yes"/>
      <point x="137" y="446"/>
      <point x="165" y="383"/>
      <point x="281" y="346" type="curve" smooth="yes"/>
      <point x="371" y="317" type="line" smooth="yes"/>
      <point x="454" y="290"/>
      <point x="472" y="260"/>
      <point x="453" y="180" type="curve" smooth="yes"/>
      <point x="448" y="159"/>
      <point x="438" y="120"/>
      <point x="432" y="98" type="curve"/>
      <point x="455" y="98"/>
      <point x="501" y="149"/>
      <point x="509" y="182" type="curve"/>
      <point x="530" y="266"/>
      <point x="500" y="329"/>
    </contour>
    <contour>
      <point x="246" y="-16" type="curve" smooth="yes"/>
      <point x="390" y="-16"/>
      <point x="472" y="32"/>
      <point x="496" y="129" type="curve" smooth="yes"/>
      <point x="509" y="181" type="line" smooth="yes"/>
      <point x="513" y="196"/>
      <point x="494" y="218"/>
      <point x="464" y="218" type="curve"/>
      <point x="458" y="197"/>
      <point x="447" y="158"/>
      <point x="441" y="133" type="curve" smooth="yes"/>
      <point x="425" y="68"/>
      <point x="359" y="34"/>
      <point x="258" y="34" type="curve" smooth="yes"/>
      <point x="157" y="34"/>
      <point x="104" y="56"/>
      <point x="52" y="112" type="curve"/>
      <point x="40" y="112" type="line"/>
      <point x="37" y="101"/>
      <point x="34" y="91"/>
      <point x="28" y="70" type="curve" smooth="yes"/>
      <point x="27" y="66"/>
      <point x="27" y="63"/>
      <point x="29" y="59" type="curve" smooth="yes"/>
      <point x="59" y="19"/>
      <point x="134" y="-16"/>
    </contour>
    <contour>
      <point x="583" y="521" type="curve"/>
      <point x="612" y="639" type="line" smooth="yes"/>
      <point x="615" y="650"/>
      <point x="613" y="661"/>
      <point x="562" y="661" type="curve"/>
      <point x="561" y="657"/>
      <point x="561" y="654"/>
      <point x="559" y="650" type="curve" smooth="yes"/>
      <point x="530" y="532" type="line" smooth="yes"/>
      <point x="529" y="528"/>
      <point x="529" y="525"/>
      <point x="531" y="523" type="curve" smooth="yes"/>
      <point x="533" y="521"/>
      <point x="536" y="521"/>
      <point x="539" y="521" type="curve" smooth="yes"/>
      <point x="553" y="521"/>
      <point x="568" y="521"/>
    </contour>
    <contour>
      <point x="414" y="711" type="move" name="top"/>
    </contour>
    <contour>
      <point x="235" y="-1" type="move" name="bottom"/>
    </contour>
  </outline>
</glyph>
<glyph name="T" format="1">
  <advance width="600"/>
  <unicode hex="0054"/>
  <outline>
    <contour>
      <point x="168" y="700" type="line"/>
      <point x="165" y="686"/>
      <point x="162" y="675"/>
      <point x="159" y="661" type="curve" smooth="yes"/>
      <point x="158" y="658"/>
      <point x="158" y="655"/>
      <point x="160" y="653" type="curve" smooth="yes"/>
      <point x="161" y="651"/>
      <point x="164" y="650"/>
      <point x="167" y="650" type="curve" smooth="yes"/>
      <point x="637" y="650" type="line"/>
      <point x="641" y="664"/>
      <point x="643" y="675"/>
      <point x="646" y="689" type="curve" smooth="yes"/>
      <point x="648" y="695"/>
      <point x="644" y="700"/>
      <point x="638" y="700" type="curve" smooth="yes"/>
    </contour>
    <contour>
      <point x="262" y="0" type="curve"/>
      <point x="270" y="32"/>
      <point x="278" y="65"/>
      <point x="287" y="100" type="curve" smooth="yes"/>
      <point x="429" y="667" type="line" smooth="yes"/>
      <point x="430" y="673"/>
      <point x="427" y="678"/>
      <point x="375" y="678" type="curve"/>
      <point x="209" y="11" type="line" smooth="yes"/>
      <point x="208" y="7"/>
      <point x="208" y="4"/>
      <point x="210" y="2" type="curve" smooth="yes"/>
      <point x="212" y="0"/>
      <point x="214" y="0"/>
      <point x="217" y="0" type="curve" smooth="yes"/>
      <point x="232" y="0"/>
      <point x="247" y="0"/>
    </contour>
    <contour>
      <point x="412" y="711" type="move" name="top"/>
    </contour>
    <contour>
      <point x="234" y="-1" type="move" name="bottom"/>
    </contour>
  </outline>
</glyph>
<glyph name="U" format="1">
  <advance width="650"/>
  <unicode hex="0055"/>
  <outline>
    <contour>
      <point x="193" y="700" type="curve"/>
      <point x="185" y="667"/>
      <point x="176" y="633"/>
      <point x="168" y="599" type="curve" smooth="yes"/>
      <point x="63" y="180" type="line"/>
      <point x="59" y="166"/>
      <point x="56" y="114"/>
      <point x="101" y="108" type="curve"/>
      <point x="111" y="148"/>
      <point x="113" y="155"/>
      <point x="123" y="193" type="curve"/>
      <point x="246" y="689" type="line"/>
      <point x="248" y="695"/>
      <point x="244" y="700"/>
      <point x="238" y="700" type="curve"/>
      <point x="223" y="700"/>
      <point x="208" y="700"/>
    </contour>
    <contour>
      <point x="220" y="-19" type="curve" smooth="yes"/>
      <point x="330" y="-19"/>
      <point x="410" y="37"/>
      <point x="477" y="120" type="curve" smooth="yes"/>
      <point x="500" y="150"/>
      <point x="519" y="181"/>
      <point x="505" y="214" type="curve"/>
      <point x="401" y="86"/>
      <point x="320" y="33"/>
      <point x="225" y="33" type="curve" smooth="yes"/>
      <point x="136" y="33"/>
      <point x="97" y="90"/>
      <point x="123" y="193" type="curve"/>
      <point x="77" y="191"/>
      <point x="64" y="185"/>
      <point x="63" y="180" type="curve" smooth="yes"/>
      <point x="35" y="66"/>
      <point x="92" y="-19"/>
    </contour>
    <contour>
      <point x="495" y="0" type="curve"/>
      <point x="503" y="33"/>
      <point x="512" y="67"/>
      <point x="520" y="101" type="curve" smooth="yes"/>
      <point x="667" y="689" type="line" smooth="yes"/>
      <point x="669" y="695"/>
      <point x="665" y="700"/>
      <point x="659" y="700" type="curve" smooth="yes"/>
      <point x="644" y="700"/>
      <point x="629" y="700"/>
      <point x="614" y="700" type="curve"/>
      <point x="442" y="11" type="line" smooth="yes"/>
      <point x="441" y="8"/>
      <point x="441" y="5"/>
      <point x="443" y="3" type="curve" smooth="yes"/>
      <point x="444" y="1"/>
      <point x="447" y="0"/>
      <point x="450" y="0" type="curve" smooth="yes"/>
      <point x="465" y="0"/>
      <point x="480" y="0"/>
    </contour>
    <contour>
      <point x="434" y="711" type="move" name="top"/>
    </contour>
    <contour>
      <point x="495" y="-1" type="move" name="ogonek"/>
    </contour>
    <contour>
      <point x="434" y="711" type="move" name="ring"/>
    </contour>
    <contour>
      <point x="256" y="-1" type="move" name="bottom"/>
    </contour>
  </outline>
</glyph>
<glyph name="V" format="1">
  <advance width="650"/>
  <unicode hex="0056"/>
  <outline>
    <contour>
      <point x="192" y="700" type="curve"/>
      <point x="143" y="700" type="line"/>
      <point x="163" y="467"/>
      <point x="183" y="234"/>
      <point x="203" y="2" type="curve"/>
      <point x="204" y="-6"/>
      <point x="208" y="-9"/>
      <point x="214" y="-9" type="curve"/>
      <point x="234" y="-9"/>
      <point x="259" y="-6"/>
      <point x="291" y="41" type="curve"/>
      <point x="279" y="41"/>
      <point x="271" y="41"/>
      <point x="264" y="41" type="curve" smooth="yes"/>
      <point x="256" y="41"/>
      <point x="255" y="42"/>
      <point x="253" y="54" type="curve"/>
      <point x="236" y="267"/>
      <point x="217" y="480"/>
      <point x="199" y="693" type="curve"/>
      <point x="199" y="699"/>
      <point x="196" y="700"/>
    </contour>
    <contour>
      <point x="715" y="700" type="curve"/>
      <point x="662" y="700" type="line"/>
      <point x="532" y="477"/>
      <point x="402" y="255"/>
      <point x="272" y="32" type="curve"/>
      <point x="256" y="5"/>
      <point x="231" y="-4"/>
      <point x="214" y="-9" type="curve"/>
      <point x="309" y="-9" type="line"/>
      <point x="446" y="223"/>
      <point x="581" y="456"/>
      <point x="718" y="689" type="curve"/>
      <point x="722" y="696"/>
      <point x="721" y="700"/>
    </contour>
  </outline>
</glyph>
<glyph name="W" format="1">
  <advance width="900"/>
  <unicode hex="0057"/>
  <outline>
    <contour>
      <point x="152" y="700" type="curve"/>
      <point x="152" y="470"/>
      <point x="151" y="239"/>
      <point x="150" y="11" type="curve"/>
      <point x="150" y="3"/>
      <point x="155" y="0"/>
      <point x="161" y="0" type="curve"/>
      <point x="179" y="0" type="line" smooth="yes"/>
      <point x="190" y="0"/>
      <point x="203" y="11"/>
      <point x="205" y="26" type="curve"/>
      <point x="207" y="246"/>
      <point x="209" y="469"/>
      <point x="211" y="690" type="curve"/>
      <point x="211" y="695"/>
      <point x="210" y="697"/>
      <point x="210" y="698" type="curve" smooth="yes"/>
      <point x="209" y="699"/>
      <point x="207" y="700"/>
      <point x="204" y="700" type="curve"/>
      <point x="186" y="700"/>
      <point x="170" y="700"/>
    </contour>
    <contour>
      <point x="902" y="700" type="curve"/>
      <point x="792" y="477"/>
      <point x="682" y="253"/>
      <point x="572" y="30" type="curve"/>
      <point x="564" y="12"/>
      <point x="556" y="5"/>
      <point x="546" y="0" type="curve"/>
      <point x="618" y="0" type="line"/>
      <point x="732" y="229"/>
      <point x="846" y="459"/>
      <point x="960" y="688" type="curve" smooth="yes"/>
      <point x="962" y="693"/>
      <point x="963" y="696"/>
      <point x="961" y="698" type="curve" smooth="yes"/>
      <point x="961" y="699"/>
      <point x="959" y="700"/>
      <point x="955" y="700" type="curve"/>
      <point x="938" y="700"/>
      <point x="919" y="700"/>
    </contour>
    <contour>
      <point x="545" y="601" type="curve"/>
      <point x="502" y="601" type="line"/>
      <point x="398" y="411"/>
      <point x="295" y="220"/>
      <point x="192" y="30" type="curve"/>
      <point x="182" y="11"/>
      <point x="174" y="8"/>
      <point x="161" y="0" type="curve"/>
      <point x="232" y="0" type="line"/>
      <point x="338" y="193"/>
      <point x="443" y="388"/>
      <point x="549" y="581" type="curve" smooth="yes"/>
      <point x="557" y="596"/>
      <point x="554" y="601"/>
    </contour>
    <contour>
      <point x="560" y="601" type="curve"/>
      <point x="513" y="601" type="line"/>
      <point x="521" y="405"/>
      <point x="527" y="208"/>
      <point x="534" y="11" type="curve" smooth="yes"/>
      <point x="534" y="3"/>
      <point x="540" y="0"/>
      <point x="545" y="0" type="curve"/>
      <point x="564" y="0" type="line"/>
      <point x="573" y="0"/>
      <point x="587" y="10"/>
      <point x="587" y="26" type="curve"/>
      <point x="580" y="214"/>
      <point x="574" y="403"/>
      <point x="567" y="591" type="curve" smooth="yes"/>
      <point x="566" y="600"/>
      <point x="564" y="601"/>
    </contour>
    <contour>
      <point x="560" y="711" type="move" name="top"/>
    </contour>
  </outline>
</glyph>
<glyph name="X" format="1">
  <advance width="650"/>
  <unicode hex="0058"/>
  <outline>
    <contour>
      <point x="502" y="0" type="curve" smooth="yes"/>
      <point x="521" y="0"/>
      <point x="534" y="0"/>
      <point x="552" y="0" type="curve"/>
      <point x="493" y="121"/>
      <point x="436" y="241"/>
      <point x="375" y="364" type="curve" smooth="yes"/>
      <point x="372" y="372"/>
      <point x="364" y="377"/>
      <point x="361" y="385" type="curve" smooth="yes"/>
      <point x="311" y="487"/>
      <point x="262" y="590"/>
      <point x="212" y="692" type="curve" smooth="yes"/>
      <point x="209" y="699"/>
      <point x="205" y="700"/>
      <point x="196" y="700" type="curve" smooth="yes"/>
      <point x="145" y="700" type="line"/>
      <point x="202" y="582"/>
      <point x="257" y="468"/>
      <point x="313" y="350" type="curve" smooth="yes"/>
      <point x="317" y="342"/>
      <point x="324" y="336"/>
      <point x="328" y="328" type="curve" smooth="yes"/>
      <point x="380" y="222"/>
      <point x="434" y="113"/>
      <point x="486" y="8" type="curve" smooth="yes"/>
      <point x="489" y="1"/>
      <point x="494" y="0"/>
    </contour>
    <contour>
      <point x="706" y="700" type="curve" smooth="yes"/>
      <point x="651" y="700" type="line"/>
      <point x="542" y="588"/>
      <point x="434" y="478"/>
      <point x="326" y="366" type="curve"/>
      <point x="308" y="347"/>
      <point x="330" y="331"/>
      <point x="362" y="329" type="curve"/>
      <point x="477" y="446"/>
      <point x="592" y="564"/>
      <point x="711" y="686" type="curve"/>
      <point x="716" y="692"/>
      <point x="716" y="695"/>
      <point x="714" y="697" type="curve" smooth="yes"/>
      <point x="713" y="699"/>
      <point x="710" y="700"/>
    </contour>
    <contour>
      <point x="-29" y="0" type="curve"/>
      <point x="26" y="0" type="line"/>
      <point x="134" y="112"/>
      <point x="242" y="222"/>
      <point x="350" y="334" type="curve"/>
      <point x="368" y="353"/>
      <point x="347" y="369"/>
      <point x="315" y="371" type="curve"/>
      <point x="199" y="254"/>
      <point x="82" y="134"/>
      <point x="-33" y="16" type="curve" smooth="yes"/>
      <point x="-38" y="10"/>
      <point x="-39" y="6"/>
      <point x="-37" y="3" type="curve" smooth="yes"/>
      <point x="-36" y="1"/>
      <point x="-33" y="0"/>
    </contour>
  </outline>
</glyph>
<glyph name="Y" format="1">
  <advance width="600"/>
  <unicode hex="0059"/>
  <outline>
    <contour>
      <point x="148" y="700" type="line"/>
      <point x="192" y="559"/>
      <point x="237" y="411"/>
      <point x="280" y="270" type="curve"/>
      <point x="283" y="267"/>
      <point x="289" y="266"/>
      <point x="295" y="266" type="curve"/>
      <point x="308" y="266"/>
      <point x="315" y="295"/>
      <point x="321" y="321" type="curve"/>
      <point x="283" y="442"/>
      <point x="246" y="568"/>
      <point x="209" y="690" type="curve"/>
      <point x="207" y="696"/>
      <point x="205" y="700"/>
      <point x="194" y="700" type="curve" smooth="yes"/>
    </contour>
    <contour>
      <point x="603" y="700" type="line"/>
      <point x="501" y="573"/>
      <point x="400" y="445"/>
      <point x="298" y="318" type="curve"/>
      <point x="281" y="296"/>
      <point x="292" y="267"/>
      <point x="295" y="266" type="curve"/>
      <point x="318" y="266" type="line"/>
      <point x="429" y="403"/>
      <point x="549" y="550"/>
      <point x="661" y="687" type="curve"/>
      <point x="666" y="694"/>
      <point x="662" y="700"/>
      <point x="658" y="700" type="curve"/>
    </contour>
    <contour>
      <point x="258" y="0" type="curve"/>
      <point x="266" y="32"/>
      <point x="274" y="65"/>
      <point x="283" y="100" type="curve" smooth="yes"/>
      <point x="335" y="308" type="line" smooth="yes"/>
      <point x="337" y="314"/>
      <point x="333" y="319"/>
      <point x="282" y="319" type="curve"/>
      <point x="205" y="11" type="line" smooth="yes"/>
      <point x="204" y="8"/>
      <point x="204" y="5"/>
      <point x="206" y="3" type="curve" smooth="yes"/>
      <point x="207" y="1"/>
      <point x="210" y="0"/>
      <point x="213" y="0" type="curve" smooth="yes"/>
      <point x="228" y="0"/>
      <point x="243" y="0"/>
    </contour>
    <contour>
      <point x="412" y="711" type="move" name="top"/>
    </contour>
  </outline>
</glyph>
<glyph name="Z" format="1">
  <advance width="600"/>
  <unicode hex="005A"/>
  <outline>
    <contour>
      <point x="199" y="700" type="line"/>
      <point x="196" y="686"/>
      <point x="194" y="675"/>
      <point x="190" y="661" type="curve" smooth="yes"/>
      <point x="189" y="658"/>
      <point x="189" y="655"/>
      <point x="191" y="653" type="curve" smooth="yes"/>
      <point x="192" y="651"/>
      <point x="195" y="650"/>
      <point x="198" y="650" type="curve" smooth="yes"/>
      <point x="570" y="650" type="line" smooth="yes"/>
      <point x="581" y="650"/>
      <point x="604" y="650"/>
      <point x="622" y="651" type="curve" smooth="yes"/>
      <point x="629" y="651"/>
      <point x="635" y="651"/>
      <point x="637" y="651" type="curve"/>
      <point x="646" y="689" type="line" smooth="yes"/>
      <point x="648" y="695"/>
      <point x="644" y="700"/>
      <point x="638" y="700" type="curve" smooth="yes"/>
    </contour>
    <contour>
      <point x="593" y="679" type="curve"/>
      <point x="399" y="473"/>
      <point x="200" y="257"/>
      <point x="5" y="49" type="curve"/>
      <point x="44" y="28"/>
      <point x="54" y="27"/>
      <point x="61" y="33" type="curve" smooth="yes"/>
      <point x="297" y="283"/>
      <point x="637" y="650"/>
      <point x="637" y="651" type="curve"/>
      <point x="614" y="683"/>
      <point x="600" y="686"/>
    </contour>
    <contour>
      <point x="475" y="0" type="line"/>
      <point x="478" y="14"/>
      <point x="481" y="23"/>
      <point x="485" y="39" type="curve" smooth="yes"/>
      <point x="486" y="42"/>
      <point x="486" y="46"/>
      <point x="484" y="48" type="curve" smooth="yes"/>
      <point x="482" y="50"/>
      <point x="479" y="50"/>
      <point x="476" y="50" type="curve" smooth="yes"/>
      <point x="74" y="50" type="line" smooth="yes"/>
      <point x="53" y="50"/>
      <point x="29" y="50"/>
      <point x="5" y="49" type="curve"/>
      <point x="-4" y="11" type="line" smooth="yes"/>
      <point x="-6" y="5"/>
      <point x="-2" y="0"/>
      <point x="4" y="0" type="curve" smooth="yes"/>
    </contour>
    <contour>
      <point x="205" y="548" type="curve"/>
      <point x="215" y="589"/>
      <point x="226" y="631"/>
      <point x="236" y="672" type="curve"/>
      <point x="241" y="693"/>
      <point x="233" y="700"/>
      <point x="214" y="700" type="curve" smooth="yes"/>
      <point x="187" y="700" type="line"/>
      <point x="175" y="653"/>
      <point x="164" y="606"/>
      <point x="152" y="559" type="curve"/>
      <point x="151" y="553"/>
      <point x="155" y="548"/>
      <point x="161" y="548" type="curve" smooth="yes"/>
      <point x="175" y="548"/>
      <point x="190" y="548"/>
    </contour>
    <contour>
      <point x="412" y="711" type="move" name="top"/>
    </contour>
  </outline>
</glyph>
<glyph name="bracketleft" format="1">
  <advance width="400"/>
  <unicode hex="005B"/>
  <outline>
    <contour>
      <point x="160" y="652" type="curve" smooth="yes"/>
      <point x="-29" y="-105" type="line" smooth="yes"/>
      <point x="-32" y="-115"/>
      <point x="-19" y="-116"/>
      <point x="24" y="-116" type="curve"/>
      <point x="240" y="748" type="line" smooth="yes"/>
      <point x="242" y="754"/>
      <point x="235" y="759"/>
      <point x="209" y="759" type="curve" smooth="yes"/>
      <point x="200" y="759"/>
      <point x="195" y="759"/>
      <point x="187" y="759" type="curve"/>
      <point x="178" y="723"/>
      <point x="169" y="688"/>
    </contour>
    <contour>
      <point x="489" y="704" type="line"/>
      <point x="493" y="719"/>
      <point x="496" y="734"/>
      <point x="500" y="748" type="curve" smooth="yes"/>
      <point x="501" y="751"/>
      <point x="500" y="754"/>
      <point x="498" y="756" type="curve" smooth="yes"/>
      <point x="497" y="758"/>
      <point x="495" y="759"/>
      <point x="491" y="759" type="curve" smooth="yes"/>
      <point x="209" y="759" type="line"/>
      <point x="197" y="710"/>
      <point x="201" y="704"/>
      <point x="205" y="704" type="curve"/>
    </contour>
    <contour>
      <point x="273" y="-159" type="line"/>
      <point x="277" y="-144"/>
      <point x="280" y="-131"/>
      <point x="284" y="-115" type="curve" smooth="yes"/>
      <point x="286" y="-109"/>
      <point x="281" y="-104"/>
      <point x="275" y="-104" type="curve" smooth="yes"/>
      <point x="-29" y="-104" type="line"/>
      <point x="-40" y="-148" type="line" smooth="yes"/>
      <point x="-42" y="-154"/>
      <point x="-37" y="-159"/>
      <point x="-31" y="-159" type="curve" smooth="yes"/>
    </contour>
  </outline>
</glyph>
<glyph name="backslash" format="1">
  <advance width="600"/>
  <unicode hex="005C"/>
  <outline>
    <contour>
      <point x="214" y="750" type="curve"/>
      <point x="258" y="461"/>
      <point x="302" y="170"/>
      <point x="347" y="-119" type="curve" smooth="yes"/>
      <point x="348" y="-127"/>
      <point x="353" y="-130"/>
      <point x="359" y="-130" type="curve" smooth="yes"/>
      <point x="378" y="-130"/>
      <point x="389" y="-130"/>
      <point x="408" y="-130" type="curve"/>
      <point x="402" y="-94"/>
      <point x="397" y="-57"/>
      <point x="392" y="-21" type="curve"/>
      <point x="353" y="233"/>
      <point x="314" y="489"/>
      <point x="275" y="743" type="curve"/>
      <point x="274" y="748"/>
      <point x="270" y="750"/>
      <point x="264" y="750" type="curve" smooth="yes"/>
      <point x="246" y="750"/>
      <point x="233" y="750"/>
    </contour>
  </outline>
</glyph>
<glyph name="bracketright" format="1">
  <advance width="400"/>
  <unicode hex="005D"/>
  <outline>
    <contour>
      <point x="258" y="-51" type="curve" smooth="yes"/>
      <point x="448" y="706" type="line" smooth="yes"/>
      <point x="450" y="716"/>
      <point x="437" y="717"/>
      <point x="395" y="717" type="curve"/>
      <point x="178" y="-147" type="line" smooth="yes"/>
      <point x="177" y="-153"/>
      <point x="184" y="-158"/>
      <point x="210" y="-158" type="curve" smooth="yes"/>
      <point x="218" y="-158"/>
      <point x="223" y="-158"/>
      <point x="232" y="-158" type="curve"/>
      <point x="241" y="-122"/>
      <point x="249" y="-87"/>
    </contour>
    <contour>
      <point x="-70" y="-103" type="line"/>
      <point x="-74" y="-118"/>
      <point x="-78" y="-133"/>
      <point x="-81" y="-147" type="curve" smooth="yes"/>
      <point x="-82" y="-150"/>
      <point x="-81" y="-153"/>
      <point x="-80" y="-155" type="curve" smooth="yes"/>
      <point x="-78" y="-157"/>
      <point x="-76" y="-158"/>
      <point x="-72" y="-158" type="curve" smooth="yes"/>
      <point x="210" y="-158" type="line"/>
      <point x="222" y="-109"/>
      <point x="217" y="-103"/>
      <point x="213" y="-103" type="curve"/>
    </contour>
    <contour>
      <point x="146" y="760" type="line"/>
      <point x="142" y="745"/>
      <point x="138" y="732"/>
      <point x="135" y="716" type="curve" smooth="yes"/>
      <point x="133" y="710"/>
      <point x="138" y="705"/>
      <point x="144" y="705" type="curve" smooth="yes"/>
      <point x="448" y="705" type="line"/>
      <point x="459" y="749" type="line" smooth="yes"/>
      <point x="460" y="755"/>
      <point x="456" y="760"/>
      <point x="450" y="760" type="curve" smooth="yes"/>
    </contour>
  </outline>
</glyph>
<glyph name="grave" format="1">
  <advance width="364"/>
  <unicode hex="0060"/>
  <outline>
    <contour>
      <point x="311" y="417" type="curve"/>
      <point x="312" y="518"/>
      <point x="313" y="619"/>
      <point x="314" y="720" type="curve"/>
      <point x="271" y="720"/>
      <point x="250" y="720"/>
      <point x="213" y="720" type="curve" smooth="yes"/>
      <point x="205" y="720"/>
      <point x="201" y="715"/>
      <point x="202" y="707" type="curve" smooth="yes"/>
      <point x="219" y="614"/>
      <point x="236" y="518"/>
      <point x="253" y="425" type="curve" smooth="yes"/>
      <point x="254" y="418"/>
      <point x="257" y="417"/>
      <point x="262" y="417" type="curve" smooth="yes"/>
      <point x="284" y="417"/>
      <point x="297" y="417"/>
    </contour>
  </outline>
</glyph>
<glyph name="b" format="1">
  <advance width="600"/>
  <unicode hex="0062"/>
  <outline>
    <contour>
      <point x="42" y="0" type="line"/>
      <point x="53" y="0"/>
      <point x="64" y="0"/>
      <point x="76" y="0" type="curve" smooth="yes"/>
      <point x="87" y="0"/>
      <point x="112" y="55"/>
      <point x="121" y="88" type="curve" smooth="yes"/>
      <point x="285" y="739" type="line"/>
      <point x="287" y="745"/>
      <point x="283" y="750"/>
      <point x="277" y="750" type="curve" smooth="yes"/>
      <point x="262" y="750"/>
      <point x="247" y="750"/>
      <point x="233" y="750" type="curve"/>
      <point x="224" y="717"/>
      <point x="215" y="682"/>
      <point x="206" y="646" type="curve" smooth="yes"/>
    </contour>
    <contour>
      <point x="404" y="537" type="curve" smooth="yes"/>
      <point x="330" y="537"/>
      <point x="269" y="504"/>
      <point x="210" y="453" type="curve" smooth="yes"/>
      <point x="185" y="431"/>
      <point x="173" y="402"/>
      <point x="171" y="366" type="curve"/>
      <point x="267" y="455"/>
      <point x="328" y="486"/>
      <point x="400" y="486" type="curve" smooth="yes"/>
      <point x="481" y="486"/>
      <point x="514" y="434"/>
      <point x="485" y="319" type="curve"/>
      <point x="520" y="303"/>
      <point x="539" y="316"/>
      <point x="542" y="326" type="curve" smooth="yes"/>
      <point x="575" y="447"/>
      <point x="524" y="537"/>
    </contour>
    <contour>
      <point x="288" y="-10" type="curve" smooth="yes"/>
      <point x="395" y="-10"/>
      <point x="474" y="41"/>
      <point x="513" y="206" type="curve" smooth="yes"/>
      <point x="542" y="326" type="line" smooth="yes"/>
      <point x="554" y="374"/>
      <point x="543" y="461"/>
      <point x="517" y="461" type="curve"/>
      <point x="506" y="461"/>
      <point x="499" y="459"/>
      <point x="496" y="454" type="curve"/>
      <point x="506" y="414"/>
      <point x="502" y="386"/>
      <point x="485" y="319" type="curve" smooth="yes"/>
      <point x="462" y="222" type="line" smooth="yes"/>
      <point x="428" y="83"/>
      <point x="370" y="40"/>
      <point x="289" y="40" type="curve" smooth="yes"/>
      <point x="211" y="40"/>
      <point x="162" y="71"/>
      <point x="127" y="152" type="curve"/>
      <point x="121" y="151"/>
      <point x="101" y="116"/>
      <point x="107" y="102" type="curve" smooth="yes"/>
      <point x="131" y="40"/>
      <point x="185" y="-10"/>
    </contour>
  </outline>
</glyph>
<glyph name="c" format="1">
  <advance width="500"/>
  <unicode hex="0063"/>
  <outline>
    <contour>
      <point x="366" y="537" type="curve" smooth="yes"/>
      <point x="229" y="537"/>
      <point x="129" y="479"/>
      <point x="89" y="323" type="curve" smooth="yes"/>
      <point x="62" y="219" type="line" smooth="yes"/>
      <point x="26" y="78"/>
      <point x="91" y="-10"/>
      <point x="236" y="-10" type="curve" smooth="yes"/>
      <point x="246" y="-10"/>
      <point x="251" y="1"/>
      <point x="241" y="42" type="curve"/>
      <point x="126" y="42"/>
      <point x="92" y="112"/>
      <point x="118" y="220" type="curve" smooth="yes"/>
      <point x="143" y="317" type="line" smooth="yes"/>
      <point x="172" y="434"/>
      <point x="241" y="485"/>
      <point x="354" y="485" type="curve" smooth="yes"/>
      <point x="420" y="485"/>
      <point x="454" y="463"/>
      <point x="477" y="445" type="curve"/>
      <point x="489" y="445" type="line"/>
      <point x="493" y="460"/>
      <point x="495" y="469"/>
      <point x="499" y="483" type="curve"/>
      <point x="500" y="488"/>
      <point x="500" y="490"/>
      <point x="497" y="495" type="curve" smooth="yes"/>
      <point x="486" y="509"/>
      <point x="441" y="537"/>
    </contour>
    <contour>
      <point x="236" y="-10" type="curve" smooth="yes"/>
      <point x="321" y="-10"/>
      <point x="361" y="13"/>
      <point x="382" y="29" type="curve" smooth="yes"/>
      <point x="384" y="31"/>
      <point x="386" y="34"/>
      <point x="387" y="37" type="curve"/>
      <point x="391" y="51"/>
      <point x="396" y="75"/>
      <point x="399" y="89" type="curve"/>
      <point x="387" y="89" type="line"/>
      <point x="347" y="60"/>
      <point x="306" y="42"/>
      <point x="241" y="42" type="curve" smooth="yes"/>
      <point x="154" y="42"/>
      <point x="117" y="67"/>
      <point x="85" y="130" type="curve"/>
      <point x="48" y="67"/>
      <point x="120" y="-10"/>
    </contour>
    <contour>
      <point x="348" y="538" type="move" name="top"/>
    </contour>
    <contour>
      <point x="213" y="-1" type="move" name="bottom"/>
    </contour>
  </outline>
</glyph>
<glyph name="e" format="1">
  <advance width="600"/>
  <unicode hex="0065"/>
  <outline>
    <contour>
      <point x="344" y="487" type="curve" smooth="yes"/>
      <point x="433" y="487"/>
      <point x="486" y="460"/>
      <point x="493" y="389" type="curve"/>
      <point x="503" y="391"/>
      <point x="517" y="398"/>
      <point x="519" y="411" type="curve"/>
      <point x="537" y="481"/>
      <point x="441" y="537"/>
      <point x="354" y="537" type="curve"/>
      <point x="231" y="537"/>
      <point x="142" y="486"/>
      <point x="97" y="313" type="curve" smooth="yes"/>
      <point x="73" y="219" type="line" smooth="yes"/>
      <point x="34" y="69"/>
      <point x="129" y="-10"/>
      <point x="270" y="-10" type="curve" smooth="yes"/>
      <point x="283" y="-10"/>
      <point x="279" y="-1"/>
      <point x="280" y="40" type="curve"/>
      <point x="150" y="40"/>
      <point x="100" y="105"/>
      <point x="127" y="215" type="curve" smooth="yes"/>
      <point x="150" y="306" type="line" smooth="yes"/>
      <point x="182" y="435"/>
      <point x="242" y="487"/>
    </contour>
    <contour>
      <point x="437" y="40" type="curve" smooth="yes"/>
      <point x="441" y="44"/>
      <point x="442" y="46"/>
      <point x="444" y="52" type="curve" smooth="yes"/>
      <point x="448" y="67"/>
      <point x="452" y="79"/>
      <point x="456" y="94" type="curve"/>
      <point x="442" y="94" type="line"/>
      <point x="393" y="63"/>
      <point x="349" y="40"/>
      <point x="280" y="40" type="curve" smooth="yes"/>
      <point x="186" y="40"/>
      <point x="148" y="69"/>
      <point x="108" y="117" type="curve"/>
      <point x="78" y="64"/>
      <point x="149" y="-10"/>
      <point x="270" y="-10" type="curve" smooth="yes"/>
      <point x="361" y="-10"/>
      <point x="409" y="15"/>
    </contour>
    <contour>
      <point x="492" y="236" type="line" smooth="yes"/>
      <point x="499" y="236"/>
      <point x="504" y="240"/>
      <point x="506" y="247" type="curve" smooth="yes"/>
      <point x="525" y="324" type="line" smooth="yes"/>
      <point x="559" y="463"/>
      <point x="488" y="537"/>
      <point x="354" y="537" type="curve" smooth="yes"/>
      <point x="345" y="537"/>
      <point x="342" y="527"/>
      <point x="344" y="487" type="curve"/>
      <point x="453" y="487"/>
      <point x="499" y="438"/>
      <point x="468" y="316" type="curve" smooth="yes"/>
      <point x="460" y="285" type="line" smooth="yes"/>
      <point x="460" y="284"/>
      <point x="459" y="284"/>
      <point x="458" y="284" type="curve" smooth="yes"/>
      <point x="311" y="284"/>
      <point x="241" y="284"/>
      <point x="111" y="284" type="curve"/>
      <point x="104" y="255"/>
      <point x="105" y="249"/>
      <point x="111" y="242" type="curve" smooth="yes"/>
      <point x="114" y="238"/>
      <point x="118" y="236"/>
      <point x="124" y="236" type="curve" smooth="yes"/>
    </contour>
    <contour>
      <point x="375" y="538" type="move" name="top"/>
    </contour>
    <contour>
      <point x="355" y="0" type="move" name="ogonek"/>
    </contour>
    <contour>
      <point x="245" y="-1" type="move" name="bottom"/>
    </contour>
  </outline>
</glyph>
<glyph name="f" format="1">
  <advance width="450"/>
  <unicode hex="0066"/>
  <outline>
    <contour>
      <point x="156" y="0" type="curve"/>
      <point x="165" y="33"/>
      <point x="173" y="66"/>
      <point x="181" y="100" type="curve" smooth="yes"/>
      <point x="289" y="531" type="line" smooth="yes"/>
      <point x="292" y="543"/>
      <point x="295" y="555"/>
      <point x="298" y="566" type="curve" smooth="yes"/>
      <point x="321" y="658"/>
      <point x="360" y="709"/>
      <point x="441" y="709" type="curve"/>
      <point x="460" y="752"/>
      <point x="460" y="761"/>
      <point x="452" y="761" type="curve" smooth="yes"/>
      <point x="358" y="761"/>
      <point x="280" y="716"/>
      <point x="249" y="588" type="curve" smooth="yes"/>
      <point x="104" y="11" type="line" smooth="yes"/>
      <point x="102" y="5"/>
      <point x="106" y="0"/>
      <point x="112" y="0" type="curve" smooth="yes"/>
      <point x="127" y="0"/>
      <point x="142" y="0"/>
    </contour>
    <contour>
      <point x="322" y="671" type="curve"/>
      <point x="359" y="698"/>
      <point x="401" y="709"/>
      <point x="441" y="709" type="curve" smooth="yes"/>
      <point x="480" y="709"/>
      <point x="509" y="699"/>
      <point x="533" y="684" type="curve"/>
      <point x="545" y="684" type="line"/>
      <point x="548" y="698"/>
      <point x="552" y="712"/>
      <point x="555" y="726" type="curve"/>
      <point x="556" y="730"/>
      <point x="556" y="732"/>
      <point x="554" y="734" type="curve" smooth="yes"/>
      <point x="547" y="744"/>
      <point x="506" y="761"/>
      <point x="452" y="761" type="curve" smooth="yes"/>
      <point x="396" y="761"/>
      <point x="308" y="704"/>
    </contour>
    <contour>
      <point x="115" y="527" type="curve"/>
      <point x="111" y="512"/>
      <point x="108" y="500"/>
      <point x="105" y="486" type="curve" smooth="yes"/>
      <point x="104" y="483"/>
      <point x="104" y="480"/>
      <point x="106" y="478" type="curve" smooth="yes"/>
      <point x="107" y="476"/>
      <point x="110" y="475"/>
      <point x="113" y="475" type="curve" smooth="yes"/>
      <point x="188" y="475"/>
      <point x="353" y="475"/>
      <point x="444" y="475" type="curve"/>
      <point x="448" y="489"/>
      <point x="451" y="501"/>
      <point x="455" y="516" type="curve" smooth="yes"/>
      <point x="456" y="522"/>
      <point x="452" y="527"/>
      <point x="446" y="527" type="curve" smooth="yes"/>
      <point x="379" y="527"/>
      <point x="182" y="527"/>
    </contour>
  </outline>
</glyph>
<glyph name="g" format="1">
  <advance width="600"/>
  <unicode hex="0067"/>
  <outline>
    <contour>
      <point x="348" y="481" type="curve" smooth="yes"/>
      <point x="437" y="481"/>
      <point x="556" y="481"/>
      <point x="613" y="481" type="curve" smooth="yes"/>
      <point x="619" y="481"/>
      <point x="626" y="486"/>
      <point x="627" y="492" type="curve" smooth="yes"/>
      <point x="630" y="505"/>
      <point x="634" y="519"/>
      <point x="637" y="532" type="curve"/>
      <point x="546" y="532"/>
      <point x="453" y="532"/>
      <point x="362" y="532" type="curve" smooth="yes"/>
      <point x="225" y="532"/>
      <point x="136" y="473"/>
      <point x="112" y="375" type="curve" smooth="yes"/>
      <point x="102" y="335" type="line" smooth="yes"/>
      <point x="79" y="240"/>
      <point x="152" y="174"/>
      <point x="272" y="172" type="curve"/>
      <point x="282" y="172"/>
      <point x="288" y="187"/>
      <point x="285" y="223" type="curve"/>
      <point x="199" y="223"/>
      <point x="140" y="264"/>
      <point x="156" y="331" type="curve" smooth="yes"/>
      <point x="166" y="370" type="line" smooth="yes"/>
      <point x="184" y="444"/>
      <point x="256" y="481"/>
    </contour>
    <contour>
      <point x="285" y="223" type="curve" smooth="yes"/>
      <point x="224" y="223"/>
      <point x="169" y="240"/>
      <point x="139" y="271" type="curve"/>
      <point x="113" y="230"/>
      <point x="195" y="172"/>
      <point x="272" y="172" type="curve" smooth="yes"/>
      <point x="404" y="172"/>
      <point x="483" y="221"/>
      <point x="508" y="321" type="curve" smooth="yes"/>
      <point x="517" y="357" type="line" smooth="yes"/>
      <point x="531" y="414"/>
      <point x="489" y="488"/>
      <point x="435" y="488" type="curve" smooth="yes"/>
      <point x="427" y="488"/>
      <point x="419" y="487"/>
      <point x="405" y="487" type="curve"/>
      <point x="461" y="445"/>
      <point x="469" y="385"/>
      <point x="459" y="347" type="curve" smooth="yes"/>
      <point x="453" y="323" type="line" smooth="yes"/>
      <point x="435" y="251"/>
      <point x="377" y="223"/>
    </contour>
    <contour>
      <point x="124" y="93" type="curve" smooth="yes"/>
      <point x="122" y="86" type="line" smooth="yes"/>
      <point x="108" y="31"/>
      <point x="137" y="-1"/>
      <point x="196" y="-1" type="curve" smooth="yes"/>
      <point x="312" y="-1" type="line" smooth="yes"/>
      <point x="401" y="-1"/>
      <point x="425" y="-40"/>
      <point x="413" y="-88" type="curve" smooth="yes"/>
      <point x="408" y="-109" type="line" smooth="yes"/>
      <point x="401" y="-138"/>
      <point x="365" y="-200"/>
      <point x="252" y="-200" type="curve"/>
      <point x="221" y="-236"/>
      <point x="216" y="-250"/>
      <point x="233" y="-250" type="curve" smooth="yes"/>
      <point x="368" y="-250"/>
      <point x="449" y="-185"/>
      <point x="468" y="-104" type="curve" smooth="yes"/>
      <point x="472" y="-87" type="line" smooth="yes"/>
      <point x="491" y="-8"/>
      <point x="439" y="53"/>
      <point x="322" y="53" type="curve" smooth="yes"/>
      <point x="209" y="53" type="line" smooth="yes"/>
      <point x="182" y="53"/>
      <point x="172" y="65"/>
      <point x="179" y="92" type="curve" smooth="yes"/>
      <point x="180" y="98" type="line" smooth="yes"/>
      <point x="187" y="125"/>
      <point x="205" y="155"/>
      <point x="238" y="187" type="curve"/>
      <point x="239" y="194"/>
      <point x="233" y="196"/>
      <point x="213" y="197" type="curve" smooth="yes"/>
      <point x="186" y="197"/>
      <point x="134" y="135"/>
    </contour>
    <contour>
      <point x="400" y="-163" type="curve"/>
      <point x="340" y="-196"/>
      <point x="311" y="-200"/>
      <point x="252" y="-200" type="curve" smooth="yes"/>
      <point x="146" y="-200" type="line" smooth="yes"/>
      <point x="51" y="-200"/>
      <point x="6" y="-168"/>
      <point x="22" y="-106" type="curve" smooth="yes"/>
      <point x="27" y="-86" type="line" smooth="yes"/>
      <point x="38" y="-42"/>
      <point x="66" y="-5"/>
      <point x="156" y="19" type="curve"/>
      <point x="156" y="37"/>
      <point x="151" y="53"/>
      <point x="136" y="51" type="curve" smooth="yes"/>
      <point x="47" y="36"/>
      <point x="-11" y="-11"/>
      <point x="-28" y="-83" type="curve" smooth="yes"/>
      <point x="-33" y="-104" type="line" smooth="yes"/>
      <point x="-52" y="-185"/>
      <point x="-2" y="-250"/>
      <point x="120" y="-250" type="curve" smooth="yes"/>
      <point x="233" y="-250" type="line" smooth="yes"/>
      <point x="292" y="-250"/>
      <point x="398" y="-216"/>
    </contour>
  </outline>
</glyph>
<glyph name="h" format="1">
  <advance width="600"/>
  <unicode hex="0068"/>
  <outline>
    <contour>
      <point x="98" y="0" type="curve"/>
      <point x="286" y="740" type="line" smooth="yes"/>
      <point x="287" y="744"/>
      <point x="287" y="747"/>
      <point x="285" y="749" type="curve" smooth="yes"/>
      <point x="283" y="751"/>
      <point x="281" y="751"/>
      <point x="278" y="751" type="curve" smooth="yes"/>
      <point x="263" y="751"/>
      <point x="248" y="751"/>
      <point x="233" y="751" type="curve"/>
      <point x="228" y="734"/>
      <point x="220" y="698"/>
      <point x="208" y="651" type="curve" smooth="yes"/>
      <point x="45" y="11" type="line" smooth="yes"/>
      <point x="44" y="5"/>
      <point x="47" y="0"/>
      <point x="53" y="0" type="curve" smooth="yes"/>
      <point x="68" y="0"/>
      <point x="83" y="0"/>
    </contour>
    <contour>
      <point x="413" y="537" type="curve" smooth="yes"/>
      <point x="337" y="537"/>
      <point x="272" y="495"/>
      <point x="204" y="427" type="curve" smooth="yes"/>
      <point x="180" y="404"/>
      <point x="172" y="370"/>
      <point x="169" y="332" type="curve"/>
      <point x="266" y="439"/>
      <point x="338" y="486"/>
      <point x="402" y="486" type="curve" smooth="yes"/>
      <point x="465" y="486"/>
      <point x="494" y="456"/>
      <point x="474" y="374" type="curve"/>
      <point x="518" y="377"/>
      <point x="526" y="376"/>
      <point x="530" y="389" type="curve" smooth="yes"/>
      <point x="549" y="465"/>
      <point x="512" y="537"/>
    </contour>
    <contour>
      <point x="431" y="0" type="curve"/>
      <point x="441" y="36"/>
      <point x="449" y="68"/>
      <point x="457" y="98" type="curve" smooth="yes"/>
      <point x="530" y="389" type="line"/>
      <point x="538" y="417"/>
      <point x="527" y="455"/>
      <point x="485" y="452" type="curve"/>
      <point x="482" y="425"/>
      <point x="483" y="423"/>
      <point x="472" y="376" type="curve" smooth="yes"/>
      <point x="378" y="11" type="line" smooth="yes"/>
      <point x="376" y="5"/>
      <point x="380" y="0"/>
      <point x="386" y="0" type="curve" smooth="yes"/>
      <point x="401" y="0"/>
      <point x="416" y="0"/>
    </contour>
    <contour>
      <point x="258" y="730" type="move" name="top"/>
    </contour>
  </outline>
</glyph>
<glyph name="j" format="1">
  <advance width="350"/>
  <unicode hex="006A"/>
  <outline>
    <contour>
      <point x="115" y="527" type="curve"/>
      <point x="112" y="513"/>
      <point x="109" y="501"/>
      <point x="105" y="486" type="curve" smooth="yes"/>
      <point x="104" y="480"/>
      <point x="108" y="475"/>
      <point x="114" y="475" type="curve" smooth="yes"/>
      <point x="161" y="475"/>
      <point x="214" y="475"/>
      <point x="262" y="475" type="curve"/>
      <point x="270" y="508"/>
      <point x="269" y="527"/>
      <point x="260" y="527" type="curve" smooth="yes"/>
      <point x="214" y="527"/>
      <point x="162" y="527"/>
    </contour>
    <contour>
      <point x="151" y="-108" type="curve" smooth="yes"/>
      <point x="307" y="507" type="line" smooth="yes"/>
      <point x="308" y="512"/>
      <point x="308" y="515"/>
      <point x="306" y="518" type="curve" smooth="yes"/>
      <point x="301" y="524"/>
      <point x="294" y="527"/>
      <point x="281" y="527" type="curve" smooth="yes"/>
      <point x="256" y="527" type="line"/>
      <point x="98" y="-98" type="line" smooth="yes"/>
      <point x="82" y="-162"/>
      <point x="70" y="-177"/>
      <point x="16" y="-215" type="curve"/>
      <point x="57" y="-228"/>
      <point x="133" y="-181"/>
    </contour>
    <contour>
      <point x="-5" y="-199" type="curve" smooth="yes"/>
      <point x="-49" y="-199"/>
      <point x="-66" y="-193"/>
      <point x="-89" y="-175" type="curve"/>
      <point x="-102" y="-175" type="line"/>
      <point x="-106" y="-190"/>
      <point x="-107" y="-195"/>
      <point x="-111" y="-209" type="curve" smooth="yes"/>
      <point x="-112" y="-215"/>
      <point x="-112" y="-217"/>
      <point x="-110" y="-220" type="curve" smooth="yes"/>
      <point x="-102" y="-230"/>
      <point x="-73" y="-250"/>
      <point x="-15" y="-250" type="curve" smooth="yes"/>
      <point x="76" y="-250"/>
      <point x="127" y="-204"/>
      <point x="151" y="-108" type="curve" smooth="yes"/>
      <point x="153" y="-101"/>
      <point x="147" y="-94"/>
      <point x="120" y="-97" type="curve"/>
      <point x="88" y="-165"/>
      <point x="47" y="-199"/>
    </contour>
    <contour>
      <point x="365" y="674" type="curve"/>
      <point x="384" y="747" type="line" smooth="yes"/>
      <point x="385" y="753"/>
      <point x="382" y="758"/>
      <point x="376" y="758" type="curve" smooth="yes"/>
      <point x="351" y="758"/>
      <point x="325" y="758"/>
      <point x="300" y="758" type="curve"/>
      <point x="282" y="685" type="line" smooth="yes"/>
      <point x="280" y="679"/>
      <point x="284" y="674"/>
      <point x="290" y="674" type="curve" smooth="yes"/>
      <point x="315" y="674"/>
      <point x="341" y="674"/>
    </contour>
  </outline>
</glyph>
<glyph name="k" format="1">
  <advance width="600"/>
  <unicode hex="006B"/>
  <outline>
    <contour>
      <point x="97" y="0" type="curve"/>
      <point x="285" y="739" type="line" smooth="yes"/>
      <point x="286" y="743"/>
      <point x="286" y="746"/>
      <point x="284" y="748" type="curve" smooth="yes"/>
      <point x="282" y="750"/>
      <point x="280" y="750"/>
      <point x="277" y="750" type="curve" smooth="yes"/>
      <point x="262" y="750"/>
      <point x="248" y="750"/>
      <point x="233" y="750" type="curve"/>
      <point x="228" y="733"/>
      <point x="220" y="697"/>
      <point x="207" y="650" type="curve" smooth="yes"/>
      <point x="45" y="11" type="line" smooth="yes"/>
      <point x="43" y="3"/>
      <point x="47" y="0"/>
      <point x="53" y="0" type="curve" smooth="yes"/>
      <point x="68" y="0"/>
      <point x="82" y="0"/>
    </contour>
    <contour>
      <point x="518" y="527" type="line"/>
      <point x="377" y="421"/>
      <point x="260" y="334"/>
      <point x="119" y="228" type="curve"/>
      <point x="111" y="194"/>
      <point x="117" y="166"/>
      <point x="134" y="180" type="curve" smooth="yes"/>
      <point x="280" y="287"/>
      <point x="418" y="386"/>
      <point x="580" y="507" type="curve" smooth="yes"/>
      <point x="590" y="514"/>
      <point x="592" y="518"/>
      <point x="592" y="522" type="curve" smooth="yes"/>
      <point x="592" y="525"/>
      <point x="590" y="527"/>
      <point x="585" y="527" type="curve"/>
    </contour>
    <contour>
      <point x="428" y="0" type="curve" smooth="yes"/>
      <point x="451" y="0"/>
      <point x="457" y="0"/>
      <point x="482" y="0" type="curve"/>
      <point x="415" y="111"/>
      <point x="349" y="218"/>
      <point x="283" y="325" type="curve"/>
      <point x="245" y="290"/>
      <point x="246" y="283"/>
      <point x="251" y="272" type="curve" smooth="yes"/>
      <point x="264" y="248"/>
      <point x="398" y="29"/>
      <point x="409" y="9" type="curve" smooth="yes"/>
      <point x="413" y="2"/>
      <point x="418" y="0"/>
    </contour>
    <contour>
      <point x="262" y="-1" type="move" name="bottom"/>
    </contour>
  </outline>
</glyph>
<glyph name="l" format="1">
  <advance width="300"/>
  <unicode hex="006C"/>
  <outline>
    <contour>
      <point x="192" y="640" type="curve"/>
      <point x="66" y="137" type="line" smooth="yes"/>
      <point x="51" y="76"/>
      <point x="74" y="37"/>
      <point x="112" y="40" type="curve"/>
      <point x="108" y="72"/>
      <point x="113" y="104"/>
      <point x="121" y="136" type="curve" smooth="yes"/>
      <point x="272" y="739" type="line" smooth="yes"/>
      <point x="273" y="742"/>
      <point x="272" y="745"/>
      <point x="271" y="747" type="curve" smooth="yes"/>
      <point x="269" y="749"/>
      <point x="267" y="750"/>
      <point x="264" y="750" type="curve" smooth="yes"/>
      <point x="249" y="750"/>
      <point x="234" y="750"/>
      <point x="219" y="750" type="curve"/>
      <point x="210" y="713"/>
      <point x="201" y="677"/>
    </contour>
    <contour>
      <point x="218" y="52" type="curve"/>
      <point x="207" y="52" type="line"/>
      <point x="198" y="52"/>
      <point x="190" y="52"/>
      <point x="181" y="52" type="curve" smooth="yes"/>
      <point x="120" y="52"/>
      <point x="105" y="71"/>
      <point x="121" y="136" type="curve"/>
      <point x="99" y="152"/>
      <point x="74" y="168"/>
      <point x="66" y="137" type="curve" smooth="yes"/>
      <point x="42" y="40"/>
      <point x="83" y="0"/>
      <point x="166" y="0" type="curve" smooth="yes"/>
      <point x="194" y="0" type="line" smooth="yes"/>
      <point x="197" y="0"/>
      <point x="200" y="1"/>
      <point x="202" y="3" type="curve" smooth="yes"/>
      <point x="205" y="5"/>
      <point x="206" y="7"/>
      <point x="207" y="11" type="curve" smooth="yes"/>
      <point x="211" y="26"/>
      <point x="214" y="37"/>
    </contour>
    <contour>
      <point x="446" y="711" type="move" name="caronslovak"/>
    </contour>
    <contour>
      <point x="242" y="730" type="move" name="top"/>
    </contour>
    <contour>
      <point x="368" y="400" type="move" name="dot"/>
    </contour>
    <contour>
      <point x="118" y="-1" type="move" name="bottom"/>
    </contour>
  </outline>
</glyph>
<glyph name="m" format="1">
  <advance width="850"/>
  <unicode hex="006D"/>
  <outline>
    <contour>
      <point x="96" y="0" type="curve"/>
      <point x="227" y="516" type="line" smooth="yes"/>
      <point x="227" y="519"/>
      <point x="227" y="522"/>
      <point x="226" y="524" type="curve" smooth="yes"/>
      <point x="224" y="526"/>
      <point x="221" y="527"/>
      <point x="218" y="527" type="curve" smooth="yes"/>
      <point x="204" y="527"/>
      <point x="189" y="527"/>
      <point x="173" y="527" type="curve"/>
      <point x="169" y="510"/>
      <point x="160" y="474"/>
      <point x="148" y="427" type="curve" smooth="yes"/>
      <point x="42" y="11" type="line" smooth="yes"/>
      <point x="41" y="5"/>
      <point x="45" y="0"/>
      <point x="51" y="0" type="curve" smooth="yes"/>
      <point x="66" y="0"/>
      <point x="81" y="0"/>
    </contour>
    <contour>
      <point x="386" y="537" type="curve" smooth="yes"/>
      <point x="325" y="537"/>
      <point x="264" y="500"/>
      <point x="205" y="440" type="curve" smooth="yes"/>
      <point x="183" y="418"/>
      <point x="170" y="392"/>
      <point x="170" y="346" type="curve"/>
      <point x="261" y="447"/>
      <point x="323" y="486"/>
      <point x="380" y="486" type="curve" smooth="yes"/>
      <point x="425" y="486"/>
      <point x="442" y="445"/>
      <point x="423" y="373" type="curve"/>
      <point x="462" y="361"/>
      <point x="478" y="369"/>
      <point x="484" y="388" type="curve" smooth="yes"/>
      <point x="501" y="455"/>
      <point x="480" y="537"/>
    </contour>
    <contour>
      <point x="385" y="0" type="curve"/>
      <point x="484" y="388" type="line"/>
      <point x="490" y="411"/>
      <point x="488" y="457"/>
      <point x="447" y="457" type="curve"/>
      <point x="439" y="429"/>
      <point x="429" y="399"/>
      <point x="423" y="373" type="curve" smooth="yes"/>
      <point x="332" y="11" type="line" smooth="yes"/>
      <point x="331" y="5"/>
      <point x="334" y="0"/>
      <point x="340" y="0" type="curve" smooth="yes"/>
      <point x="355" y="0"/>
      <point x="370" y="0"/>
    </contour>
    <contour>
      <point x="670" y="537" type="curve" smooth="yes"/>
      <point x="608" y="537"/>
      <point x="551" y="506"/>
      <point x="488" y="445" type="curve" smooth="yes"/>
      <point x="462" y="421"/>
      <point x="456" y="402"/>
      <point x="452" y="362" type="curve"/>
      <point x="546" y="447"/>
      <point x="604" y="486"/>
      <point x="663" y="485" type="curve" smooth="yes"/>
      <point x="710" y="486"/>
      <point x="733" y="456"/>
      <point x="713" y="380" type="curve"/>
      <point x="745" y="371"/>
      <point x="767" y="369"/>
      <point x="774" y="389" type="curve" smooth="yes"/>
      <point x="791" y="458"/>
      <point x="765" y="537"/>
    </contour>
    <contour>
      <point x="675" y="0" type="curve"/>
      <point x="683" y="35"/>
      <point x="691" y="66"/>
      <point x="699" y="95" type="curve" smooth="yes"/>
      <point x="774" y="389" type="line"/>
      <point x="779" y="413"/>
      <point x="776" y="456"/>
      <point x="735" y="457" type="curve"/>
      <point x="727" y="428"/>
      <point x="721" y="410"/>
      <point x="713" y="380" type="curve" smooth="yes"/>
      <point x="621" y="11" type="line" smooth="yes"/>
      <point x="620" y="5"/>
      <point x="624" y="0"/>
      <point x="630" y="0" type="curve" smooth="yes"/>
      <point x="645" y="0"/>
      <point x="659" y="0"/>
    </contour>
  </outline>
</glyph>
<glyph name="n" format="1">
  <advance width="600"/>
  <unicode hex="006E"/>
  <outline>
    <contour>
      <point x="98" y="0" type="curve"/>
      <point x="228" y="516" type="line" smooth="yes"/>
      <point x="229" y="520"/>
      <point x="229" y="523"/>
      <point x="227" y="525" type="curve" smooth="yes"/>
      <point x="225" y="527"/>
      <point x="223" y="527"/>
      <point x="220" y="527" type="curve" smooth="yes"/>
      <point x="205" y="527"/>
      <point x="190" y="527"/>
      <point x="175" y="527" type="curve"/>
      <point x="171" y="510"/>
      <point x="162" y="474"/>
      <point x="150" y="427" type="curve" smooth="yes"/>
      <point x="45" y="11" type="line" smooth="yes"/>
      <point x="43" y="5"/>
      <point x="47" y="0"/>
      <point x="53" y="0" type="curve" smooth="yes"/>
      <point x="68" y="0"/>
      <point x="83" y="0"/>
    </contour>
    <contour>
      <point x="415" y="537" type="curve" smooth="yes"/>
      <point x="336" y="537"/>
      <point x="268" y="493"/>
      <point x="202" y="424" type="curve" smooth="yes"/>
      <point x="178" y="399"/>
      <point x="168" y="363"/>
      <point x="166" y="326" type="curve"/>
      <point x="263" y="437"/>
      <point x="340" y="486"/>
      <point x="404" y="486" type="curve" smooth="yes"/>
      <point x="462" y="486"/>
      <point x="487" y="445"/>
      <point x="468" y="368" type="curve"/>
      <point x="519" y="370"/>
      <point x="525" y="377"/>
      <point x="528" y="386" type="curve" smooth="yes"/>
      <point x="547" y="464"/>
      <point x="510" y="537"/>
    </contour>
    <contour>
      <point x="431" y="0" type="curve"/>
      <point x="440" y="36"/>
      <point x="448" y="68"/>
      <point x="456" y="98" type="curve" smooth="yes"/>
      <point x="528" y="386" type="line"/>
      <point x="534" y="413"/>
      <point x="525" y="454"/>
      <point x="479" y="451" type="curve"/>
      <point x="480" y="426"/>
      <point x="479" y="414"/>
      <point x="468" y="368" type="curve" smooth="yes"/>
      <point x="378" y="11" type="line" smooth="yes"/>
      <point x="376" y="5"/>
      <point x="380" y="0"/>
      <point x="386" y="0" type="curve" smooth="yes"/>
      <point x="401" y="0"/>
      <point x="416" y="0"/>
    </contour>
    <contour>
      <point x="438" y="711" type="move" name="caronslovak"/>
    </contour>
    <contour>
      <point x="372" y="538" type="move" name="top"/>
    </contour>
    <contour>
      <point x="232" y="-1" type="move" name="bottom"/>
    </contour>
  </outline>
</glyph>
<glyph name="p" format="1">
  <advance width="600"/>
  <unicode hex="0070"/>
  <outline>
    <contour>
      <point x="44" y="-219" type="curve"/>
      <point x="229" y="516" type="line" smooth="yes"/>
      <point x="230" y="519"/>
      <point x="230" y="523"/>
      <point x="228" y="525" type="curve" smooth="yes"/>
      <point x="227" y="527"/>
      <point x="224" y="527"/>
      <point x="221" y="527" type="curve"/>
      <point x="207" y="527"/>
      <point x="192" y="527"/>
      <point x="177" y="527" type="curve"/>
      <point x="168" y="492"/>
      <point x="160" y="458"/>
      <point x="152" y="427" type="curve" smooth="yes"/>
      <point x="-10" y="-207" type="line" smooth="yes"/>
      <point x="-12" y="-215"/>
      <point x="-7" y="-219"/>
      <point x="-1" y="-219" type="curve"/>
      <point x="14" y="-219"/>
      <point x="29" y="-219"/>
    </contour>
    <contour>
      <point x="401" y="537" type="curve" smooth="yes"/>
      <point x="324" y="537"/>
      <point x="269" y="502"/>
      <point x="211" y="453" type="curve" smooth="yes"/>
      <point x="187" y="431"/>
      <point x="174" y="401"/>
      <point x="172" y="366" type="curve"/>
      <point x="267" y="453"/>
      <point x="323" y="486"/>
      <point x="391" y="486" type="curve" smooth="yes"/>
      <point x="480" y="486"/>
      <point x="512" y="421"/>
      <point x="485" y="314" type="curve"/>
      <point x="530" y="309"/>
      <point x="543" y="318"/>
      <point x="544" y="325" type="curve" smooth="yes"/>
      <point x="572" y="440"/>
      <point x="519" y="537"/>
    </contour>
    <contour>
      <point x="286" y="-11" type="curve" smooth="yes"/>
      <point x="394" y="-11"/>
      <point x="474" y="45"/>
      <point x="515" y="209" type="curve" smooth="yes"/>
      <point x="544" y="326" type="line" smooth="yes"/>
      <point x="557" y="377"/>
      <point x="538" y="461"/>
      <point x="511" y="461" type="curve" smooth="yes"/>
      <point x="501" y="461"/>
      <point x="494" y="459"/>
      <point x="491" y="454" type="curve"/>
      <point x="502" y="417"/>
      <point x="502" y="385"/>
      <point x="485" y="314" type="curve" smooth="yes"/>
      <point x="462" y="224" type="line" smooth="yes"/>
      <point x="427" y="84"/>
      <point x="366" y="39"/>
      <point x="291" y="39" type="curve" smooth="yes"/>
      <point x="210" y="39"/>
      <point x="169" y="63"/>
      <point x="113" y="143" type="curve"/>
      <point x="97" y="121"/>
      <point x="92" y="105"/>
      <point x="99" y="92" type="curve" smooth="yes"/>
      <point x="134" y="34"/>
      <point x="186" y="-11"/>
    </contour>
  </outline>
</glyph>
<glyph name="q" format="1">
  <advance width="600"/>
  <unicode hex="0071"/>
  <outline>
    <contour>
      <point x="326" y="537" type="curve" smooth="yes"/>
      <point x="213" y="537"/>
      <point x="133" y="479"/>
      <point x="87" y="307" type="curve" smooth="yes"/>
      <point x="55" y="186" type="line" smooth="yes"/>
      <point x="42" y="136"/>
      <point x="64" y="67"/>
      <point x="91" y="67" type="curve" smooth="yes"/>
      <point x="101" y="67"/>
      <point x="108" y="68"/>
      <point x="110" y="74" type="curve"/>
      <point x="101" y="112"/>
      <point x="96" y="122"/>
      <point x="115" y="200" type="curve" smooth="yes"/>
      <point x="138" y="292" type="line" smooth="yes"/>
      <point x="175" y="439"/>
      <point x="236" y="486"/>
      <point x="323" y="486" type="curve" smooth="yes"/>
      <point x="400" y="486"/>
      <point x="441" y="451"/>
      <point x="475" y="374" type="curve"/>
      <point x="483" y="373"/>
      <point x="500" y="410"/>
      <point x="496" y="424" type="curve" smooth="yes"/>
      <point x="475" y="484"/>
      <point x="419" y="537"/>
    </contour>
    <contour>
      <point x="190" y="-10" type="curve" smooth="yes"/>
      <point x="274" y="-10"/>
      <point x="333" y="25"/>
      <point x="392" y="77" type="curve" smooth="yes"/>
      <point x="417" y="99"/>
      <point x="428" y="131"/>
      <point x="426" y="168" type="curve"/>
      <point x="332" y="74"/>
      <point x="273" y="40"/>
      <point x="201" y="40" type="curve" smooth="yes"/>
      <point x="122" y="40"/>
      <point x="88" y="92"/>
      <point x="115" y="200" type="curve"/>
      <point x="70" y="201"/>
      <point x="57" y="194"/>
      <point x="55" y="186" type="curve" smooth="yes"/>
      <point x="27" y="71"/>
      <point x="84" y="-10"/>
    </contour>
    <contour>
      <point x="371" y="-219" type="curve"/>
      <point x="535" y="427" type="line" smooth="yes"/>
      <point x="543" y="460"/>
      <point x="551" y="494"/>
      <point x="560" y="527" type="curve"/>
      <point x="545" y="527"/>
      <point x="530" y="527"/>
      <point x="515" y="527" type="curve" smooth="yes"/>
      <point x="510" y="527"/>
      <point x="507" y="526"/>
      <point x="505" y="524" type="curve" smooth="yes"/>
      <point x="503" y="522"/>
      <point x="502" y="520"/>
      <point x="501" y="516" type="curve" smooth="yes"/>
      <point x="318" y="-208" type="line" smooth="yes"/>
      <point x="316" y="-216"/>
      <point x="321" y="-219"/>
      <point x="327" y="-219" type="curve" smooth="yes"/>
      <point x="342" y="-219"/>
      <point x="356" y="-219"/>
    </contour>
  </outline>
</glyph>
<glyph name="s" format="1">
  <advance width="550"/>
  <unicode hex="0073"/>
  <outline>
    <contour>
      <point x="349" y="535" type="curve" smooth="yes"/>
      <point x="341" y="535" type="line" smooth="yes"/>
      <point x="212" y="535"/>
      <point x="141" y="479"/>
      <point x="123" y="407" type="curve" smooth="yes"/>
      <point x="112" y="368"/>
      <point x="145" y="355"/>
      <point x="166" y="355" type="curve"/>
      <point x="170" y="373"/>
      <point x="173" y="389"/>
      <point x="176" y="401" type="curve" smooth="yes"/>
      <point x="189" y="451"/>
      <point x="245" y="484"/>
      <point x="332" y="484" type="curve" smooth="yes"/>
      <point x="409" y="484"/>
      <point x="449" y="471"/>
      <point x="485" y="450" type="curve"/>
      <point x="498" y="450" type="line"/>
      <point x="501" y="463"/>
      <point x="504" y="475"/>
      <point x="507" y="489" type="curve"/>
      <point x="508" y="492"/>
      <point x="509" y="494"/>
      <point x="506" y="497" type="curve" smooth="yes"/>
      <point x="495" y="512"/>
      <point x="434" y="535"/>
    </contour>
    <contour>
      <point x="335" y="285" type="curve" smooth="yes"/>
      <point x="254" y="306" type="line" smooth="yes"/>
      <point x="172" y="328"/>
      <point x="166" y="359"/>
      <point x="176" y="401" type="curve" smooth="yes"/>
      <point x="179" y="411"/>
      <point x="183" y="429"/>
      <point x="189" y="448" type="curve"/>
      <point x="158" y="448"/>
      <point x="129" y="429"/>
      <point x="123" y="407" type="curve"/>
      <point x="105" y="338"/>
      <point x="130" y="285"/>
      <point x="224" y="262" type="curve" smooth="yes"/>
      <point x="303" y="241" type="line" smooth="yes"/>
      <point x="392" y="218"/>
      <point x="401" y="183"/>
      <point x="390" y="138" type="curve" smooth="yes"/>
      <point x="386" y="122"/>
      <point x="384" y="111"/>
      <point x="381" y="98" type="curve"/>
      <point x="420" y="98"/>
      <point x="442" y="118"/>
      <point x="445" y="132" type="curve" smooth="yes"/>
      <point x="461" y="195"/>
      <point x="444" y="257"/>
    </contour>
    <contour>
      <point x="212" y="43" type="curve" smooth="yes"/>
      <point x="134" y="42"/>
      <point x="85" y="61"/>
      <point x="43" y="103" type="curve"/>
      <point x="31" y="103" type="line"/>
      <point x="28" y="92"/>
      <point x="24" y="78"/>
      <point x="19" y="59" type="curve" smooth="yes"/>
      <point x="18" y="55"/>
      <point x="18" y="53"/>
      <point x="20" y="51" type="curve" smooth="yes"/>
      <point x="39" y="26"/>
      <point x="103" y="-8"/>
      <point x="208" y="-8" type="curve" smooth="yes"/>
      <point x="217" y="-8" type="line" smooth="yes"/>
      <point x="336" y="-8"/>
      <point x="422" y="40"/>
      <point x="445" y="132" type="curve" smooth="yes"/>
      <point x="450" y="153"/>
      <point x="433" y="183"/>
      <point x="401" y="183" type="curve"/>
      <point x="397" y="165"/>
      <point x="394" y="155"/>
      <point x="390" y="138" type="curve" smooth="yes"/>
      <point x="375" y="82"/>
      <point x="319" y="42"/>
    </contour>
    <contour>
      <point x="263" y="538" type="move" name="top"/>
    </contour>
    <contour>
      <point x="263" y="-1" type="move" name="bottom"/>
    </contour>
  </outline>
</glyph>
<glyph name="t" format="1">
  <advance width="500"/>
  <unicode hex="0074"/>
  <outline>
    <contour>
      <point x="276" y="700" type="curve"/>
      <point x="148" y="191" type="line" smooth="yes"/>
      <point x="128" y="107"/>
      <point x="156" y="35"/>
      <point x="215" y="41" type="curve"/>
      <point x="192" y="97"/>
      <point x="184" y="110"/>
      <point x="206" y="197" type="curve" smooth="yes"/>
      <point x="328" y="689" type="line" smooth="yes"/>
      <point x="330" y="695"/>
      <point x="326" y="700"/>
      <point x="320" y="700" type="curve" smooth="yes"/>
      <point x="306" y="700"/>
      <point x="291" y="700"/>
    </contour>
    <contour>
      <point x="378" y="52" type="curve"/>
      <point x="367" y="52" type="line"/>
      <point x="351" y="52"/>
      <point x="332" y="52"/>
      <point x="301" y="52" type="curve" smooth="yes"/>
      <point x="203" y="52"/>
      <point x="179" y="92"/>
      <point x="206" y="197" type="curve"/>
      <point x="162" y="209"/>
      <point x="152" y="205"/>
      <point x="148" y="191" type="curve" smooth="yes"/>
      <point x="115" y="55"/>
      <point x="175" y="0"/>
      <point x="284" y="0" type="curve" smooth="yes"/>
      <point x="353" y="0" type="line" smooth="yes"/>
      <point x="357" y="0"/>
      <point x="359" y="1"/>
      <point x="362" y="3" type="curve" smooth="yes"/>
      <point x="364" y="5"/>
      <point x="366" y="7"/>
      <point x="367" y="11" type="curve" smooth="yes"/>
      <point x="371" y="26"/>
      <point x="374" y="37"/>
    </contour>
    <contour>
      <point x="116" y="527" type="line"/>
      <point x="111" y="512"/>
      <point x="109" y="500"/>
      <point x="105" y="486" type="curve" smooth="yes"/>
      <point x="104" y="483"/>
      <point x="104" y="480"/>
      <point x="106" y="478" type="curve" smooth="yes"/>
      <point x="107" y="476"/>
      <point x="110" y="475"/>
      <point x="113" y="475" type="curve"/>
      <point x="483" y="475" type="line"/>
      <point x="487" y="489"/>
      <point x="490" y="501"/>
      <point x="494" y="516" type="curve" smooth="yes"/>
      <point x="495" y="522"/>
      <point x="492" y="527"/>
      <point x="486" y="527" type="curve"/>
    </contour>
    <contour>
      <point x="502" y="711" type="move" name="caronslovak"/>
    </contour>
    <contour>
      <point x="228" y="-1" type="move" name="bottom"/>
    </contour>
  </outline>
</glyph>
<glyph name="v" format="1">
  <advance width="600"/>
  <unicode hex="0076"/>
  <outline>
    <contour>
      <point x="603" y="527" type="curve" smooth="yes"/>
      <point x="554" y="527" type="line"/>
      <point x="449" y="361"/>
      <point x="344" y="196"/>
      <point x="238" y="30" type="curve"/>
      <point x="228" y="12"/>
      <point x="223" y="7"/>
      <point x="208" y="0" type="curve"/>
      <point x="279" y="0" type="line"/>
      <point x="389" y="172"/>
      <point x="498" y="343"/>
      <point x="608" y="515" type="curve"/>
      <point x="612" y="522"/>
      <point x="608" y="527"/>
    </contour>
    <contour>
      <point x="168" y="527" type="curve" smooth="yes"/>
      <point x="118" y="527" type="line"/>
      <point x="141" y="355"/>
      <point x="163" y="183"/>
      <point x="186" y="11" type="curve"/>
      <point x="187" y="3"/>
      <point x="191" y="0"/>
      <point x="199" y="0" type="curve" smooth="yes"/>
      <point x="213" y="0" type="line" smooth="yes"/>
      <point x="238" y="0"/>
      <point x="286" y="16"/>
      <point x="298" y="50" type="curve"/>
      <point x="280" y="50"/>
      <point x="263" y="50"/>
      <point x="245" y="50" type="curve" smooth="yes"/>
      <point x="240" y="50"/>
      <point x="239" y="52"/>
      <point x="238" y="58" type="curve"/>
      <point x="218" y="213"/>
      <point x="199" y="359"/>
      <point x="180" y="514" type="curve"/>
      <point x="179" y="523"/>
      <point x="175" y="527"/>
    </contour>
  </outline>
</glyph>
<glyph name="w" format="1">
  <advance width="800"/>
  <unicode hex="0077"/>
  <outline>
    <contour>
      <point x="115" y="527" type="curve"/>
      <point x="119" y="356"/>
      <point x="124" y="182"/>
      <point x="128" y="11" type="curve"/>
      <point x="129" y="3"/>
      <point x="134" y="0"/>
      <point x="139" y="0" type="curve"/>
      <point x="161" y="0" type="line" smooth="yes"/>
      <point x="173" y="1"/>
      <point x="178" y="16"/>
      <point x="180" y="27" type="curve"/>
      <point x="177" y="190"/>
      <point x="175" y="354"/>
      <point x="171" y="517" type="curve"/>
      <point x="171" y="522"/>
      <point x="170" y="524"/>
      <point x="169" y="525" type="curve" smooth="yes"/>
      <point x="168" y="526"/>
      <point x="166" y="527"/>
      <point x="163" y="527" type="curve"/>
      <point x="146" y="527"/>
      <point x="132" y="527"/>
    </contour>
    <contour>
      <point x="433" y="527" type="curve"/>
      <point x="343" y="362"/>
      <point x="251" y="195"/>
      <point x="161" y="30" type="curve"/>
      <point x="151" y="14"/>
      <point x="150" y="9"/>
      <point x="146" y="0" type="curve"/>
      <point x="202" y="0" type="line"/>
      <point x="294" y="165"/>
      <point x="385" y="330"/>
      <point x="477" y="496" type="curve"/>
      <point x="484" y="521"/>
      <point x="485" y="526"/>
      <point x="483" y="527" type="curve" smooth="yes"/>
      <point x="469" y="527"/>
      <point x="447" y="527"/>
    </contour>
    <contour>
      <point x="439" y="494" type="curve"/>
      <point x="447" y="333"/>
      <point x="454" y="172"/>
      <point x="462" y="11" type="curve"/>
      <point x="463" y="3"/>
      <point x="467" y="0"/>
      <point x="472" y="0" type="curve"/>
      <point x="497" y="0" type="line" smooth="yes"/>
      <point x="506" y="2"/>
      <point x="511" y="18"/>
      <point x="513" y="26" type="curve"/>
      <point x="506" y="190"/>
      <point x="500" y="353"/>
      <point x="493" y="516" type="curve"/>
      <point x="493" y="524"/>
      <point x="489" y="527"/>
      <point x="483" y="527" type="curve" smooth="yes"/>
      <point x="475" y="527"/>
      <point x="471" y="524"/>
    </contour>
    <contour>
      <point x="758" y="527" type="curve"/>
      <point x="670" y="362"/>
      <point x="581" y="195"/>
      <point x="493" y="31" type="curve"/>
      <point x="484" y="15"/>
      <point x="483" y="9"/>
      <point x="480" y="0" type="curve"/>
      <point x="535" y="0" type="line"/>
      <point x="627" y="170"/>
      <point x="719" y="341"/>
      <point x="811" y="511" type="curve"/>
      <point x="816" y="519"/>
      <point x="816" y="523"/>
      <point x="814" y="525" type="curve" smooth="yes"/>
      <point x="813" y="526"/>
      <point x="812" y="527"/>
      <point x="808" y="527" type="curve"/>
      <point x="792" y="527"/>
      <point x="774" y="527"/>
    </contour>
    <contour>
      <point x="464" y="538" type="move" name="top"/>
    </contour>
  </outline>
</glyph>
<glyph name="y" format="1">
  <advance width="600"/>
  <unicode hex="0079"/>
  <outline>
    <contour>
      <point x="601" y="527" type="curve" smooth="yes"/>
      <point x="584" y="527"/>
      <point x="569" y="527"/>
      <point x="554" y="527" type="curve"/>
      <point x="423" y="307"/>
      <point x="204" y="-57"/>
      <point x="158" y="-133" type="curve" smooth="yes"/>
      <point x="131" y="-178"/>
      <point x="97" y="-197"/>
      <point x="52" y="-197" type="curve" smooth="yes"/>
      <point x="-32" y="-197" type="line"/>
      <point x="-42" y="-239" type="line" smooth="yes"/>
      <point x="-44" y="-248"/>
      <point x="-40" y="-250"/>
      <point x="-34" y="-250" type="curve" smooth="yes"/>
      <point x="42" y="-250" type="line" smooth="yes"/>
      <point x="117" y="-250"/>
      <point x="164" y="-221"/>
      <point x="213" y="-139" type="curve" smooth="yes"/>
      <point x="309" y="20"/>
      <point x="478" y="297"/>
      <point x="609" y="511" type="curve" smooth="yes"/>
      <point x="615" y="521"/>
      <point x="608" y="527"/>
    </contour>
    <contour>
      <point x="158" y="527" type="curve" smooth="yes"/>
      <point x="142" y="527"/>
      <point x="128" y="527"/>
      <point x="114" y="527" type="curve"/>
      <point x="142" y="359"/>
      <point x="200" y="15"/>
      <point x="201" y="8" type="curve" smooth="yes"/>
      <point x="202" y="3"/>
      <point x="205" y="0"/>
      <point x="211" y="0" type="curve" smooth="yes"/>
      <point x="257" y="0" type="line" smooth="yes"/>
      <point x="274" y="0"/>
      <point x="292" y="11"/>
      <point x="303" y="51" type="curve"/>
      <point x="257" y="51" type="line"/>
      <point x="252" y="51"/>
      <point x="251" y="52"/>
      <point x="250" y="57" type="curve" smooth="yes"/>
      <point x="246" y="78"/>
      <point x="180" y="470"/>
      <point x="174" y="516" type="curve" smooth="yes"/>
      <point x="172" y="525"/>
      <point x="168" y="527"/>
    </contour>
    <contour>
      <point x="383" y="538" type="move" name="top"/>
    </contour>
  </outline>
</glyph>
<glyph name="z" format="1">
  <advance width="550"/>
  <unicode hex="007A"/>
  <outline>
    <contour>
      <point x="146" y="527" type="line"/>
      <point x="143" y="513"/>
      <point x="140" y="501"/>
      <point x="137" y="487" type="curve" smooth="yes"/>
      <point x="136" y="484"/>
      <point x="136" y="481"/>
      <point x="138" y="479" type="curve" smooth="yes"/>
      <point x="139" y="477"/>
      <point x="142" y="476"/>
      <point x="145" y="476" type="curve" smooth="yes"/>
      <point x="466" y="476" type="line" smooth="yes"/>
      <point x="481" y="476"/>
      <point x="513" y="476"/>
      <point x="523" y="477" type="curve"/>
      <point x="533" y="516" type="line" smooth="yes"/>
      <point x="534" y="519"/>
      <point x="533" y="522"/>
      <point x="532" y="524" type="curve" smooth="yes"/>
      <point x="530" y="526"/>
      <point x="528" y="527"/>
      <point x="525" y="527" type="curve" smooth="yes"/>
    </contour>
    <contour>
      <point x="479" y="504" type="curve"/>
      <point x="328" y="353"/>
      <point x="177" y="201"/>
      <point x="25" y="50" type="curve"/>
      <point x="18" y="20"/>
      <point x="61" y="17"/>
      <point x="82" y="36" type="curve" smooth="yes"/>
      <point x="238" y="190"/>
      <point x="523" y="476"/>
      <point x="523" y="477" type="curve"/>
      <point x="528" y="497"/>
      <point x="509" y="504"/>
    </contour>
    <contour>
      <point x="402" y="0" type="line"/>
      <point x="405" y="14"/>
      <point x="408" y="26"/>
      <point x="412" y="40" type="curve"/>
      <point x="413" y="46"/>
      <point x="409" y="51"/>
      <point x="403" y="51" type="curve" smooth="yes"/>
      <point x="84" y="51" type="line" smooth="yes"/>
      <point x="62" y="51"/>
      <point x="50" y="51"/>
      <point x="25" y="50" type="curve"/>
      <point x="16" y="11" type="line" smooth="yes"/>
      <point x="15" y="8"/>
      <point x="15" y="5"/>
      <point x="16" y="3" type="curve" smooth="yes"/>
      <point x="18" y="1"/>
      <point x="21" y="0"/>
      <point x="24" y="0" type="curve" smooth="yes"/>
    </contour>
    <contour>
      <point x="274" y="538" type="move" name="top"/>
    </contour>
  </outline>
</glyph>
<glyph name="braceleft" format="1">
  <advance width="500"/>
  <unicode hex="007B"/>
  <outline>
    <contour>
      <point x="418" y="705" type="curve" smooth="yes"/>
      <point x="471" y="705"/>
      <point x="518" y="705"/>
      <point x="571" y="705" type="curve"/>
      <point x="591" y="705" type="line"/>
      <point x="594" y="720"/>
      <point x="598" y="734"/>
      <point x="602" y="749" type="curve"/>
      <point x="604" y="756"/>
      <point x="601" y="760"/>
      <point x="594" y="760" type="curve" smooth="yes"/>
      <point x="426" y="760" type="line" smooth="yes"/>
      <point x="349" y="760"/>
      <point x="308" y="702"/>
      <point x="299" y="666" type="curve" smooth="yes"/>
      <point x="298" y="662" type="line" smooth="yes"/>
      <point x="296" y="653"/>
      <point x="304" y="651"/>
      <point x="346" y="649" type="curve"/>
      <point x="363" y="688"/>
      <point x="383" y="705"/>
    </contour>
    <contour>
      <point x="379" y="449" type="curve" smooth="yes"/>
      <point x="401" y="535"/>
      <point x="330" y="568"/>
      <point x="344" y="623" type="curve" smooth="yes"/>
      <point x="349" y="643"/>
      <point x="355" y="668"/>
      <point x="360" y="689" type="curve"/>
      <point x="306" y="676"/>
      <point x="301" y="672"/>
      <point x="299" y="666" type="curve" smooth="yes"/>
      <point x="286" y="613" type="line" smooth="yes"/>
      <point x="268" y="543"/>
      <point x="341" y="516"/>
      <point x="323" y="446" type="curve" smooth="yes"/>
      <point x="305" y="373"/>
      <point x="211" y="328"/>
      <point x="85" y="328" type="curve" smooth="yes"/>
      <point x="53" y="328" type="line"/>
      <point x="44" y="292" type="line" smooth="yes"/>
      <point x="42" y="283"/>
      <point x="49" y="276"/>
      <point x="57" y="276" type="curve" smooth="yes"/>
      <point x="72" y="276" type="line" smooth="yes"/>
      <point x="228" y="276"/>
      <point x="354" y="346"/>
    </contour>
    <contour>
      <point x="305" y="149" type="curve" smooth="yes"/>
      <point x="330" y="252"/>
      <point x="245" y="324"/>
      <point x="84" y="324" type="curve" smooth="yes"/>
      <point x="73" y="324"/>
      <point x="63" y="324"/>
      <point x="52" y="324" type="curve"/>
      <point x="42" y="283" type="line" smooth="yes"/>
      <point x="40" y="276"/>
      <point x="43" y="272"/>
      <point x="50" y="272" type="curve" smooth="yes"/>
      <point x="71" y="272" type="line" smooth="yes"/>
      <point x="198" y="272"/>
      <point x="268" y="225"/>
      <point x="250" y="152" type="curve" smooth="yes"/>
      <point x="232" y="82"/>
      <point x="147" y="56"/>
      <point x="129" y="-14" type="curve" smooth="yes"/>
      <point x="116" y="-67" type="line" smooth="yes"/>
      <point x="114" y="-73"/>
      <point x="119" y="-77"/>
      <point x="166" y="-86" type="curve"/>
      <point x="172" y="-66"/>
      <point x="177" y="-44"/>
      <point x="182" y="-24" type="curve" smooth="yes"/>
      <point x="196" y="31"/>
      <point x="283" y="63"/>
    </contour>
    <contour>
      <point x="215" y="-106" type="curve" smooth="yes"/>
      <point x="180" y="-106"/>
      <point x="169" y="-89"/>
      <point x="172" y="-50" type="curve"/>
      <point x="128" y="-52"/>
      <point x="119" y="-54"/>
      <point x="117" y="-63" type="curve" smooth="yes"/>
      <point x="116" y="-67" type="line" smooth="yes"/>
      <point x="107" y="-103"/>
      <point x="118" y="-161"/>
      <point x="196" y="-161" type="curve" smooth="yes"/>
      <point x="363" y="-161" type="line" smooth="yes"/>
      <point x="370" y="-161"/>
      <point x="375" y="-157"/>
      <point x="377" y="-150" type="curve"/>
      <point x="388" y="-106" type="line"/>
      <point x="368" y="-106" type="line"/>
      <point x="316" y="-106"/>
      <point x="268" y="-106"/>
    </contour>
  </outline>
</glyph>
<glyph name="bar" format="1">
  <advance width="300"/>
  <unicode hex="007C"/>
  <outline>
    <contour>
      <point x="246" y="760" type="curve"/>
      <point x="238" y="727"/>
      <point x="230" y="694"/>
      <point x="221" y="661" type="curve" smooth="yes"/>
      <point x="19" y="-150" type="line" smooth="yes"/>
      <point x="17" y="-156"/>
      <point x="21" y="-161"/>
      <point x="27" y="-161" type="curve" smooth="yes"/>
      <point x="42" y="-161"/>
      <point x="57" y="-161"/>
      <point x="72" y="-161" type="curve"/>
      <point x="299" y="749" type="line" smooth="yes"/>
      <point x="300" y="752"/>
      <point x="300" y="755"/>
      <point x="298" y="757" type="curve" smooth="yes"/>
      <point x="297" y="759"/>
      <point x="294" y="760"/>
      <point x="291" y="760" type="curve" smooth="yes"/>
      <point x="276" y="760"/>
      <point x="261" y="760"/>
    </contour>
  </outline>
</glyph>
<glyph name="braceright" format="1">
  <advance width="500"/>
  <unicode hex="007D"/>
  <outline>
    <contour>
      <point x="101" y="-104" type="curve" smooth="yes"/>
      <point x="48" y="-104"/>
      <point x="0" y="-104"/>
      <point x="-52" y="-104" type="curve"/>
      <point x="-72" y="-104" type="line"/>
      <point x="-76" y="-118"/>
      <point x="-80" y="-133"/>
      <point x="-83" y="-148" type="curve"/>
      <point x="-85" y="-155"/>
      <point x="-82" y="-159"/>
      <point x="-75" y="-159" type="curve" smooth="yes"/>
      <point x="93" y="-159" type="line" smooth="yes"/>
      <point x="170" y="-159"/>
      <point x="211" y="-100"/>
      <point x="220" y="-65" type="curve" smooth="yes"/>
      <point x="221" y="-61" type="line" smooth="yes"/>
      <point x="223" y="-51"/>
      <point x="214" y="-50"/>
      <point x="172" y="-47" type="curve"/>
      <point x="156" y="-86"/>
      <point x="136" y="-104"/>
    </contour>
    <contour>
      <point x="139" y="153" type="curve" smooth="yes"/>
      <point x="117" y="66"/>
      <point x="189" y="33"/>
      <point x="175" y="-22" type="curve" smooth="yes"/>
      <point x="170" y="-42"/>
      <point x="164" y="-67"/>
      <point x="158" y="-88" type="curve"/>
      <point x="213" y="-75"/>
      <point x="218" y="-71"/>
      <point x="220" y="-65" type="curve" smooth="yes"/>
      <point x="233" y="-12" type="line" smooth="yes"/>
      <point x="250" y="59"/>
      <point x="178" y="85"/>
      <point x="195" y="155" type="curve" smooth="yes"/>
      <point x="213" y="228"/>
      <point x="307" y="274"/>
      <point x="434" y="274" type="curve" smooth="yes"/>
      <point x="466" y="274" type="line"/>
      <point x="475" y="309" type="line" smooth="yes"/>
      <point x="477" y="318"/>
      <point x="470" y="325"/>
      <point x="461" y="325" type="curve" smooth="yes"/>
      <point x="447" y="325" type="line" smooth="yes"/>
      <point x="290" y="325"/>
      <point x="165" y="255"/>
    </contour>
    <contour>
      <point x="214" y="452" type="curve" smooth="yes"/>
      <point x="188" y="349"/>
      <point x="274" y="278"/>
      <point x="435" y="278" type="curve" smooth="yes"/>
      <point x="446" y="278"/>
      <point x="456" y="278"/>
      <point x="467" y="278" type="curve"/>
      <point x="477" y="318" type="line" smooth="yes"/>
      <point x="479" y="325"/>
      <point x="476" y="329"/>
      <point x="469" y="329" type="curve" smooth="yes"/>
      <point x="448" y="329" type="line" smooth="yes"/>
      <point x="321" y="329"/>
      <point x="251" y="377"/>
      <point x="269" y="449" type="curve" smooth="yes"/>
      <point x="286" y="519"/>
      <point x="372" y="545"/>
      <point x="390" y="615" type="curve" smooth="yes"/>
      <point x="403" y="669" type="line" smooth="yes"/>
      <point x="404" y="674"/>
      <point x="400" y="679"/>
      <point x="352" y="687" type="curve"/>
      <point x="347" y="667"/>
      <point x="342" y="646"/>
      <point x="337" y="625" type="curve" smooth="yes"/>
      <point x="323" y="570"/>
      <point x="236" y="539"/>
    </contour>
    <contour>
      <point x="303" y="707" type="curve" smooth="yes"/>
      <point x="339" y="707"/>
      <point x="350" y="690"/>
      <point x="347" y="651" type="curve"/>
      <point x="390" y="653"/>
      <point x="400" y="655"/>
      <point x="402" y="665" type="curve" smooth="yes"/>
      <point x="403" y="669" type="line" smooth="yes"/>
      <point x="412" y="704"/>
      <point x="400" y="762"/>
      <point x="323" y="762" type="curve" smooth="yes"/>
      <point x="155" y="762" type="line" smooth="yes"/>
      <point x="148" y="762"/>
      <point x="143" y="758"/>
      <point x="142" y="751" type="curve"/>
      <point x="131" y="707" type="line"/>
      <point x="151" y="707" type="line"/>
      <point x="203" y="707"/>
      <point x="250" y="707"/>
    </contour>
  </outline>
</glyph>
<glyph name="exclamdown" format="1">
  <advance width="400"/>
  <unicode hex="00A1"/>
  <outline>
    <contour>
      <point x="180" y="284" type="line"/>
      <point x="154" y="198"/>
      <point x="128" y="111"/>
      <point x="102" y="25" type="curve"/>
      <point x="56" y="-162" type="line" smooth="yes"/>
      <point x="54" y="-169"/>
      <point x="57" y="-173"/>
      <point x="63" y="-173" type="curve" smooth="yes"/>
      <point x="86" y="-173"/>
      <point x="108" y="-173"/>
      <point x="129" y="-173" type="curve"/>
      <point x="138" y="-135"/>
      <point x="147" y="-100"/>
      <point x="156" y="-63" type="curve" smooth="yes"/>
      <point x="178" y="25" type="line"/>
      <point x="228" y="270"/>
      <point x="228" y="277"/>
      <point x="225" y="281" type="curve" smooth="yes"/>
      <point x="224" y="283"/>
      <point x="222" y="284"/>
      <point x="218" y="284" type="curve"/>
    </contour>
    <contour>
      <point x="203" y="532" type="curve"/>
      <point x="175" y="419" type="line" smooth="yes"/>
      <point x="173" y="413"/>
      <point x="177" y="408"/>
      <point x="183" y="408" type="curve" smooth="yes"/>
      <point x="215" y="408"/>
      <point x="268" y="408"/>
      <point x="300" y="408" type="curve"/>
      <point x="329" y="521" type="line" smooth="yes"/>
      <point x="330" y="527"/>
      <point x="326" y="532"/>
      <point x="320" y="532" type="curve" smooth="yes"/>
      <point x="288" y="532"/>
      <point x="235" y="532"/>
    </contour>
  </outline>
</glyph>
<glyph name="cent" format="1">
  <advance width="600"/>
  <unicode hex="00A2"/>
  <outline>
    <contour>
      <point x="384" y="403" type="line"/>
      <point x="501" y="755" type="line" smooth="yes"/>
      <point x="504" y="764"/>
      <point x="500" y="768"/>
      <point x="494" y="768" type="curve" smooth="yes"/>
      <point x="469" y="768"/>
      <point x="459" y="768"/>
      <point x="436" y="768" type="curve"/>
      <point x="428" y="739"/>
      <point x="421" y="711"/>
      <point x="414" y="683" type="curve"/>
      <point x="349" y="423" type="line" smooth="yes"/>
      <point x="347" y="415"/>
      <point x="350" y="411"/>
      <point x="356" y="409" type="curve" smooth="yes"/>
    </contour>
    <contour>
      <point x="319" y="299" type="line"/>
      <point x="202" y="-53" type="line" smooth="yes"/>
      <point x="199" y="-62"/>
      <point x="203" y="-66"/>
      <point x="209" y="-66" type="curve" smooth="yes"/>
      <point x="234" y="-66"/>
      <point x="244" y="-66"/>
      <point x="268" y="-66" type="curve"/>
      <point x="275" y="-38"/>
      <point x="282" y="-9"/>
      <point x="289" y="19" type="curve"/>
      <point x="354" y="279" type="line" smooth="yes"/>
      <point x="356" y="287"/>
      <point x="353" y="291"/>
      <point x="347" y="292" type="curve" smooth="yes"/>
    </contour>
    <contour>
      <point x="427" y="625" type="curve" smooth="yes"/>
      <point x="291" y="625"/>
      <point x="168" y="550"/>
      <point x="129" y="394" type="curve" smooth="yes"/>
      <point x="106" y="304" type="line" smooth="yes"/>
      <point x="70" y="158"/>
      <point x="134" y="78"/>
      <point x="286" y="78" type="curve" smooth="yes"/>
      <point x="289" y="78"/>
      <point x="307" y="98"/>
      <point x="298" y="131" type="curve"/>
      <point x="180" y="131"/>
      <point x="134" y="192"/>
      <point x="164" y="311" type="curve" smooth="yes"/>
      <point x="183" y="387" type="line" smooth="yes"/>
      <point x="213" y="509"/>
      <point x="288" y="573"/>
      <point x="413" y="573" type="curve" smooth="yes"/>
      <point x="479" y="573"/>
      <point x="515" y="555"/>
      <point x="551" y="527" type="curve"/>
      <point x="563" y="527" type="line"/>
      <point x="567" y="538"/>
      <point x="569" y="551"/>
      <point x="573" y="569" type="curve" smooth="yes"/>
      <point x="575" y="574"/>
      <point x="574" y="577"/>
      <point x="572" y="582" type="curve" smooth="yes"/>
      <point x="560" y="597"/>
      <point x="511" y="625"/>
    </contour>
    <contour>
      <point x="132" y="221" type="curve"/>
      <point x="96" y="153"/>
      <point x="159" y="78"/>
      <point x="286" y="78" type="curve" smooth="yes"/>
      <point x="361" y="78"/>
      <point x="431" y="101"/>
      <point x="460" y="125" type="curve" smooth="yes"/>
      <point x="462" y="127"/>
      <point x="464" y="130"/>
      <point x="465" y="133" type="curve"/>
      <point x="468" y="148"/>
      <point x="472" y="161"/>
      <point x="475" y="176" type="curve"/>
      <point x="463" y="176" type="line"/>
      <point x="410" y="148"/>
      <point x="366" y="131"/>
      <point x="298" y="131" type="curve" smooth="yes"/>
      <point x="204" y="131"/>
      <point x="169" y="161"/>
    </contour>
  </outline>
</glyph>
<glyph name="sterling" format="1">
  <advance width="600"/>
  <unicode hex="00A3"/>
  <outline>
    <contour>
      <point x="456" y="667" type="curve" smooth="yes"/>
      <point x="520" y="667"/>
      <point x="552" y="649"/>
      <point x="590" y="610" type="curve"/>
      <point x="602" y="610" type="line"/>
      <point x="604" y="620"/>
      <point x="608" y="636"/>
      <point x="614" y="659" type="curve" smooth="yes"/>
      <point x="615" y="663"/>
      <point x="614" y="665"/>
      <point x="613" y="667" type="curve" smooth="yes"/>
      <point x="592" y="696"/>
      <point x="542" y="720"/>
      <point x="469" y="720" type="curve" smooth="yes"/>
      <point x="345" y="720"/>
      <point x="261" y="636"/>
      <point x="239" y="548" type="curve" smooth="yes"/>
      <point x="235" y="532" type="line" smooth="yes"/>
      <point x="231" y="515"/>
      <point x="245" y="516"/>
      <point x="293" y="543" type="curve"/>
      <point x="313" y="622"/>
      <point x="371" y="667"/>
    </contour>
    <contour>
      <point x="235" y="532" type="curve" smooth="yes"/>
      <point x="203" y="402"/>
      <point x="177" y="297"/>
      <point x="142" y="160" type="curve" smooth="yes"/>
      <point x="124" y="89"/>
      <point x="70" y="48"/>
      <point x="9" y="48" type="curve" smooth="yes"/>
      <point x="6" y="48"/>
      <point x="3" y="48"/>
      <point x="0" y="48" type="curve"/>
      <point x="-4" y="48" type="line"/>
      <point x="-8" y="36"/>
      <point x="-10" y="26"/>
      <point x="-14" y="11" type="curve" smooth="yes"/>
      <point x="-16" y="3"/>
      <point x="-12" y="0"/>
      <point x="-5" y="0" type="curve" smooth="yes"/>
      <point x="0" y="0" type="line" smooth="yes"/>
      <point x="85" y="0"/>
      <point x="171" y="52"/>
      <point x="200" y="170" type="curve" smooth="yes"/>
      <point x="233" y="303"/>
      <point x="263" y="420"/>
      <point x="293" y="543" type="curve" smooth="yes"/>
      <point x="298" y="562"/>
      <point x="303" y="580"/>
      <point x="308" y="599" type="curve"/>
      <point x="276" y="599"/>
      <point x="246" y="574"/>
    </contour>
    <contour>
      <point x="0" y="0" type="curve"/>
      <point x="170" y="0"/>
      <point x="271" y="0"/>
      <point x="399" y="0" type="curve" smooth="yes"/>
      <point x="464" y="0" type="line" smooth="yes"/>
      <point x="472" y="0"/>
      <point x="475" y="3"/>
      <point x="477" y="11" type="curve"/>
      <point x="481" y="24"/>
      <point x="484" y="36"/>
      <point x="487" y="48" type="curve"/>
      <point x="467" y="48" type="line"/>
      <point x="444" y="48"/>
      <point x="426" y="48"/>
      <point x="397" y="48" type="curve" smooth="yes"/>
      <point x="297" y="48"/>
      <point x="227" y="48"/>
      <point x="78" y="48" type="curve"/>
      <point x="-1" y="5"/>
      <point x="-4" y="0"/>
    </contour>
    <contour>
      <point x="97" y="372" type="line"/>
      <point x="93" y="359"/>
      <point x="91" y="349"/>
      <point x="88" y="337" type="curve" smooth="yes"/>
      <point x="87" y="334"/>
      <point x="87" y="331"/>
      <point x="89" y="329" type="curve" smooth="yes"/>
      <point x="90" y="327"/>
      <point x="93" y="326"/>
      <point x="96" y="326" type="curve" smooth="yes"/>
      <point x="466" y="326" type="line"/>
      <point x="469" y="338"/>
      <point x="471" y="348"/>
      <point x="474" y="361" type="curve" smooth="yes"/>
      <point x="476" y="367"/>
      <point x="472" y="372"/>
      <point x="466" y="372" type="curve" smooth="yes"/>
    </contour>
  </outline>
</glyph>
<glyph name="currency" format="1">
  <advance width="600"/>
  <unicode hex="00A4"/>
  <outline>
    <contour>
      <point x="256" y="420" type="curve"/>
      <point x="237" y="445"/>
      <point x="215" y="475"/>
      <point x="196" y="500" type="curve" smooth="yes"/>
      <point x="194" y="502"/>
      <point x="192" y="503"/>
      <point x="190" y="503" type="curve" smooth="yes"/>
      <point x="188" y="503"/>
      <point x="186" y="502"/>
      <point x="184" y="500" type="curve" smooth="yes"/>
      <point x="169" y="488"/>
      <point x="156" y="478"/>
      <point x="144" y="469" type="curve"/>
      <point x="162" y="444"/>
      <point x="186" y="413"/>
      <point x="204" y="389" type="curve" smooth="yes"/>
      <point x="207" y="385"/>
      <point x="211" y="385"/>
      <point x="216" y="389" type="curve" smooth="yes"/>
      <point x="230" y="399"/>
      <point x="243" y="410"/>
    </contour>
    <contour>
      <point x="421" y="420" type="curve"/>
      <point x="427" y="411"/>
      <point x="437" y="398"/>
      <point x="445" y="389" type="curve" smooth="yes"/>
      <point x="448" y="385"/>
      <point x="452" y="385"/>
      <point x="457" y="389" type="curve" smooth="yes"/>
      <point x="487" y="413"/>
      <point x="526" y="444"/>
      <point x="557" y="469" type="curve"/>
      <point x="549" y="479"/>
      <point x="542" y="488"/>
      <point x="533" y="500" type="curve" smooth="yes"/>
      <point x="531" y="502"/>
      <point x="530" y="503"/>
      <point x="528" y="503" type="curve" smooth="yes"/>
      <point x="526" y="503"/>
      <point x="523" y="502"/>
      <point x="521" y="500" type="curve" smooth="yes"/>
      <point x="489" y="475"/>
      <point x="451" y="445"/>
    </contour>
    <contour>
      <point x="361" y="180" type="curve"/>
      <point x="379" y="155"/>
      <point x="402" y="125"/>
      <point x="421" y="100" type="curve" smooth="yes"/>
      <point x="422" y="98"/>
      <point x="424" y="97"/>
      <point x="426" y="97" type="curve" smooth="yes"/>
      <point x="428" y="97"/>
      <point x="430" y="98"/>
      <point x="433" y="100" type="curve" smooth="yes"/>
      <point x="448" y="111"/>
      <point x="460" y="122"/>
      <point x="472" y="131" type="curve"/>
      <point x="454" y="156"/>
      <point x="430" y="187"/>
      <point x="412" y="211" type="curve" smooth="yes"/>
      <point x="409" y="215"/>
      <point x="405" y="215"/>
      <point x="400" y="211" type="curve" smooth="yes"/>
      <point x="387" y="201"/>
      <point x="373" y="189"/>
    </contour>
    <contour>
      <point x="195" y="180" type="curve"/>
      <point x="189" y="189"/>
      <point x="179" y="201"/>
      <point x="172" y="211" type="curve" smooth="yes"/>
      <point x="169" y="215"/>
      <point x="165" y="215"/>
      <point x="160" y="211" type="curve" smooth="yes"/>
      <point x="129" y="187"/>
      <point x="90" y="156"/>
      <point x="60" y="131" type="curve"/>
      <point x="67" y="121"/>
      <point x="74" y="111"/>
      <point x="83" y="100" type="curve" smooth="yes"/>
      <point x="85" y="98"/>
      <point x="87" y="97"/>
      <point x="89" y="97" type="curve" smooth="yes"/>
      <point x="91" y="97"/>
      <point x="93" y="98"/>
      <point x="95" y="100" type="curve" smooth="yes"/>
      <point x="127" y="125"/>
      <point x="165" y="155"/>
    </contour>
    <contour>
      <point x="280" y="184" type="curve"/>
      <point x="209" y="184"/>
      <point x="178" y="220"/>
      <point x="193" y="281" type="curve" smooth="yes"/>
      <point x="204" y="321" type="line" smooth="yes"/>
      <point x="219" y="382"/>
      <point x="269" y="418"/>
      <point x="339" y="418" type="curve" smooth="yes"/>
      <point x="385" y="418"/>
      <point x="404" y="412"/>
      <point x="432" y="393" type="curve"/>
      <point x="457" y="426"/>
      <point x="412" y="468"/>
      <point x="351" y="468" type="curve"/>
      <point x="251" y="468"/>
      <point x="172" y="411"/>
      <point x="150" y="322" type="curve" smooth="yes"/>
      <point x="140" y="280" type="line" smooth="yes"/>
      <point x="117" y="190"/>
      <point x="167" y="134"/>
      <point x="268" y="134" type="curve"/>
      <point x="277" y="134"/>
      <point x="279" y="145"/>
    </contour>
    <contour>
      <point x="339" y="418" type="curve"/>
      <point x="410" y="418"/>
      <point x="440" y="382"/>
      <point x="425" y="321" type="curve" smooth="yes"/>
      <point x="415" y="281" type="line" smooth="yes"/>
      <point x="400" y="220"/>
      <point x="350" y="184"/>
      <point x="280" y="184" type="curve" smooth="yes"/>
      <point x="234" y="184"/>
      <point x="215" y="190"/>
      <point x="187" y="209" type="curve"/>
      <point x="162" y="176"/>
      <point x="206" y="134"/>
      <point x="268" y="134" type="curve"/>
      <point x="368" y="134"/>
      <point x="446" y="190"/>
      <point x="469" y="280" type="curve" smooth="yes"/>
      <point x="479" y="322" type="line" smooth="yes"/>
      <point x="502" y="411"/>
      <point x="452" y="468"/>
      <point x="351" y="468" type="curve"/>
      <point x="339" y="468"/>
      <point x="336" y="459"/>
    </contour>
  </outline>
</glyph>
<glyph name="yen" format="1">
  <advance width="600"/>
  <unicode hex="00A5"/>
  <outline>
    <contour>
      <point x="100" y="451" type="line"/>
      <point x="97" y="438"/>
      <point x="95" y="428"/>
      <point x="91" y="415" type="curve" smooth="yes"/>
      <point x="91" y="412"/>
      <point x="91" y="409"/>
      <point x="92" y="407" type="curve" smooth="yes"/>
      <point x="94" y="405"/>
      <point x="97" y="404"/>
      <point x="100" y="404" type="curve"/>
      <point x="258" y="404" type="line"/>
      <point x="262" y="417"/>
      <point x="264" y="427"/>
      <point x="267" y="440" type="curve" smooth="yes"/>
      <point x="269" y="446"/>
      <point x="265" y="451"/>
      <point x="259" y="451" type="curve"/>
    </contour>
    <contour>
      <point x="424" y="451" type="line"/>
      <point x="421" y="438"/>
      <point x="418" y="428"/>
      <point x="415" y="415" type="curve" smooth="yes"/>
      <point x="413" y="409"/>
      <point x="417" y="404"/>
      <point x="423" y="404" type="curve"/>
      <point x="582" y="404" type="line"/>
      <point x="585" y="417"/>
      <point x="588" y="427"/>
      <point x="591" y="440" type="curve" smooth="yes"/>
      <point x="592" y="446"/>
      <point x="588" y="451"/>
      <point x="582" y="451" type="curve"/>
    </contour>
    <contour>
      <point x="520" y="156" type="line"/>
      <point x="523" y="168"/>
      <point x="525" y="179"/>
      <point x="528" y="191" type="curve" smooth="yes"/>
      <point x="529" y="194"/>
      <point x="529" y="197"/>
      <point x="527" y="199" type="curve" smooth="yes"/>
      <point x="526" y="201"/>
      <point x="523" y="202"/>
      <point x="520" y="202" type="curve"/>
      <point x="38" y="202" type="line"/>
      <point x="35" y="190"/>
      <point x="32" y="179"/>
      <point x="29" y="167" type="curve" smooth="yes"/>
      <point x="28" y="161"/>
      <point x="31" y="156"/>
      <point x="37" y="156" type="curve"/>
    </contour>
    <contour>
      <point x="149" y="700" type="line"/>
      <point x="192" y="559"/>
      <point x="235" y="419"/>
      <point x="278" y="279" type="curve"/>
      <point x="280" y="275"/>
      <point x="287" y="274"/>
      <point x="292" y="274" type="curve"/>
      <point x="305" y="274"/>
      <point x="321" y="298"/>
      <point x="327" y="324" type="curve"/>
      <point x="290" y="445"/>
      <point x="253" y="568"/>
      <point x="215" y="690" type="curve"/>
      <point x="214" y="696"/>
      <point x="212" y="700"/>
      <point x="201" y="700" type="curve" smooth="yes"/>
    </contour>
    <contour>
      <point x="609" y="700" type="line"/>
      <point x="507" y="573"/>
      <point x="406" y="448"/>
      <point x="304" y="321" type="curve"/>
      <point x="288" y="299"/>
      <point x="289" y="276"/>
      <point x="292" y="274" type="curve"/>
      <point x="326" y="274" type="line"/>
      <point x="437" y="411"/>
      <point x="550" y="549"/>
      <point x="661" y="687" type="curve"/>
      <point x="666" y="694"/>
      <point x="663" y="700"/>
      <point x="658" y="700" type="curve"/>
    </contour>
    <contour>
      <point x="262" y="0" type="curve"/>
      <point x="270" y="32"/>
      <point x="278" y="65"/>
      <point x="287" y="100" type="curve" smooth="yes"/>
      <point x="339" y="308" type="line" smooth="yes"/>
      <point x="341" y="314"/>
      <point x="337" y="319"/>
      <point x="286" y="319" type="curve"/>
      <point x="209" y="11" type="line" smooth="yes"/>
      <point x="208" y="8"/>
      <point x="208" y="5"/>
      <point x="210" y="3" type="curve" smooth="yes"/>
      <point x="211" y="1"/>
      <point x="214" y="0"/>
      <point x="217" y="0" type="curve" smooth="yes"/>
      <point x="232" y="0"/>
      <point x="247" y="0"/>
    </contour>
  </outline>
</glyph>
<glyph name="brokenbar" format="1">
  <advance width="300"/>
  <unicode hex="00A6"/>
  <outline>
    <contour>
      <point x="246" y="760" type="curve"/>
      <point x="238" y="727"/>
      <point x="230" y="694"/>
      <point x="221" y="661" type="curve" smooth="yes"/>
      <point x="151" y="380" type="line" smooth="yes"/>
      <point x="150" y="374"/>
      <point x="153" y="369"/>
      <point x="159" y="369" type="curve" smooth="yes"/>
      <point x="174" y="369"/>
      <point x="189" y="369"/>
      <point x="204" y="369" type="curve"/>
      <point x="299" y="749" type="line" smooth="yes"/>
      <point x="300" y="752"/>
      <point x="300" y="755"/>
      <point x="298" y="757" type="curve" smooth="yes"/>
      <point x="297" y="759"/>
      <point x="294" y="760"/>
      <point x="291" y="760" type="curve" smooth="yes"/>
      <point x="276" y="760"/>
      <point x="261" y="760"/>
    </contour>
    <contour>
      <point x="114" y="231" type="curve"/>
      <point x="19" y="-149" type="line"/>
      <point x="17" y="-155"/>
      <point x="21" y="-160"/>
      <point x="27" y="-160" type="curve" smooth="yes"/>
      <point x="42" y="-160"/>
      <point x="57" y="-160"/>
      <point x="72" y="-160" type="curve"/>
      <point x="167" y="220" type="line" smooth="yes"/>
      <point x="169" y="227"/>
      <point x="166" y="231"/>
      <point x="159" y="231" type="curve" smooth="yes"/>
      <point x="144" y="231"/>
      <point x="129" y="231"/>
    </contour>
  </outline>
</glyph>
<glyph name="section" format="1">
  <advance width="600"/>
  <unicode hex="00A7"/>
  <outline>
    <contour>
      <point x="430" y="716" type="curve" smooth="yes"/>
      <point x="298" y="716"/>
      <point x="184" y="644"/>
      <point x="159" y="544" type="curve" smooth="yes"/>
      <point x="147" y="498" type="line" smooth="yes"/>
      <point x="142" y="476"/>
      <point x="159" y="452"/>
      <point x="188" y="443" type="curve"/>
      <point x="192" y="459"/>
      <point x="207" y="518"/>
      <point x="212" y="539" type="curve" smooth="yes"/>
      <point x="231" y="615"/>
      <point x="313" y="664"/>
      <point x="418" y="664" type="curve" smooth="yes"/>
      <point x="500" y="664"/>
      <point x="555" y="646"/>
      <point x="579" y="610" type="curve"/>
      <point x="608" y="636"/>
      <point x="611" y="639"/>
      <point x="612" y="643" type="curve" smooth="yes"/>
      <point x="615" y="653"/>
      <point x="613" y="656"/>
      <point x="609" y="662" type="curve" smooth="yes"/>
      <point x="584" y="695"/>
      <point x="518" y="716"/>
    </contour>
    <contour>
      <point x="404" y="365" type="curve" smooth="yes"/>
      <point x="314" y="393" type="line" smooth="yes"/>
      <point x="221" y="422"/>
      <point x="190" y="449"/>
      <point x="204" y="508" type="curve" smooth="yes"/>
      <point x="209" y="528"/>
      <point x="217" y="559"/>
      <point x="220" y="569" type="curve"/>
      <point x="192" y="569"/>
      <point x="162" y="555"/>
      <point x="147" y="498" type="curve" smooth="yes"/>
      <point x="129" y="424"/>
      <point x="163" y="378"/>
      <point x="280" y="341" type="curve" smooth="yes"/>
      <point x="370" y="312" type="line" smooth="yes"/>
      <point x="452" y="285"/>
      <point x="468" y="249"/>
      <point x="452" y="183" type="curve" smooth="yes"/>
      <point x="447" y="164" type="line" smooth="yes"/>
      <point x="435" y="117"/>
      <point x="418" y="95"/>
      <point x="365" y="56" type="curve"/>
      <point x="375" y="47"/>
      <point x="382" y="45"/>
      <point x="393" y="45" type="curve" smooth="yes"/>
      <point x="433" y="45"/>
      <point x="486" y="101"/>
      <point x="502" y="163" type="curve" smooth="yes"/>
      <point x="510" y="194" type="line" smooth="yes"/>
      <point x="530" y="275"/>
      <point x="510" y="332"/>
    </contour>
    <contour>
      <point x="327" y="94" type="curve" smooth="yes"/>
      <point x="237" y="122" type="line" smooth="yes"/>
      <point x="144" y="151"/>
      <point x="124" y="186"/>
      <point x="138" y="244" type="curve" smooth="yes"/>
      <point x="142" y="261" type="line" smooth="yes"/>
      <point x="158" y="321"/>
      <point x="170" y="343"/>
      <point x="240" y="381" type="curve"/>
      <point x="228" y="386"/>
      <point x="219" y="389"/>
      <point x="205" y="389" type="curve" smooth="yes"/>
      <point x="161" y="389"/>
      <point x="105" y="329"/>
      <point x="89" y="263" type="curve" smooth="yes"/>
      <point x="81" y="234" type="line" smooth="yes"/>
      <point x="63" y="160"/>
      <point x="89" y="108"/>
      <point x="205" y="71" type="curve" smooth="yes"/>
      <point x="296" y="42" type="line" smooth="yes"/>
      <point x="378" y="15"/>
      <point x="405" y="-5"/>
      <point x="390" y="-64" type="curve" smooth="yes"/>
      <point x="386" y="-81"/>
      <point x="380" y="-103"/>
      <point x="377" y="-115" type="curve"/>
      <point x="399" y="-115"/>
      <point x="440" y="-86"/>
      <point x="444" y="-68" type="curve"/>
      <point x="466" y="21"/>
      <point x="433" y="61"/>
    </contour>
    <contour>
      <point x="170" y="-250" type="curve" smooth="yes"/>
      <point x="313" y="-250"/>
      <point x="416" y="-182"/>
      <point x="441" y="-82" type="curve" smooth="yes"/>
      <point x="444" y="-68" type="line" smooth="yes"/>
      <point x="448" y="-53"/>
      <point x="426" y="-41"/>
      <point x="396" y="-41" type="curve"/>
      <point x="393" y="-52"/>
      <point x="389" y="-68"/>
      <point x="386" y="-81" type="curve" smooth="yes"/>
      <point x="367" y="-154"/>
      <point x="292" y="-198"/>
      <point x="183" y="-198" type="curve" smooth="yes"/>
      <point x="94" y="-198"/>
      <point x="40" y="-177"/>
      <point x="-7" y="-118" type="curve"/>
      <point x="-19" y="-118" type="line"/>
      <point x="-22" y="-129"/>
      <point x="-26" y="-144"/>
      <point x="-32" y="-170" type="curve" smooth="yes"/>
      <point x="-33" y="-174"/>
      <point x="-33" y="-176"/>
      <point x="-31" y="-178" type="curve" smooth="yes"/>
      <point x="3" y="-223"/>
      <point x="78" y="-250"/>
    </contour>
    <contour>
      <point x="582" y="521" type="curve"/>
      <point x="612" y="643" type="line" smooth="yes"/>
      <point x="615" y="654"/>
      <point x="612" y="661"/>
      <point x="561" y="661" type="curve"/>
      <point x="560" y="657"/>
      <point x="560" y="654"/>
      <point x="559" y="650" type="curve" smooth="yes"/>
      <point x="529" y="532" type="line" smooth="yes"/>
      <point x="528" y="529"/>
      <point x="529" y="526"/>
      <point x="530" y="524" type="curve" smooth="yes"/>
      <point x="532" y="522"/>
      <point x="534" y="521"/>
      <point x="537" y="521" type="curve" smooth="yes"/>
      <point x="552" y="521"/>
      <point x="567" y="521"/>
    </contour>
  </outline>
</glyph>
<glyph name="dieresis" format="1">
  <advance width="600"/>
  <unicode hex="00A8"/>
  <outline>
    <contour>
      <point x="344" y="672" type="curve"/>
      <point x="362" y="746" type="line" smooth="yes"/>
      <point x="364" y="752"/>
      <point x="360" y="757"/>
      <point x="354" y="757" type="curve" smooth="yes"/>
      <point x="330" y="757"/>
      <point x="305" y="757"/>
      <point x="281" y="757" type="curve"/>
      <point x="262" y="683" type="line" smooth="yes"/>
      <point x="261" y="677"/>
      <point x="265" y="672"/>
      <point x="271" y="672" type="curve" smooth="yes"/>
      <point x="295" y="672"/>
      <point x="319" y="672"/>
    </contour>
    <contour>
      <point x="545" y="672" type="curve"/>
      <point x="563" y="746" type="line" smooth="yes"/>
      <point x="565" y="752"/>
      <point x="561" y="757"/>
      <point x="555" y="757" type="curve" smooth="yes"/>
      <point x="531" y="757"/>
      <point x="506" y="757"/>
      <point x="482" y="757" type="curve"/>
      <point x="464" y="683" type="line" smooth="yes"/>
      <point x="462" y="677"/>
      <point x="466" y="672"/>
      <point x="472" y="672" type="curve" smooth="yes"/>
      <point x="496" y="672"/>
      <point x="521" y="672"/>
    </contour>
  </outline>
</glyph>
